<?xml version="1.0" encoding="UTF-8" standalone="no"?>
<!-- Creator: fig2dev Version 3.2 Patchlevel 5d -->

<!-- CreationDate: Fri Nov  2 18:33:06 2012 -->

<!-- Magnification: 1.050 -->

<svg
   xmlns:dc="http://purl.org/dc/elements/1.1/"
   xmlns:cc="http://creativecommons.org/ns#"
   xmlns:rdf="http://www.w3.org/1999/02/22-rdf-syntax-ns#"
   xmlns:svg="http://www.w3.org/2000/svg"
   xmlns="http://www.w3.org/2000/svg"
   xmlns:sodipodi="http://sodipodi.sourceforge.net/DTD/sodipodi-0.dtd"
   xmlns:inkscape="http://www.inkscape.org/namespaces/inkscape"
   width="1.6in"
   height="2.4in"
   viewBox="1441 2755 1888 2929"
   id="svg3890"
   version="1.1"
   inkscape:version="0.48.3.1 r9886"
   sodipodi:docname="78Ge_levels.fig">
  <metadata
     id="metadata3968">
    <rdf:RDF>
      <cc:Work
         rdf:about="">
        <dc:format>image/svg+xml</dc:format>
        <dc:type
           rdf:resource="http://purl.org/dc/dcmitype/StillImage" />
        <dc:title></dc:title>
      </cc:Work>
    </rdf:RDF>
  </metadata>
  <defs
     id="defs3966" />
  <sodipodi:namedview
     pagecolor="#ffffff"
     bordercolor="#666666"
     borderopacity="1"
     objecttolerance="10"
     gridtolerance="10"
     guidetolerance="10"
     inkscape:pageopacity="0"
     inkscape:pageshadow="2"
     inkscape:window-width="1363"
     inkscape:window-height="847"
     id="namedview3964"
     showgrid="false"
     inkscape:object-paths="true"
     inkscape:snap-bbox="true"
     inkscape:bbox-paths="true"
     inkscape:zoom="3.3868815"
     inkscape:cx="72.036873"
     inkscape:cy="106.67805"
     inkscape:window-x="0"
     inkscape:window-y="24"
     inkscape:window-maximized="0"
     inkscape:current-layer="g3892" />
  <g
     style="stroke-width:.025in; fill:none"
     id="g3892">
    <!-- Line -->
    <polyline
       points="2456,4551 2456,5181 "
       style="stroke:#000000;stroke-width:8;stroke-linecap:butt;stroke-linejoin:miter"
       id="polyline3894"
       transform="matrix(1,0,0,1.0859866,0,-445.84076)" />
    <!-- Arrowhead on XXXpoint 2456 4488 - 2456 5259-->
    <polygon
       points="2440,5180 2440,5180 2456,5243 2472,5180 "
       style="fill:#000000;stroke:#000000;stroke-width:8;stroke-miterlimit:8"
       id="polygon3896"
       transform="matrix(1.0012718,0,0,0.98859418,-3.1235412,4.821041)" />
    <!-- Arrowhead on XXXpoint 2456 5244 - 2456 4472-->
    <polygon
       points="2425,4477 2426,4479 2427,4482 2427,4485 2428,4487 2430,4489 2431,4491 2433,4493 2434,4495 2436,4496 2438,4498 2440,4499 2443,4500 2445,4501 2448,4502 2450,4502 2452,4503 2455,4503 2457,4503 2460,4503 2462,4502 2465,4502 2468,4501 2470,4500 2472,4499 2474,4498 2476,4496 2478,4495 2479,4493 2481,4491 2482,4489 2485,4487 2486,4485 2486,4482 2487,4479 2488,4477 2488,4474 2488,4472 2425,4472 2425,4474 "
       style="fill:#000000;stroke:#000000;stroke-width:8;stroke-miterlimit:8"
       id="polygon3898"
       transform="translate(0,16)" />
    <!-- Line -->
    <polyline
       points="2456,3606 2456,4488 "
       style="stroke:#000000;stroke-width:8;stroke-linecap:butt;stroke-linejoin:miter"
       id="polyline3900"
       transform="matrix(1,0,0,1.0714286,0,-320.57143)" />
    <!-- Arrowhead on XXXpoint 2456 4488 - 2456 3527-->
    <polygon
       points="2425,3529 2425,3532 2426,3534 2427,3538 2427,3540 2428,3542 2430,3544 2431,3546 2433,3548 2434,3550 2436,3551 2438,3553 2440,3554 2443,3555 2445,3556 2448,3558 2450,3558 2452,3559 2455,3559 2457,3559 2460,3559 2462,3558 2465,3558 2468,3556 2470,3555 2472,3554 2474,3553 2476,3551 2478,3550 2479,3548 2481,3546 2482,3544 2485,3542 2486,3540 2486,3538 2487,3534 2488,3532 2488,3529 2488,3527 2425,3527 "
       style="fill:#000000;stroke:#000000;stroke-width:8;stroke-miterlimit:8"
       id="polygon3902"
       transform="translate(0,16)" />
    <!-- Line: box -->
    <rect
       x="1464"
       y="5196"
       width="1842"
       height="94"
       rx="0"
       style="stroke:#000000;stroke-width:8; stroke-linejoin:miter; stroke-linecap:butt; fill:#000000; "
       id="rect3904" />
    <!-- Line -->
    <polyline
       points="1464,3543 3307,3543 "
       style="stroke:#000000;stroke-width:16; stroke-linejoin:miter; stroke-linecap:butt; "
       id="polyline3906" />
    <!-- Line -->
    <polyline
       points="1464,4488 3307,4488 "
       style="stroke:#000000;stroke-width:16; stroke-linejoin:miter; stroke-linecap:butt; "
       id="polyline3908" />
    <!-- Line -->
    <polyline
       points="2220,3133 2220,3165 "
       style="stroke:#000000;stroke-width:8;stroke-linecap:butt;stroke-linejoin:miter"
       id="polyline3910"
       transform="matrix(1,0,0,2.96875,0,-6231.0937)" />
    <!-- Arrowhead on XXXpoint 2220 3165 - 2220 3055-->
    <polygon
       points="2188,3057 2188,3060 2190,3062 2191,3065 2191,3067 2192,3069 2194,3071 2195,3074 2197,3076 2198,3078 2200,3079 2202,3081 2204,3082 2206,3083 2208,3084 2212,3085 2214,3085 2216,3086 2219,3086 2221,3086 2224,3086 2226,3085 2228,3085 2232,3084 2234,3083 2236,3082 2238,3081 2240,3079 2242,3078 2243,3076 2245,3074 2246,3071 2248,3069 2249,3067 2249,3065 2250,3062 2251,3060 2251,3057 2251,3055 2188,3055 "
       style="fill:#000000;stroke:#000000;stroke-width:8;stroke-miterlimit:8"
       id="polygon3912"
       transform="translate(-1,15.605858)" />
    <!-- Line -->
    <polyline
       points="1464,3259 1984,3259 2078,3165 2551,3165 2645,3259 3307,3259 "
       style="stroke:#000000;stroke-width:16; stroke-linejoin:round; stroke-linecap:butt; "
       id="polyline3914" />
    <!-- Line -->
    <polyline
       points="2220,3606 2220,4425 "
       style="stroke:#000000;stroke-width:8;stroke-linecap:butt;stroke-linejoin:miter"
       id="polyline3916"
       transform="matrix(1,0,0,1.0769231,0,-340.38462)" />
    <!-- Arrowhead on XXXpoint 2220 3543 - 2220 4503-->
    <polygon
       points="2236,4424 2204,4424 2204,4424 2220,4487 "
       style="fill:#000000;stroke:#000000;stroke-width:8;stroke-miterlimit:8"
       id="polygon3918"
       transform="matrix(1.0193275,0,0,0.83521422,-42.907055,728.70305)" />
    <!-- Arrowhead on XXXpoint 2220 4488 - 2220 3527-->
    <polygon
       points="2188,3529 2188,3532 2190,3534 2191,3538 2191,3540 2192,3542 2194,3544 2195,3546 2197,3548 2198,3550 2200,3551 2202,3553 2204,3554 2206,3555 2208,3556 2212,3558 2214,3558 2216,3559 2219,3559 2221,3559 2224,3559 2226,3558 2228,3558 2232,3556 2234,3555 2236,3554 2238,3553 2240,3551 2242,3550 2243,3548 2245,3546 2246,3544 2248,3542 2249,3540 2249,3538 2250,3534 2251,3532 2251,3529 2251,3527 2188,3527 "
       style="fill:#000000;stroke:#000000;stroke-width:8;stroke-miterlimit:8"
       id="polygon3920"
       transform="translate(-1.2004506,16)" />
    <!-- Line -->
    <polyline
       points="2220,3228 2220,3543 "
       style="stroke:#000000;stroke-width:8;stroke-linecap:butt;stroke-linejoin:miter"
       id="polyline3922"
       transform="matrix(1,0,0,1.2,0,-708.6)" />
    <!-- Arrowhead on XXXpoint 2220 3543 - 2220 3149-->
    <polygon
       points="2188,3151 2188,3154 2190,3156 2191,3160 2191,3162 2192,3164 2194,3166 2195,3168 2197,3170 2198,3172 2200,3173 2202,3175 2204,3176 2206,3177 2208,3179 2212,3180 2214,3180 2216,3181 2219,3181 2221,3181 2224,3181 2226,3180 2228,3180 2232,3179 2234,3177 2236,3176 2238,3175 2240,3173 2242,3172 2243,3170 2245,3168 2246,3166 2248,3164 2249,3162 2249,3160 2250,3156 2251,3154 2251,3151 2251,3149 2188,3149 "
       style="fill:#000000;stroke:#000000;stroke-width:8;stroke-miterlimit:8"
       id="polygon3924"
       transform="translate(0,16)" />
    <!-- Line -->
    <polyline
       points="1464,2976 1984,2976 2078,3070 2551,3070 2645,2976 3307,2976 "
       style="stroke:#000000;stroke-width:16; stroke-linejoin:round; stroke-linecap:butt; "
       id="polyline3926" />
    <!-- Text -->
    <text
       xml:space="preserve"
       x="1511"
       y="4440"
       fill="#000000"
       font-family="Times"
       font-style="normal"
       font-weight="normal"
       font-size="152"
       text-anchor="start"
       id="text3928">2</text>
    <!-- Text -->
    <text
       xml:space="preserve"
       x="1606"
       y="4393"
       fill="#000000"
       font-family="Times"
       font-style="normal"
       font-weight="normal"
       font-size="152"
       text-anchor="start"
       id="text3930">+</text>
    <!-- Text -->
    <text
       xml:space="preserve"
       x="1511"
       y="5149"
       fill="#000000"
       font-family="Times"
       font-style="normal"
       font-weight="normal"
       font-size="152"
       text-anchor="start"
       id="text3932">0</text>
    <!-- Text -->
    <text
       xml:space="preserve"
       x="1606"
       y="5102"
       fill="#000000"
       font-family="Times"
       font-style="normal"
       font-weight="normal"
       font-size="152"
       text-anchor="start"
       id="text3934">+</text>
    <!-- Text -->
    <text
       xml:space="preserve"
       x="1511"
       y="3496"
       fill="#000000"
       font-family="Times"
       font-style="normal"
       font-weight="normal"
       font-size="152"
       text-anchor="start"
       id="text3936">2</text>
    <!-- Text -->
    <text
       xml:space="preserve"
       x="1606"
       y="3448"
       fill="#000000"
       font-family="Times"
       font-style="normal"
       font-weight="normal"
       font-size="152"
       text-anchor="start"
       id="text3938">+</text>
    <!-- Text -->
    <text
       xml:space="preserve"
       x="1511"
       y="3212"
       fill="#000000"
       font-family="Times"
       font-style="normal"
       font-weight="normal"
       font-size="152"
       text-anchor="start"
       id="text3940">0</text>
    <!-- Text -->
    <text
       xml:space="preserve"
       x="1606"
       y="3165"
       fill="#000000"
       font-family="Times"
       font-style="normal"
       font-weight="normal"
       font-size="152"
       text-anchor="start"
       id="text3942">+</text>
    <!-- Text -->
    <text
       xml:space="preserve"
       x="1606"
       y="2881"
       fill="#000000"
       font-family="Times"
       font-style="normal"
       font-weight="normal"
       font-size="152"
       text-anchor="start"
       id="text3944">+</text>
    <!-- Text -->
    <text
       xml:space="preserve"
       x="1511"
       y="2929"
       fill="#000000"
       font-family="Times"
       font-style="normal"
       font-weight="normal"
       font-size="152"
       text-anchor="start"
       id="text3946">4</text>
    <!-- Text -->
    <text
       xml:space="preserve"
       x="2220.8425"
       y="5669"
       font-style="normal"
       font-weight="normal"
       font-size="126"
       id="text3948"
       style="font-size:126px;font-style:normal;font-weight:normal;text-anchor:start;fill:#000000;font-family:Times">34</text>
    <!-- Text -->
    <text
       xml:space="preserve"
       x="2355.6018"
       y="5574"
       font-style="normal"
       font-weight="normal"
       font-size="152"
       id="text3950"
       style="font-size:152px;font-style:normal;font-weight:normal;text-anchor:start;fill:#000000;font-family:Times">Se</text>
    <!-- Text -->
    <text
       xml:space="preserve"
       x="2220.8425"
       y="5480"
       font-style="normal"
       font-weight="normal"
       font-size="126"
       id="text3952"
       style="font-size:126px;font-style:normal;font-weight:normal;text-anchor:start;fill:#000000;font-family:Times">78</text>
    <!-- Text -->
    <text
       xml:space="preserve"
       x="2692"
       y="5149"
       fill="#000000"
       font-family="Times"
       font-style="normal"
       font-weight="normal"
       font-size="152"
       text-anchor="start"
       id="text3954">0</text>
    <!-- Text -->
    <text
       xml:space="preserve"
       x="2692"
       y="4440"
       fill="#000000"
       font-family="Times"
       font-style="normal"
       font-weight="normal"
       font-size="152"
       text-anchor="start"
       id="text3956">0.6138</text>
    <!-- Text -->
    <text
       xml:space="preserve"
       x="2692"
       y="3496"
       fill="#000000"
       font-family="Times"
       font-style="normal"
       font-weight="normal"
       font-size="152"
       text-anchor="start"
       id="text3958">1.3088</text>
    <!-- Text -->
    <text
       xml:space="preserve"
       x="2692"
       y="3212"
       fill="#000000"
       font-family="Times"
       font-style="normal"
       font-weight="normal"
       font-size="152"
       text-anchor="start"
       id="text3960">1.4985</text>
    <!-- Text -->
    <text
       xml:space="preserve"
       x="2692"
       y="2929"
       fill="#000000"
       font-family="Times"
       font-style="normal"
       font-weight="normal"
       font-size="152"
       text-anchor="start"
       id="text3962">1.5024</text>
  </g>
</svg>
