<?xml version="1.0" encoding="UTF-8" standalone="no"?>
<!-- Created with Inkscape (http://www.inkscape.org/) -->

<svg
   xmlns:dc="http://purl.org/dc/elements/1.1/"
   xmlns:cc="http://creativecommons.org/ns#"
   xmlns:rdf="http://www.w3.org/1999/02/22-rdf-syntax-ns#"
   xmlns:svg="http://www.w3.org/2000/svg"
   xmlns="http://www.w3.org/2000/svg"
   xmlns:xlink="http://www.w3.org/1999/xlink"
   xmlns:sodipodi="http://sodipodi.sourceforge.net/DTD/sodipodi-0.dtd"
   xmlns:inkscape="http://www.inkscape.org/namespaces/inkscape"
   width="1052.3622"
   height="744.09448"
   id="svg2"
   version="1.1"
   inkscape:version="0.48.2 r9819"
   sodipodi:docname="basic_electronics.svg">
  <sodipodi:namedview
     id="base"
     pagecolor="#ffffff"
     bordercolor="#666666"
     borderopacity="1.0"
     inkscape:pageopacity="0.0"
     inkscape:pageshadow="2"
     inkscape:zoom="2.2881758"
     inkscape:cx="369.22286"
     inkscape:cy="372.82182"
     inkscape:document-units="px"
     inkscape:current-layer="layer1"
     showgrid="true"
     inkscape:window-width="1436"
     inkscape:window-height="856"
     inkscape:window-x="4"
     inkscape:window-y="0"
     inkscape:window-maximized="1"
     inkscape:snap-global="true"
     inkscape:object-nodes="true"
     inkscape:snap-object-midpoints="true"
     inkscape:snap-midpoints="true"
     inkscape:object-paths="false"
     inkscape:snap-grids="true"
     inkscape:snap-bbox="true"
     inkscape:snap-intersection-paths="true"
     inkscape:snap-center="true"
     inkscape:snap-bbox-midpoints="true"
     inkscape:snap-bbox-edge-midpoints="true">
    <inkscape:grid
       type="xygrid"
       id="grid3931" />
  </sodipodi:namedview>
  <defs
     id="defs4">
    <inkscape:perspective
       sodipodi:type="inkscape:persp3d"
       inkscape:vp_x="0 : 372.04724 : 1"
       inkscape:vp_y="0 : 1000 : 0"
       inkscape:vp_z="1052.3622 : 372.04724 : 1"
       inkscape:persp3d-origin="526.18109 : 248.03149 : 1"
       id="perspective3155" />
    <marker
       inkscape:stockid="DotM"
       orient="auto"
       refY="0.0"
       refX="0.0"
       id="DotM"
       style="overflow:visible">
      <path
         id="path4394"
         d="M -2.5,-1.0 C -2.5,1.7600000 -4.7400000,4.0 -7.5,4.0 C -10.260000,4.0 -12.5,1.7600000 -12.5,-1.0 C -12.5,-3.7600000 -10.260000,-6.0 -7.5,-6.0 C -4.7400000,-6.0 -2.5,-3.7600000 -2.5,-1.0 z "
         style="fill-rule:evenodd;stroke:#000000;stroke-width:1.0pt;marker-start:none;marker-end:none"
         transform="scale(0.4) translate(7.4, 1)" />
    </marker>
    <marker
       inkscape:stockid="DotS"
       orient="auto"
       refY="0.0"
       refX="0.0"
       id="DotS"
       style="overflow:visible">
      <path
         id="path4117"
         d="M -2.5,-1.0 C -2.5,1.7600000 -4.7400000,4.0 -7.5,4.0 C -10.260000,4.0 -12.5,1.7600000 -12.5,-1.0 C -12.5,-3.7600000 -10.260000,-6.0 -7.5,-6.0 C -4.7400000,-6.0 -2.5,-3.7600000 -2.5,-1.0 z "
         style="fill-rule:evenodd;stroke:#000000;stroke-width:1.0pt"
         transform="scale(0.2) translate(7.4, 1)" />
    </marker>
    <inkscape:path-effect
       effect="skeletal"
       id="path-effect3147"
       is_visible="true"
       pattern="M 0,0 0,10 10,5 z"
       copytype="single_stretched"
       prop_scale="1"
       scale_y_rel="false"
       spacing="0"
       normal_offset="0"
       tang_offset="0"
       prop_units="false"
       vertical_pattern="false"
       fuse_tolerance="0" />
  </defs>
  <metadata
     id="metadata7">
    <rdf:RDF>
      <cc:Work
         rdf:about="">
        <dc:format>image/svg+xml</dc:format>
        <dc:type
           rdf:resource="http://purl.org/dc/dcmitype/StillImage" />
        <dc:title />
      </cc:Work>
    </rdf:RDF>
  </metadata>
  <g
     id="layer1"
     inkscape:groupmode="layer"
     inkscape:label="Layer 1"
     transform="translate(0,-308.2677)">
    <text
       xml:space="preserve"
       style="font-size:40px;font-style:normal;font-weight:normal;line-height:125%;letter-spacing:0px;word-spacing:0px;fill:#000000;fill-opacity:1;stroke:none;font-family:Sans"
       id="text3074"
       sodipodi:linespacing="125%"
       transform="translate(-3.230469,-4.9921877)"><textPath
         xlink:href="#path4956"
         id="textPath4959"><tspan
   style="font-size:24px"
   id="tspan3078">buncher signal</tspan></textPath></text>
    <text
       xml:space="preserve"
       style="font-size:24px;font-style:normal;font-variant:normal;font-weight:normal;font-stretch:normal;text-align:start;line-height:125%;letter-spacing:0px;word-spacing:0px;writing-mode:lr-tb;text-anchor:start;fill:#000000;fill-opacity:1;stroke:none;font-family:Sans;-inkscape-font-specification:Sans"
       x="50"
       y="772.36218"
       id="text5800"
       sodipodi:linespacing="125%"><tspan
         sodipodi:role="line"
         id="tspan5802"
         x="50"
         y="772.36218">9.85 MHz</tspan></text>
    <rect
       style="fill:none;stroke:#000000;stroke-width:1.46862614;stroke-miterlimit:4;stroke-opacity:1;stroke-dasharray:none"
       id="rect5794"
       width="200"
       height="110"
       x="40"
       y="742.36218" />
    <g
       id="g5808"
       transform="translate(72,18)">
      <path
         transform="translate(-2,330.2677)"
         d="m 110,444.09448 c 0,5.52285 -4.47715,10 -10,10 -5.522847,0 -10,-4.47715 -10,-10 0,-5.52285 4.477153,-10 10,-10 5.52285,0 10,4.47715 10,10 z"
         sodipodi:ry="10"
         sodipodi:rx="10"
         sodipodi:cy="444.09448"
         sodipodi:cx="100"
         id="path5796"
         style="fill:none;stroke:#000000;stroke-width:1;stroke-miterlimit:4;stroke-opacity:1;stroke-dasharray:none"
         sodipodi:type="arc" />
      <path
         sodipodi:nodetypes="cc"
         inkscape:connector-curvature="0"
         id="path5798"
         d="m 96,772.36218 -4,-4"
         style="fill:none;stroke:#000000;stroke-width:3;stroke-linecap:butt;stroke-linejoin:miter;stroke-miterlimit:4;stroke-opacity:1;stroke-dasharray:none" />
    </g>
    <g
       id="g3919">
      <g
         id="g3903">
        <g
           id="g3838">
          <rect
             style="fill:#c091ff;fill-opacity:1;fill-rule:evenodd;stroke:none"
             id="rect2985"
             width="29.999996"
             height="160.00002"
             x="60"
             y="422.36218" />
          <rect
             style="fill:none;stroke:#000000;stroke-width:1.06890166px;stroke-linecap:butt;stroke-linejoin:miter;stroke-opacity:1"
             id="rect2987"
             width="19.999996"
             height="40.000023"
             x="65"
             y="582.36218" />
          <rect
             style="fill:none;stroke:#000000;stroke-width:1.06890142px;stroke-linecap:butt;stroke-linejoin:miter;stroke-opacity:1"
             id="rect2987-0"
             width="20"
             height="39.999992"
             x="65"
             y="382.36218" />
        </g>
        <path
           style="fill:none;stroke:#000000;stroke-width:1px;stroke-linecap:butt;stroke-linejoin:miter;stroke-opacity:1"
           d="m 75,74.094482 c 0,0 0.644527,-15.717668 6.149828,-20 9.174034,-7.136079 16.864676,-5.005493 24.605742,-1.686562 34.74372,14.896142 69.71086,66.59915 111.1891,72.79395 16.37498,2.44561 32.26346,-9.61695 48.81426,-9.17904 C 291.21966,116.69649 340,134.09448 340,134.09448"
           id="path5790"
           inkscape:connector-curvature="0"
           transform="translate(0,308.2677)"
           sodipodi:nodetypes="csssac" />
        <path
           style="fill:none;stroke:#000000;stroke-width:1;stroke-linecap:butt;stroke-linejoin:miter;stroke-miterlimit:4;stroke-opacity:1;stroke-dasharray:none"
           d="m 75,314.09448 c 0,0 2.220537,22.88726 10,30 7.846987,7.17448 30.09772,9.11867 48.0145,7.93434 48.70296,-3.21934 104.67491,-31.00257 111.9855,-52.93434 10.54093,-31.62278 -19.72136,-70 25,-70 20,0 60,-5 60,-5"
           id="path5792"
           inkscape:connector-curvature="0"
           transform="translate(0,308.2677)"
           sodipodi:nodetypes="cssssc" />
        <text
           xml:space="preserve"
           style="font-size:40px;font-style:normal;font-weight:normal;line-height:125%;letter-spacing:0px;word-spacing:0px;fill:#000000;fill-opacity:1;stroke:none;font-family:Sans"
           id="text5896"
           sodipodi:linespacing="125%"
           transform="translate(0,-2)"><textPath
             xlink:href="#path5790-8"
             id="textPath3900"><tspan
   style="font-size:24px"
   id="tspan5898">top PMT signal</tspan></textPath></text>
        <text
           xml:space="preserve"
           style="font-size:24px;font-style:normal;font-weight:normal;line-height:125%;letter-spacing:0px;word-spacing:0px;fill:#000000;fill-opacity:1;stroke:none;font-family:Sans"
           id="text5903"
           sodipodi:linespacing="125%"
           transform="translate(-2,-4)"><textPath
             xlink:href="#path5792-3"
             id="textPath3861"><tspan
   id="tspan5905">bottom PMT signal</tspan></textPath></text>
        <path
           style="fill:none;stroke:#000000;stroke-width:1;stroke-linecap:butt;stroke-linejoin:miter;stroke-miterlimit:4;stroke-opacity:1;stroke-dasharray:none"
           d="m 85,652.36218 c 7.84699,7.17448 30.09772,9.11867 48.0145,7.93434 48.70296,-3.21934 104.67491,-31.00257 111.9855,-52.93434 10.54093,-31.62278 -19.72136,-70 25,-70 20,0 60,-5 60,-5"
           id="path5792-3"
           inkscape:connector-curvature="0"
           sodipodi:nodetypes="csssc" />
        <path
           style="fill:none;stroke:#000000;stroke-width:1px;stroke-linecap:butt;stroke-linejoin:miter;stroke-opacity:1"
           d="m 105.75557,360.67562 c 34.74372,14.89614 69.71086,66.59915 111.1891,72.79395 16.37498,2.44561 32.26346,-9.61695 48.81426,-9.17904 12.45371,0.32951 29.06642,3.73269 44.24107,8.07165 15.84884,4.53174 30,10 30,10"
           id="path5790-8"
           inkscape:connector-curvature="0"
           sodipodi:nodetypes="csssc" />
      </g>
      <g
         id="g5869">
        <g
           id="g5856">
          <rect
             y="422.36218"
             x="490"
             height="269.99997"
             width="140.00002"
             id="rect3103"
             style="fill:none;stroke:#000000;stroke-width:0.99102622px;stroke-linecap:butt;stroke-linejoin:miter;stroke-opacity:1" />
          <text
             sodipodi:linespacing="125%"
             id="text3873"
             y="460.94254"
             x="519.56055"
             style="font-size:40px;font-style:normal;font-weight:normal;line-height:125%;letter-spacing:0px;word-spacing:0px;fill:#000000;fill-opacity:1;stroke:none;font-family:Sans"
             xml:space="preserve"><tspan
               y="460.94254"
               x="519.56055"
               id="tspan3875"
               sodipodi:role="line">TDC</tspan></text>
          <text
             sodipodi:linespacing="125%"
             id="text3877"
             y="622.36218"
             x="560"
             style="font-size:40px;font-style:normal;font-weight:normal;line-height:125%;letter-spacing:0px;word-spacing:0px;fill:#000000;fill-opacity:1;stroke:none;font-family:Sans"
             xml:space="preserve"><tspan
               style="font-size:24px;font-style:normal;font-variant:normal;font-weight:normal;font-stretch:normal;text-align:center;line-height:125%;writing-mode:lr-tb;text-anchor:middle;font-family:Sans;-inkscape-font-specification:Sans"
               y="622.36218"
               x="560"
               id="tspan3879"
               sodipodi:role="line">common</tspan><tspan
               style="font-size:24px;font-style:normal;font-variant:normal;font-weight:normal;font-stretch:normal;text-align:center;line-height:125%;writing-mode:lr-tb;text-anchor:middle;font-family:Sans;-inkscape-font-specification:Sans"
               id="tspan3881"
               y="652.36218"
               x="560"
               sodipodi:role="line">stop</tspan></text>
          <text
             sodipodi:linespacing="125%"
             id="text3883"
             y="490.54297"
             x="531.6582"
             style="font-size:40px;font-style:normal;font-weight:normal;line-height:125%;letter-spacing:0px;word-spacing:0px;fill:#000000;fill-opacity:1;stroke:none;font-family:Sans"
             xml:space="preserve"><tspan
               style="font-size:24px;font-style:normal;font-variant:normal;font-weight:normal;font-stretch:normal;text-align:start;line-height:125%;writing-mode:lr-tb;text-anchor:start;font-family:Sans;-inkscape-font-specification:Sans"
               y="490.54297"
               x="531.6582"
               id="tspan3885"
               sodipodi:role="line">start</tspan></text>
          <path
             transform="translate(168.55936,135.98132)"
             d="m 402.15805,536.38086 c 0,5.91906 -4.79834,10.71741 -10.71741,10.71741 -5.91906,0 -10.71741,-4.79835 -10.71741,-10.71741 0,-5.91906 4.79835,-10.71741 10.71741,-10.71741 5.91907,0 10.71741,4.79835 10.71741,10.71741 z"
             sodipodi:ry="10.71741"
             sodipodi:rx="10.71741"
             sodipodi:cy="536.38086"
             sodipodi:cx="391.44064"
             id="path3895"
             style="fill:none;stroke:#000000;stroke-opacity:1"
             sodipodi:type="arc" />
          <path
             d="m 402.15805,536.38086 c 0,5.91906 -4.79834,10.71741 -10.71741,10.71741 -5.91906,0 -10.71741,-4.79835 -10.71741,-10.71741 0,-5.91906 4.79835,-10.71741 10.71741,-10.71741 5.91907,0 10.71741,4.79835 10.71741,10.71741 z"
             sodipodi:ry="10.71741"
             sodipodi:rx="10.71741"
             sodipodi:cy="536.38086"
             sodipodi:cx="391.44064"
             id="path3895-0"
             style="fill:none;stroke:#000000;stroke-opacity:1"
             sodipodi:type="arc"
             transform="translate(168.55936,5.981323)" />
          <path
             d="m 402.15805,536.38086 c 0,5.91906 -4.79834,10.71741 -10.71741,10.71741 -5.91906,0 -10.71741,-4.79835 -10.71741,-10.71741 0,-5.91906 4.79835,-10.71741 10.71741,-10.71741 5.91907,0 10.71741,4.79835 10.71741,10.71741 z"
             sodipodi:ry="10.71741"
             sodipodi:rx="10.71741"
             sodipodi:cy="536.38086"
             sodipodi:cx="391.44064"
             id="path3895-05"
             style="fill:none;stroke:#000000;stroke-opacity:1"
             sodipodi:type="arc"
             transform="translate(168.55936,-24.018677)" />
          <path
             style="fill:none;stroke:#000000;stroke-width:2;stroke-linecap:butt;stroke-linejoin:miter;stroke-miterlimit:4;stroke-opacity:1;stroke-dasharray:none;marker-end:url(#DotS)"
             d="m 240,484.09448 320,0 0,-120"
             id="path3049"
             inkscape:connector-curvature="0"
             transform="translate(0,308.2677)" />
        </g>
        <g
           id="g3081"
           transform="translate(80,20)">
          <rect
             y="402.36218"
             x="650"
             height="269.99997"
             width="140.00002"
             id="rect3103-1"
             style="fill:none;stroke:#000000;stroke-width:0.99102628px;stroke-linecap:butt;stroke-linejoin:miter;stroke-opacity:1" />
          <text
             sodipodi:linespacing="125%"
             id="text3046"
             y="443.63953"
             x="677.90039"
             style="font-size:40px;font-style:normal;font-weight:normal;line-height:125%;letter-spacing:0px;word-spacing:0px;fill:#000000;fill-opacity:1;stroke:none;font-family:Sans"
             xml:space="preserve"><tspan
               y="443.63953"
               x="677.90039"
               id="tspan3048"
               sodipodi:role="line">QDC</tspan></text>
          <path
             d="m 402.15805,536.38086 c 0,5.91906 -4.79834,10.71741 -10.71741,10.71741 -5.91906,0 -10.71741,-4.79835 -10.71741,-10.71741 0,-5.91906 4.79835,-10.71741 10.71741,-10.71741 5.91907,0 10.71741,4.79835 10.71741,10.71741 z"
             sodipodi:ry="10.71741"
             sodipodi:rx="10.71741"
             sodipodi:cy="536.38086"
             sodipodi:cx="391.44064"
             id="path3895-05-3"
             style="fill:none;stroke:#000000;stroke-opacity:1"
             sodipodi:type="arc"
             transform="translate(328.55936,-44.018677)" />
          <path
             d="m 402.15805,536.38086 c 0,5.91906 -4.79834,10.71741 -10.71741,10.71741 -5.91906,0 -10.71741,-4.79835 -10.71741,-10.71741 0,-5.91906 4.79835,-10.71741 10.71741,-10.71741 5.91907,0 10.71741,4.79835 10.71741,10.71741 z"
             sodipodi:ry="10.71741"
             sodipodi:rx="10.71741"
             sodipodi:cy="536.38086"
             sodipodi:cx="391.44064"
             id="path3895-05-9"
             style="fill:none;stroke:#000000;stroke-opacity:1"
             sodipodi:type="arc"
             transform="translate(328.55936,-14.018677)" />
          <text
             xml:space="preserve"
             style="font-size:20px;font-style:normal;font-weight:normal;line-height:125%;letter-spacing:0px;word-spacing:0px;fill:#000000;fill-opacity:1;stroke:none;font-family:Sans"
             x="327.77203"
             y="122.63874"
             id="text3151"
             sodipodi:linespacing="125%"
             transform="translate(-80,288.2677)"><tspan
               sodipodi:role="line"
               id="tspan3153"
               x="327.77203"
               y="122.63874" /></text>
          <use
             x="0"
             y="0"
             xlink:href="#path3895-05-9"
             id="use3163"
             transform="translate(-0.7174134,130)"
             width="1052.3622"
             height="744.09448" />
          <text
             xml:space="preserve"
             style="font-size:20px;font-style:normal;font-weight:normal;line-height:125%;letter-spacing:0px;word-spacing:0px;fill:#000000;fill-opacity:1;stroke:none;font-family:Sans"
             x="771.79382"
             y="326.29443"
             id="text3165"
             sodipodi:linespacing="125%"
             transform="translate(-80,288.2677)"><tspan
               sodipodi:role="line"
               id="tspan3167"
               x="771.79382"
               y="326.29443"
               style="font-size:24px">gate</tspan></text>
        </g>
        <g
           id="g5757"
           transform="translate(80,20)">
          <path
             sodipodi:nodetypes="cc"
             inkscape:connector-curvature="0"
             id="path3919"
             d="m 480,522.36218 -205,0"
             style="fill:none;stroke:#000000;stroke-width:2;stroke-linecap:butt;stroke-linejoin:miter;stroke-miterlimit:4;stroke-opacity:1;stroke-dasharray:none;marker-start:url(#DotS)" />
          <path
             sodipodi:nodetypes="cccc"
             inkscape:connector-curvature="0"
             id="path3923"
             d="m 480,492.36218 -100,0 0,-70 -105,0"
             style="fill:none;stroke:#000000;stroke-width:2;stroke-linecap:butt;stroke-linejoin:miter;stroke-miterlimit:4;stroke-opacity:1;stroke-dasharray:none;marker-start:url(#DotS)" />
          <path
             sodipodi:nodetypes="ccccczccsccc"
             inkscape:connector-curvature="0"
             id="path3927"
             transform="translate(0,308.2677)"
             d="m 720,184.09375 -100,0 0,-150 -270,-1.249268 0,56.25 c 0,0 -5,0 -5,5 0,5 5,5 5,5 l 0,9.999998 c -2.76142,0 -5,2.23785 -5,4.99927 0,2.76143 2.23858,5 5,5 l 0,75.00073 -75,0"
             style="fill:none;stroke:#000000;stroke-width:2;stroke-linecap:butt;stroke-linejoin:miter;stroke-miterlimit:4;stroke-opacity:1;stroke-dasharray:none;marker-start:url(#DotS);marker-mid:none;marker-end:none" />
          <path
             sodipodi:nodetypes="cccccc"
             transform="translate(0,308.2677)"
             inkscape:connector-curvature="0"
             id="path3929"
             d="m 275,94.094482 105,0 0,-30 210,0 0,149.999998 130,0"
             style="fill:none;stroke:#000000;stroke-width:2;stroke-linecap:butt;stroke-linejoin:miter;stroke-miterlimit:4;stroke-opacity:1;stroke-dasharray:none;marker-start:none;marker-end:url(#DotS)" />
        </g>
        <use
           x="0"
           y="0"
           xlink:href="#path3015-2"
           id="use3151"
           transform="translate(0,99.999997)"
           width="1052.3622"
           height="744.09448"
           style="stroke-width:2;stroke-miterlimit:4;stroke-dasharray:none" />
        <path
           id="path3015-2"
           d="m 315.32817,392.32659 0,80.07119 69.34366,-40.03559 z"
           style="fill:#ffffff;stroke:#000000;stroke-width:2;stroke-miterlimit:4;stroke-dasharray:none"
           inkscape:label="Triangle"
           inkscape:connector-curvature="0"
           sodipodi:nodetypes="cccc" />
        <text
           xml:space="preserve"
           style="font-size:20px;font-style:normal;font-weight:normal;line-height:125%;letter-spacing:0px;word-spacing:0px;fill:#000000;fill-opacity:1;stroke:none;font-family:Sans"
           x="321.72852"
           y="439.64246"
           id="text3157"
           sodipodi:linespacing="125%"><tspan
             sodipodi:role="line"
             id="tspan3159"
             x="321.72852"
             y="439.64246">x10</tspan></text>
        <use
           x="0"
           y="0"
           xlink:href="#text3157"
           id="use3161"
           transform="translate(0,100)"
           width="1052.3622"
           height="744.09448" />
        <path
           style="fill:none;stroke:#000000;stroke-width:2;stroke-linecap:butt;stroke-linejoin:miter;stroke-miterlimit:4;stroke-opacity:1;stroke-dasharray:none;marker-start:url(#DotS)"
           d="m 430,234.09448 0,245.16021 c 0,0 5,-0.16021 5,4.83979 0,5 -5,5 -5,5 l 0,165 90,0"
           id="path3171"
           inkscape:connector-curvature="0"
           transform="translate(0,308.2677)"
           sodipodi:nodetypes="cczccc" />
        <path
           style="fill:none;stroke:#000000;stroke-width:2;stroke-linecap:butt;stroke-linejoin:miter;stroke-miterlimit:4;stroke-opacity:1;stroke-dasharray:none;stroke-dashoffset:0;marker-start:url(#DotS)"
           d="m 460,204.09448 0,25 c 0,0 5,0 5,5 0,5 -5,5 -5,5 l 0,240 c 0,0 5,0 5,5 0,5 -5,5 -5,5 l 0,135 40,0 20,0 10,0"
           id="path3173"
           inkscape:connector-curvature="0"
           transform="translate(0,308.2677)"
           sodipodi:nodetypes="cczcczccccc" />
        <path
           style="fill:none;stroke:#000000;stroke-width:2;stroke-linecap:butt;stroke-linejoin:miter;stroke-opacity:1;stroke-miterlimit:4;stroke-dasharray:none;marker-end:url(#DotS)"
           d="m 559.99914,947.36304 239.50172,0 0,-274.68687"
           id="path3175"
           inkscape:connector-curvature="0"
           sodipodi:nodetypes="ccc" />
        <rect
           style="fill:#ffffff;fill-opacity:1;stroke:#000000;stroke-width:2.12132025;stroke-linejoin:round;stroke-miterlimit:4;stroke-opacity:0.86666667;stroke-dasharray:none;stroke-dashoffset:0"
           id="rect3169"
           width="140"
           height="90"
           x="490"
           y="902.36218" />
        <text
           xml:space="preserve"
           style="font-size:20px;font-style:normal;font-weight:normal;line-height:125%;letter-spacing:0px;word-spacing:0px;fill:#000000;fill-opacity:1;stroke:none;font-family:Sans"
           x="638.13611"
           y="942.24585"
           id="text3183"
           sodipodi:linespacing="125%"><tspan
             sodipodi:role="line"
             id="tspan3185"
             x="638.13611"
             y="942.24585"
             style="font-size:24px">event signal</tspan></text>
        <text
           xml:space="preserve"
           style="font-size:20px;font-style:normal;font-weight:normal;line-height:125%;letter-spacing:0px;word-spacing:0px;fill:#000000;fill-opacity:1;stroke:none;font-family:Sans"
           x="530.59082"
           y="940.07214"
           id="text3177"
           sodipodi:linespacing="125%"><tspan
             sodipodi:role="line"
             id="tspan3179"
             x="530.59082"
             y="940.07214">Event</tspan><tspan
             sodipodi:role="line"
             x="530.59082"
             y="965.07214"
             id="tspan3181">Logic</tspan></text>
      </g>
    </g>
    <path
       style="fill:none;stroke:#000000;stroke-width:2;stroke-linecap:butt;stroke-linejoin:miter;stroke-miterlimit:4;stroke-opacity:1;stroke-dasharray:none"
       d="m 250,792.36218 220,0"
       id="path4956"
       inkscape:connector-curvature="0" />
  </g>
</svg>
