<?xml version="1.0" encoding="UTF-8" standalone="no"?>
<!-- Created with Inkscape (http://www.inkscape.org/) -->

<svg
   xmlns:dc="http://purl.org/dc/elements/1.1/"
   xmlns:cc="http://creativecommons.org/ns#"
   xmlns:rdf="http://www.w3.org/1999/02/22-rdf-syntax-ns#"
   xmlns:svg="http://www.w3.org/2000/svg"
   xmlns="http://www.w3.org/2000/svg"
   xmlns:xlink="http://www.w3.org/1999/xlink"
   xmlns:sodipodi="http://sodipodi.sourceforge.net/DTD/sodipodi-0.dtd"
   xmlns:inkscape="http://www.inkscape.org/namespaces/inkscape"
   width="719.75"
   height="650.64697"
   id="svg2"
   version="1.1"
   inkscape:version="0.48.2 r9819"
   sodipodi:docname="beamBunching.svg">
  <defs
     id="defs4">
    <marker
       inkscape:stockid="Arrow1Lend"
       orient="auto"
       refY="0"
       refX="0"
       id="Arrow1Lend"
       style="overflow:visible">
      <path
         id="path4324"
         d="M 0,0 5,-5 -12.5,0 5,5 0,0 z"
         style="fill-rule:evenodd;stroke:#000000;stroke-width:1pt;marker-start:none"
         transform="matrix(-0.8,0,0,-0.8,-10,0)"
         inkscape:connector-curvature="0" />
    </marker>
    <marker
       inkscape:stockid="Arrow1Mend"
       orient="auto"
       refY="0"
       refX="0"
       id="Arrow1Mend"
       style="overflow:visible">
      <path
         id="path4330"
         d="M 0,0 5,-5 -12.5,0 5,5 0,0 z"
         style="fill-rule:evenodd;stroke:#000000;stroke-width:1pt;marker-start:none"
         transform="matrix(-0.4,0,0,-0.4,-4,0)"
         inkscape:connector-curvature="0" />
    </marker>
    <marker
       inkscape:stockid="Arrow2Mstart"
       orient="auto"
       refY="0"
       refX="0"
       id="Arrow2Mstart"
       style="overflow:visible">
      <path
         id="path4041"
         style="font-size:12px;fill-rule:evenodd;stroke-width:0.625;stroke-linejoin:round"
         d="M 8.7185878,4.0337352 -2.2072895,0.01601326 8.7185884,-4.0017078 c -1.7454984,2.3720609 -1.7354408,5.6174519 -6e-7,8.035443 z"
         transform="scale(0.6,0.6)"
         inkscape:connector-curvature="0" />
    </marker>
    <marker
       inkscape:stockid="Arrow2Sstart"
       orient="auto"
       refY="0"
       refX="0"
       id="Arrow2Sstart"
       style="overflow:visible">
      <path
         id="path4047"
         style="font-size:12px;fill-rule:evenodd;stroke-width:0.625;stroke-linejoin:round"
         d="M 8.7185878,4.0337352 -2.2072895,0.01601326 8.7185884,-4.0017078 c -1.7454984,2.3720609 -1.7354408,5.6174519 -6e-7,8.035443 z"
         transform="matrix(0.3,0,0,0.3,-0.69,0)"
         inkscape:connector-curvature="0" />
    </marker>
    <marker
       inkscape:stockid="Arrow1Mstart"
       orient="auto"
       refY="0"
       refX="0"
       id="Arrow1Mstart"
       style="overflow:visible">
      <path
         id="path4023"
         d="M 0,0 5,-5 -12.5,0 5,5 0,0 z"
         style="fill-rule:evenodd;stroke:#000000;stroke-width:1pt;marker-start:none"
         transform="matrix(0.4,0,0,0.4,4,0)"
         inkscape:connector-curvature="0" />
    </marker>
    <marker
       inkscape:stockid="Arrow1Sstart"
       orient="auto"
       refY="0"
       refX="0"
       id="Arrow1Sstart"
       style="overflow:visible">
      <path
         id="path4029"
         d="M 0,0 5,-5 -12.5,0 5,5 0,0 z"
         style="fill-rule:evenodd;stroke:#000000;stroke-width:1pt;marker-start:none"
         transform="matrix(0.2,0,0,0.2,1.2,0)"
         inkscape:connector-curvature="0" />
    </marker>
    <marker
       inkscape:stockid="Arrow1Lstart"
       orient="auto"
       refY="0"
       refX="0"
       id="Arrow1Lstart"
       style="overflow:visible">
      <path
         id="path4017"
         d="M 0,0 5,-5 -12.5,0 5,5 0,0 z"
         style="fill-rule:evenodd;stroke:#000000;stroke-width:1pt;marker-start:none"
         transform="matrix(0.8,0,0,0.8,10,0)"
         inkscape:connector-curvature="0" />
    </marker>
  </defs>
  <sodipodi:namedview
     id="base"
     pagecolor="#ffffff"
     bordercolor="#666666"
     borderopacity="1.0"
     inkscape:pageopacity="0.0"
     inkscape:pageshadow="2"
     inkscape:zoom="0.95443463"
     inkscape:cx="359.875"
     inkscape:cy="325.32349"
     inkscape:document-units="px"
     inkscape:current-layer="layer1"
     showgrid="false"
     inkscape:window-width="1404"
     inkscape:window-height="839"
     inkscape:window-x="5"
     inkscape:window-y="3"
     inkscape:window-maximized="0"
     inkscape:snap-grids="true"
     inkscape:snap-center="true"
     inkscape:object-paths="true"
     fit-margin-top="10"
     fit-margin-left="10"
     fit-margin-right="10"
     fit-margin-bottom="10">
    <inkscape:grid
       type="xygrid"
       id="grid2985"
       empspacing="5"
       visible="true"
       enabled="true"
       snapvisiblegridlinesonly="true"
       dotted="true"
       spacingx="0.6px"
       spacingy="0.6px" />
  </sodipodi:namedview>
  <metadata
     id="metadata7">
    <rdf:RDF>
      <cc:Work
         rdf:about="">
        <dc:format>image/svg+xml</dc:format>
        <dc:type
           rdf:resource="http://purl.org/dc/dcmitype/StillImage" />
        <dc:title />
      </cc:Work>
    </rdf:RDF>
  </metadata>
  <g
     inkscape:label="Layer 1"
     inkscape:groupmode="layer"
     id="layer1"
     transform="translate(-12.125,-32.78231)">
    <path
       style="fill:none;stroke:#000000;stroke-width:1.5;stroke-linecap:butt;stroke-linejoin:miter;stroke-miterlimit:4;stroke-opacity:1;stroke-dasharray:none;marker-end:url(#Arrow1Mend)"
       d="m 624,44.362183 1.72518,627.192077"
       id="path2987"
       inkscape:connector-curvature="0"
       sodipodi:nodetypes="cc" />
    <path
       style="fill:none;stroke:#000000;stroke-width:1.5;stroke-linecap:butt;stroke-linejoin:miter;stroke-miterlimit:4;stroke-opacity:1;stroke-dasharray:none;marker-end:url(#Arrow1Mend)"
       d="m 528,68.362183 192,0"
       id="path2989"
       inkscape:connector-curvature="0" />
    <path
       sodipodi:type="arc"
       style="fill:#ff0000;stroke:#ff0000;stroke-width:3.75;stroke-linejoin:round;stroke-miterlimit:4;stroke-opacity:0.86666667;stroke-dasharray:none;stroke-dashoffset:0"
       id="path2993"
       sodipodi:cx="162"
       sodipodi:cy="86.362183"
       sodipodi:rx="6"
       sodipodi:ry="6"
       d="m 168,86.362183 c 0,3.313708 -2.68629,6 -6,6 -3.31371,0 -6,-2.686292 -6,-6 0,-3.313709 2.68629,-6 6,-6 3.31371,0 6,2.686291 6,6 z"
       transform="translate(-132,3.0000001)"
       inkscape:tile-cx="114"
       inkscape:tile-cy="92.362183"
       inkscape:tile-w="12"
       inkscape:tile-h="12"
       inkscape:tile-x0="108"
       inkscape:tile-y0="86.362183" />
    <use
       x="0"
       y="0"
       inkscape:tiled-clone-of="#path2993"
       xlink:href="#path2993"
       transform="translate(30,2.5237034e-8)"
       id="use2997"
       width="744.09448"
       height="1052.3622" />
    <use
       x="0"
       y="0"
       inkscape:tiled-clone-of="#path2993"
       xlink:href="#path2993"
       transform="translate(60,2.5237034e-8)"
       id="use2999"
       width="744.09448"
       height="1052.3622" />
    <use
       x="0"
       y="0"
       inkscape:tiled-clone-of="#path2993"
       xlink:href="#path2993"
       transform="translate(90,2.5237034e-8)"
       id="use3001"
       width="744.09448"
       height="1052.3622" />
    <use
       x="0"
       y="0"
       inkscape:tiled-clone-of="#path2993"
       xlink:href="#path2993"
       transform="translate(120,2.5237034e-8)"
       id="use3003"
       width="744.09448"
       height="1052.3622" />
    <use
       x="0"
       y="0"
       inkscape:tiled-clone-of="#path2993"
       xlink:href="#path2993"
       transform="translate(150,2.5237034e-8)"
       id="use3005"
       width="744.09448"
       height="1052.3622" />
    <use
       x="0"
       y="0"
       inkscape:tiled-clone-of="#path2993"
       xlink:href="#path2993"
       transform="translate(180,2.5237034e-8)"
       id="use3007"
       width="744.09448"
       height="1052.3622" />
    <use
       x="0"
       y="0"
       inkscape:tiled-clone-of="#path2993"
       xlink:href="#path2993"
       transform="translate(210,2.5237034e-8)"
       id="use3009"
       width="744.09448"
       height="1052.3622" />
    <use
       x="0"
       y="0"
       inkscape:tiled-clone-of="#path2993"
       xlink:href="#path2993"
       transform="translate(240,2.5237034e-8)"
       id="use3011"
       width="744.09448"
       height="1052.3622" />
    <use
       x="0"
       y="0"
       inkscape:tiled-clone-of="#path2993"
       xlink:href="#path2993"
       transform="translate(270,2.5237034e-8)"
       id="use3013"
       width="744.09448"
       height="1052.3622" />
    <g
       id="g3019"
       inkscape:tile-cx="414"
       inkscape:tile-cy="95.362183"
       inkscape:tile-w="36"
       inkscape:tile-h="54"
       inkscape:tile-x0="396"
       inkscape:tile-y0="68.362183"
       transform="matrix(1,0,0,0.77777778,-84,15.191596)">
      <rect
         y="68.362183"
         x="396"
         height="54"
         width="6"
         id="rect3015"
         style="fill:#b3b3b3;fill-opacity:1;stroke:#999999;stroke-width:3.75;stroke-linejoin:round;stroke-miterlimit:4;stroke-opacity:0.86666667;stroke-dasharray:none;stroke-dashoffset:0" />
      <use
         height="1052.3622"
         width="744.09448"
         transform="translate(30,0)"
         id="use3017"
         xlink:href="#rect3015"
         y="0"
         x="0" />
    </g>
    <use
       x="0"
       y="0"
       inkscape:tiled-clone-of="#g3019"
       xlink:href="#g3019"
       transform="translate(0,60)"
       id="use3025"
       width="744.09448"
       height="1052.3622" />
    <use
       x="0"
       y="0"
       inkscape:tiled-clone-of="#g3019"
       xlink:href="#g3019"
       transform="translate(0,120)"
       id="use3029"
       width="744.09448"
       height="1052.3622" />
    <use
       x="0"
       y="0"
       inkscape:tiled-clone-of="#g3019"
       xlink:href="#g3019"
       transform="translate(0,180)"
       id="use3031"
       width="744.09448"
       height="1052.3622" />
    <use
       x="0"
       y="0"
       inkscape:tiled-clone-of="#g3019"
       xlink:href="#g3019"
       transform="translate(0,240)"
       id="use3033"
       width="744.09448"
       height="1052.3622" />
    <use
       x="0"
       y="0"
       inkscape:tiled-clone-of="#g3019"
       xlink:href="#g3019"
       transform="translate(0,300)"
       id="use3035"
       width="744.09448"
       height="1052.3622" />
    <use
       x="0"
       y="0"
       inkscape:tiled-clone-of="#g3019"
       xlink:href="#g3019"
       transform="translate(0,360)"
       id="use3037"
       width="744.09448"
       height="1052.3622" />
    <use
       x="0"
       y="0"
       inkscape:tiled-clone-of="#g3019"
       xlink:href="#g3019"
       transform="translate(0,420)"
       id="use3039"
       width="744.09448"
       height="1052.3622" />
    <use
       x="0"
       y="0"
       inkscape:tiled-clone-of="#use2995"
       xlink:href="#use2995"
       id="use3062"
       transform="translate(-30,3)"
       width="744.09448"
       height="1052.3622" />
    <use
       x="0"
       y="0"
       inkscape:tiled-clone-of="#use2995"
       xlink:href="#use2995"
       transform="translate(-210,63)"
       id="use3064"
       width="744.09448"
       height="1052.3622" />
    <use
       x="0"
       y="0"
       inkscape:tiled-clone-of="#use2995"
       xlink:href="#use2995"
       transform="translate(-180,123)"
       id="use3066"
       width="744.09448"
       height="1052.3622" />
    <use
       x="0"
       y="0"
       inkscape:tiled-clone-of="#use2995"
       xlink:href="#use2995"
       transform="translate(-180,183)"
       id="use3070"
       width="744.09448"
       height="1052.3622" />
    <use
       x="0"
       y="0"
       inkscape:tiled-clone-of="#use2995"
       xlink:href="#use2995"
       transform="translate(-210,123)"
       id="use3080"
       width="744.09448"
       height="1052.3622" />
    <use
       x="0"
       y="0"
       inkscape:tiled-clone-of="#use2995"
       xlink:href="#use2995"
       transform="translate(-90,3)"
       id="use3082"
       width="744.09448"
       height="1052.3622" />
    <use
       x="0"
       y="0"
       inkscape:tiled-clone-of="#use2995"
       xlink:href="#use2995"
       transform="translate(-180,63)"
       id="use3084"
       width="744.09448"
       height="1052.3622" />
    <use
       x="0"
       y="0"
       inkscape:tiled-clone-of="#use2995"
       xlink:href="#use2995"
       transform="translate(-150,123)"
       id="use3086"
       width="744.09448"
       height="1052.3622" />
    <use
       x="0"
       y="0"
       inkscape:tiled-clone-of="#use2995"
       xlink:href="#use2995"
       transform="translate(-150,183)"
       id="use3088"
       width="744.09448"
       height="1052.3622" />
    <use
       x="0"
       y="0"
       inkscape:tiled-clone-of="#use2995"
       xlink:href="#use2995"
       transform="translate(-120,243)"
       id="use3090"
       width="744.09448"
       height="1052.3622" />
    <use
       x="0"
       y="0"
       inkscape:tiled-clone-of="#use2995"
       xlink:href="#use2995"
       transform="translate(-90,363)"
       id="use3092"
       width="744.09448"
       height="1052.3622" />
    <use
       x="0"
       y="0"
       inkscape:tiled-clone-of="#use2995"
       xlink:href="#use2995"
       transform="translate(-240,63)"
       id="use3100"
       width="744.09448"
       height="1052.3622" />
    <use
       x="0"
       y="0"
       inkscape:tiled-clone-of="#use2995"
       xlink:href="#use2995"
       transform="translate(-270,3)"
       id="use3102"
       width="744.09448"
       height="1052.3622" />
    <use
       x="0"
       y="0"
       inkscape:tiled-clone-of="#use2995"
       xlink:href="#use2995"
       transform="translate(-150,63)"
       id="use3104"
       width="744.09448"
       height="1052.3622" />
    <use
       x="0"
       y="0"
       inkscape:tiled-clone-of="#use2995"
       xlink:href="#use2995"
       transform="translate(-120,123)"
       id="use3106"
       width="744.09448"
       height="1052.3622" />
    <use
       x="0"
       y="0"
       inkscape:tiled-clone-of="#use2995"
       xlink:href="#use2995"
       transform="translate(-120,183)"
       id="use3108"
       width="744.09448"
       height="1052.3622" />
    <use
       x="0"
       y="0"
       inkscape:tiled-clone-of="#use2995"
       xlink:href="#use2995"
       transform="translate(-90,243)"
       id="use3110"
       width="744.09448"
       height="1052.3622" />
    <use
       x="0"
       y="0"
       inkscape:tiled-clone-of="#use2995"
       xlink:href="#use2995"
       transform="translate(-240,3)"
       id="use3122"
       width="744.09448"
       height="1052.3622" />
    <use
       x="0"
       y="0"
       inkscape:tiled-clone-of="#use2995"
       xlink:href="#use2995"
       transform="translate(-120,63)"
       id="use3124"
       width="744.09448"
       height="1052.3622" />
    <use
       x="0"
       y="0"
       inkscape:tiled-clone-of="#use2995"
       xlink:href="#use2995"
       transform="translate(-90,123)"
       id="use3126"
       width="744.09448"
       height="1052.3622" />
    <use
       x="0"
       y="0"
       inkscape:tiled-clone-of="#use2995"
       xlink:href="#use2995"
       transform="translate(-90,183)"
       id="use3128"
       width="744.09448"
       height="1052.3622" />
    <use
       x="0"
       y="0"
       inkscape:tiled-clone-of="#use2995"
       xlink:href="#use2995"
       transform="translate(-60,243)"
       id="use3130"
       width="744.09448"
       height="1052.3622" />
    <use
       x="0"
       y="0"
       inkscape:tiled-clone-of="#use2995"
       xlink:href="#use2995"
       transform="translate(-150,243)"
       id="use3140"
       width="744.09448"
       height="1052.3622" />
    <use
       x="0"
       y="0"
       inkscape:tiled-clone-of="#use2995"
       xlink:href="#use2995"
       transform="translate(-210,3)"
       id="use3142"
       width="744.09448"
       height="1052.3622" />
    <use
       x="0"
       y="0"
       inkscape:tiled-clone-of="#use2995"
       xlink:href="#use2995"
       transform="translate(-90,63)"
       id="use3144"
       width="744.09448"
       height="1052.3622" />
    <use
       x="0"
       y="0"
       inkscape:tiled-clone-of="#use2995"
       xlink:href="#use2995"
       transform="translate(-60,123)"
       id="use3146"
       width="744.09448"
       height="1052.3622" />
    <use
       x="0"
       y="0"
       inkscape:tiled-clone-of="#use2995"
       xlink:href="#use2995"
       transform="translate(-60,183)"
       id="use3148"
       width="744.09448"
       height="1052.3622" />
    <use
       x="0"
       y="0"
       inkscape:tiled-clone-of="#use2995"
       xlink:href="#use2995"
       transform="translate(-30,243)"
       id="use3150"
       width="744.09448"
       height="1052.3622" />
    <use
       x="0"
       y="0"
       inkscape:tiled-clone-of="#use2995"
       xlink:href="#use2995"
       transform="translate(-30,63)"
       id="use3162"
       width="744.09448"
       height="1052.3622" />
    <use
       x="0"
       y="0"
       inkscape:tiled-clone-of="#use2995"
       xlink:href="#use2995"
       transform="translate(-60,63)"
       id="use3164"
       width="744.09448"
       height="1052.3622" />
    <use
       x="0"
       y="0"
       inkscape:tiled-clone-of="#use2995"
       xlink:href="#use2995"
       transform="translate(-30,123)"
       id="use3166"
       width="744.09448"
       height="1052.3622" />
    <use
       x="0"
       y="0"
       inkscape:tiled-clone-of="#use2995"
       xlink:href="#use2995"
       transform="translate(-30,183)"
       id="use3168"
       width="744.09448"
       height="1052.3622" />
    <use
       x="0"
       y="0"
       inkscape:tiled-clone-of="#use2995"
       xlink:href="#use2995"
       transform="translate(-120,3)"
       id="use3182"
       width="744.09448"
       height="1052.3622" />
    <use
       x="0"
       y="0"
       inkscape:tiled-clone-of="#use2995"
       xlink:href="#use2995"
       transform="translate(-30,303)"
       id="use3194"
       width="744.09448"
       height="1052.3622" />
    <use
       x="0"
       y="0"
       inkscape:tiled-clone-of="#use2995"
       xlink:href="#use2995"
       transform="translate(-30,363)"
       id="use3196"
       width="744.09448"
       height="1052.3622" />
    <use
       x="0"
       y="0"
       inkscape:tiled-clone-of="#use2995"
       xlink:href="#use2995"
       transform="translate(-180,3)"
       id="use3202"
       width="744.09448"
       height="1052.3622" />
    <use
       x="0"
       y="0"
       inkscape:tiled-clone-of="#use2995"
       xlink:href="#use2995"
       transform="translate(-60,303)"
       id="use3212"
       width="744.09448"
       height="1052.3622" />
    <use
       x="0"
       y="0"
       inkscape:tiled-clone-of="#use2995"
       xlink:href="#use2995"
       transform="translate(-60,363)"
       id="use3214"
       width="744.09448"
       height="1052.3622" />
    <use
       x="0"
       y="0"
       inkscape:tiled-clone-of="#use2995"
       xlink:href="#use2995"
       transform="translate(-150,3)"
       id="use3222"
       width="744.09448"
       height="1052.3622" />
    <use
       x="0"
       y="0"
       inkscape:tiled-clone-of="#use2995"
       xlink:href="#use2995"
       transform="translate(-60,3)"
       id="use3224"
       width="744.09448"
       height="1052.3622" />
    <use
       x="0"
       y="0"
       inkscape:tiled-clone-of="#use2995"
       xlink:href="#use2995"
       transform="translate(-90,303)"
       id="use3232"
       width="744.09448"
       height="1052.3622" />
    <use
       x="0"
       y="0"
       inkscape:tiled-clone-of="#use2995"
       xlink:href="#use2995"
       transform="translate(-120,303)"
       id="use3234"
       width="744.09448"
       height="1052.3622" />
    <g
       id="g3492"
       transform="translate(0,3)">
      <use
         height="1052.3622"
         width="744.09448"
         transform="translate(300,57)"
         inkscape:tile-y0="86.362183"
         inkscape:tile-x0="108"
         inkscape:tile-h="12"
         inkscape:tile-w="12"
         inkscape:tile-cy="92.362183"
         inkscape:tile-cx="114"
         id="use2995"
         xlink:href="#path2993"
         inkscape:tiled-clone-of="#path2993"
         y="0"
         x="0" />
      <path
         inkscape:tile-y0="131.36218"
         inkscape:tile-x0="408"
         inkscape:tile-h="0"
         inkscape:tile-w="15"
         inkscape:tile-cy="131.37233"
         inkscape:tile-cx="414.59971"
         sodipodi:nodetypes="cc"
         inkscape:connector-curvature="0"
         id="path3242"
         d="m 323.40029,134.36218 15,0"
         style="fill:none;stroke:#000000;stroke-width:2.11288571;stroke-linecap:butt;stroke-linejoin:miter;stroke-miterlimit:4;stroke-opacity:1;stroke-dasharray:none;marker-start:url(#Arrow2Sstart)" />
    </g>
    <g
       id="g3488"
       transform="translate(0,3)">
      <use
         height="1052.3622"
         width="744.09448"
         id="use3204"
         transform="translate(0,60)"
         xlink:href="#use2995"
         inkscape:tiled-clone-of="#use2995"
         y="0"
         x="0" />
      <path
         inkscape:tile-y0="194.36218"
         inkscape:tile-x0="411"
         inkscape:tile-h="0"
         inkscape:tile-w="9"
         inkscape:tile-cy="194.37258"
         inkscape:tile-cx="414.57748"
         inkscape:connector-curvature="0"
         id="path3244"
         d="m 326.42252,194.36218 9,0"
         style="fill:none;stroke:#000000;stroke-width:2.16506362;stroke-linecap:butt;stroke-linejoin:miter;stroke-miterlimit:4;stroke-opacity:1;stroke-dasharray:none;marker-start:url(#Arrow2Sstart);marker-end:none" />
    </g>
    <g
       id="g3480"
       transform="translate(0,3)">
      <use
         height="1052.3622"
         width="744.09448"
         id="use3186"
         transform="translate(0,120)"
         xlink:href="#use2995"
         inkscape:tiled-clone-of="#use2995"
         y="0"
         x="0" />
      <path
         inkscape:tile-y0="252.86218"
         inkscape:tile-x0="414"
         inkscape:tile-h="3"
         inkscape:tile-w="3"
         inkscape:tile-cy="254.36218"
         inkscape:tile-cx="415.5"
         transform="matrix(0.5,0,0,0.5,196.5,221.68109)"
         d="m 270,65.362183 c 0,1.656854 -1.34315,3 -3,3 -1.65685,0 -3,-1.343146 -3,-3 0,-1.656855 1.34315,-3 3,-3 1.65685,0 3,1.343145 3,3 z"
         sodipodi:ry="3"
         sodipodi:rx="3"
         sodipodi:cy="65.362183"
         sodipodi:cx="267"
         id="path6334"
         style="fill:#000000;fill-opacity:1;stroke:#000000;stroke-width:2.5;stroke-linejoin:round;stroke-miterlimit:4;stroke-opacity:0.86666667;stroke-dasharray:none;stroke-dashoffset:0"
         sodipodi:type="arc" />
    </g>
    <g
       id="g3418"
       transform="translate(0,3)">
      <use
         height="1052.3622"
         width="744.09448"
         id="use3210"
         transform="translate(0,240)"
         xlink:href="#use2995"
         inkscape:tiled-clone-of="#use2995"
         y="0"
         x="0" />
      <path
         inkscape:tile-y0="239.36218"
         inkscape:tile-x0="330"
         inkscape:tile-h="0"
         inkscape:tile-w="15"
         inkscape:tile-cy="239.35203"
         inkscape:tile-cx="338.40029"
         style="fill:none;stroke:#000000;stroke-width:2.11288571;stroke-linecap:butt;stroke-linejoin:miter;stroke-miterlimit:4;stroke-opacity:1;stroke-dasharray:none;marker-start:url(#Arrow2Sstart)"
         d="m 336.59971,374.38273 -15,0"
         id="path3278"
         inkscape:connector-curvature="0"
         sodipodi:nodetypes="cc" />
    </g>
    <g
       id="g3468"
       transform="translate(0,3)">
      <use
         height="1052.3622"
         width="744.09448"
         id="use3208"
         transform="translate(0,180)"
         xlink:href="#use2995"
         inkscape:tiled-clone-of="#use2995"
         y="0"
         x="0" />
      <path
         inkscape:tile-y0="248.36218"
         inkscape:tile-x0="366"
         inkscape:tile-h="0"
         inkscape:tile-w="9"
         inkscape:tile-cy="248.35178"
         inkscape:tile-cx="371.42252"
         style="fill:none;stroke:#000000;stroke-width:2.16506362;stroke-linecap:butt;stroke-linejoin:miter;stroke-miterlimit:4;stroke-opacity:1;stroke-dasharray:none;marker-start:url(#Arrow2Sstart);marker-end:none"
         d="m 333.57748,314.36218 -9,0"
         id="path3280"
         inkscape:connector-curvature="0" />
    </g>
    <g
       id="g3484"
       transform="translate(0,3)">
      <use
         height="1052.3622"
         width="744.09448"
         id="use3184"
         transform="translate(30,60)"
         xlink:href="#use2995"
         inkscape:tiled-clone-of="#use2995"
         y="0"
         x="0" />
      <use
         height="1052.3622"
         width="744.09448"
         transform="translate(29.999997,60)"
         id="use3282"
         xlink:href="#path3242"
         y="0"
         x="0" />
    </g>
    <g
       id="g3472"
       transform="translate(-1.7762707,3)">
      <use
         height="1052.3622"
         width="744.09448"
         id="use3206"
         transform="translate(60,120)"
         xlink:href="#use2995"
         inkscape:tiled-clone-of="#use2995"
         y="0"
         x="0" />
      <use
         height="1052.3622"
         width="744.09448"
         transform="translate(59.999997,119.98985)"
         id="use3284"
         xlink:href="#path3242"
         y="0"
         x="0" />
    </g>
    <g
       id="g3476"
       transform="translate(0,3)">
      <use
         height="1052.3622"
         width="744.09448"
         id="use3226"
         transform="translate(30,120)"
         xlink:href="#use2995"
         inkscape:tiled-clone-of="#use2995"
         y="0"
         x="0" />
      <use
         height="1052.3622"
         width="744.09448"
         transform="translate(29.999999,59.9896)"
         id="use3286"
         xlink:href="#path3244"
         y="0"
         x="0" />
    </g>
    <g
       id="g3390"
       transform="translate(0,9)">
      <use
         height="1052.3622"
         width="744.09448"
         id="use3192"
         transform="translate(0,294)"
         xlink:href="#use2995"
         inkscape:tiled-clone-of="#use2995"
         y="0"
         x="0" />
      <use
         height="1052.3622"
         width="744.09448"
         transform="translate(-3.2896683e-6,294)"
         id="use3288"
         xlink:href="#path3242"
         inkscape:tiled-clone-of="#path3242"
         y="0"
         x="0" />
    </g>
    <g
       id="g3456"
       transform="translate(-3.5522707,3)">
      <use
         height="1052.3622"
         width="744.09448"
         id="use3068"
         transform="translate(90,180)"
         xlink:href="#use2995"
         inkscape:tiled-clone-of="#use2995"
         y="0"
         x="0" />
      <use
         height="1052.3622"
         width="744.09448"
         transform="translate(89.999997,179.97945)"
         id="use3290"
         xlink:href="#path3242"
         inkscape:tiled-clone-of="#path3242"
         y="0"
         x="0" />
    </g>
    <g
       id="g3440"
       transform="translate(-5.3282737,3)">
      <use
         height="1052.3622"
         width="744.09448"
         id="use3120"
         transform="translate(120,240)"
         xlink:href="#use2995"
         inkscape:tiled-clone-of="#use2995"
         y="0"
         x="0" />
      <use
         height="1052.3622"
         width="744.09448"
         transform="translate(120,240.00025)"
         id="use3292"
         xlink:href="#path3242"
         inkscape:tiled-clone-of="#path3242"
         y="0"
         x="0" />
    </g>
    <g
       id="g3362"
       transform="translate(-8.8802737,3)">
      <use
         height="1052.3622"
         width="744.09448"
         id="use3074"
         transform="translate(180,360)"
         xlink:href="#use2995"
         inkscape:tiled-clone-of="#use2995"
         y="0"
         x="0" />
      <use
         height="1052.3622"
         width="744.09448"
         transform="translate(180,360)"
         id="use3302"
         xlink:href="#path3242"
         inkscape:tiled-clone-of="#path3242"
         y="0"
         x="0" />
    </g>
    <g
       id="g3382"
       transform="translate(0,3)">
      <use
         height="1052.3622"
         width="744.09448"
         id="use3176"
         transform="translate(30,360)"
         xlink:href="#use2995"
         inkscape:tiled-clone-of="#use2995"
         y="0"
         x="0" />
      <use
         height="1052.3622"
         width="744.09448"
         transform="translate(29.999997,360)"
         id="use3304"
         xlink:href="#path3242"
         inkscape:tiled-clone-of="#path3242"
         y="0"
         x="0" />
    </g>
    <g
       id="g3410"
       transform="translate(-7.1042737,9)">
      <use
         height="1052.3622"
         width="744.09448"
         id="use3112"
         transform="translate(150,294)"
         xlink:href="#use2995"
         inkscape:tiled-clone-of="#use2995"
         y="0"
         x="0" />
      <use
         height="1052.3622"
         width="744.09448"
         transform="translate(150,294)"
         id="use3306"
         xlink:href="#path3242"
         inkscape:tiled-clone-of="#path3242"
         y="0"
         x="0" />
    </g>
    <g
       id="g3432"
       transform="translate(-1.776,3)">
      <use
         height="1052.3622"
         width="744.09448"
         id="use3230"
         transform="translate(90,240)"
         xlink:href="#use2995"
         inkscape:tiled-clone-of="#use2995"
         y="0"
         x="0" />
      <use
         height="1052.3622"
         width="744.09448"
         transform="translate(89.999999,180)"
         id="use3308"
         xlink:href="#path3244"
         inkscape:tiled-clone-of="#path3244"
         y="0"
         x="0" />
    </g>
    <g
       id="g3460"
       transform="translate(-0.888,3)">
      <use
         height="1052.3622"
         width="744.09448"
         id="use3228"
         transform="translate(60,180)"
         xlink:href="#use2995"
         inkscape:tiled-clone-of="#use2995"
         y="0"
         x="0" />
      <use
         height="1052.3622"
         width="744.09448"
         transform="translate(59.999999,119.9792)"
         id="use3310"
         xlink:href="#path3244"
         inkscape:tiled-clone-of="#path3244"
         y="0"
         x="0" />
    </g>
    <g
       id="g3452"
       transform="translate(-2.664,9)">
      <use
         height="1052.3622"
         width="744.09448"
         id="use3132"
         transform="translate(120,294)"
         xlink:href="#use2995"
         inkscape:tiled-clone-of="#use2995"
         y="0"
         x="0" />
      <use
         height="1052.3622"
         width="744.09448"
         transform="translate(120,234)"
         id="use3312"
         xlink:href="#path3244"
         inkscape:tiled-clone-of="#path3244"
         y="0"
         x="0" />
    </g>
    <g
       id="g3386"
       transform="translate(0,3)">
      <use
         height="1052.3622"
         width="744.09448"
         id="use3094"
         transform="translate(0,360)"
         xlink:href="#use2995"
         inkscape:tiled-clone-of="#use2995"
         y="0"
         x="0" />
      <use
         height="1052.3622"
         width="744.09448"
         transform="translate(-6.2697592e-7,300)"
         id="use3316"
         xlink:href="#path3244"
         inkscape:tiled-clone-of="#path3244"
         y="0"
         x="0" />
    </g>
    <g
       id="g3366"
       transform="translate(-3.552,3)">
      <use
         height="1052.3622"
         width="744.09448"
         id="use3072"
         transform="translate(150,360)"
         xlink:href="#use2995"
         inkscape:tiled-clone-of="#use2995"
         y="0"
         x="0" />
      <use
         height="1052.3622"
         width="744.09448"
         transform="translate(150,300)"
         id="use3318"
         xlink:href="#path3244"
         inkscape:tiled-clone-of="#path3244"
         y="0"
         x="0" />
    </g>
    <g
       id="g3464"
       transform="translate(0,3)">
      <use
         height="1052.3622"
         width="744.09448"
         id="use3188"
         transform="translate(30,180)"
         xlink:href="#use2995"
         inkscape:tiled-clone-of="#use2995"
         y="0"
         x="0" />
      <use
         height="1052.3622"
         width="744.09448"
         transform="translate(30,59.989597)"
         id="use3328"
         xlink:href="#path6334"
         y="0"
         x="0" />
    </g>
    <g
       id="g3370"
       transform="translate(0,3)">
      <use
         height="1052.3622"
         width="744.09448"
         id="use3114"
         transform="translate(120,360)"
         xlink:href="#use2995"
         inkscape:tiled-clone-of="#use2995"
         y="0"
         x="0" />
      <use
         height="1052.3622"
         width="744.09448"
         id="use3334"
         transform="translate(120,240)"
         xlink:href="#path6334"
         inkscape:tiled-clone-of="#path6334"
         y="0"
         x="0" />
    </g>
    <g
       id="g3448"
       transform="translate(0,9)">
      <use
         height="1052.3622"
         width="744.09448"
         id="use3134"
         transform="translate(90,294)"
         xlink:href="#use2995"
         inkscape:tiled-clone-of="#use2995"
         y="0"
         x="0" />
      <use
         height="1052.3622"
         width="744.09448"
         id="use3336"
         transform="translate(90,174.0104)"
         xlink:href="#path6334"
         inkscape:tiled-clone-of="#path6334"
         y="0"
         x="0" />
    </g>
    <g
       id="g3426"
       transform="translate(0,3)">
      <use
         height="1052.3622"
         width="744.09448"
         id="use3170"
         transform="translate(60,240)"
         xlink:href="#use2995"
         inkscape:tiled-clone-of="#use2995"
         y="0"
         x="0" />
      <use
         height="1052.3622"
         width="744.09448"
         id="use3338"
         transform="translate(60,120.0104)"
         xlink:href="#path6334"
         inkscape:tiled-clone-of="#path6334"
         y="0"
         x="0" />
    </g>
    <g
       id="g3374"
       transform="translate(1.776,3)">
      <use
         height="1052.3622"
         width="744.09448"
         id="use3154"
         transform="translate(90,360)"
         xlink:href="#use2995"
         inkscape:tiled-clone-of="#use2995"
         y="0"
         x="0" />
      <use
         height="1052.3622"
         width="744.09448"
         id="use3344"
         transform="translate(90.000001,180)"
         xlink:href="#path3280"
         inkscape:tiled-clone-of="#path3280"
         y="0"
         x="0" />
    </g>
    <g
       id="g3398"
       transform="translate(0.888,9)">
      <use
         height="1052.3622"
         width="744.09448"
         id="use3152"
         transform="translate(60,294)"
         xlink:href="#use2995"
         inkscape:tiled-clone-of="#use2995"
         y="0"
         x="0" />
      <use
         height="1052.3622"
         width="744.09448"
         id="use3346"
         transform="translate(60.000001,114)"
         xlink:href="#path3280"
         inkscape:tiled-clone-of="#path3280"
         y="0"
         x="0" />
    </g>
    <g
       id="g3422"
       transform="translate(0,3)">
      <use
         height="1052.3622"
         width="744.09448"
         id="use3190"
         transform="translate(30,240)"
         xlink:href="#use2995"
         inkscape:tiled-clone-of="#use2995"
         y="0"
         x="0" />
      <use
         height="1052.3622"
         width="744.09448"
         id="use3348"
         transform="translate(30.000001,60.020802)"
         xlink:href="#path3280"
         inkscape:tiled-clone-of="#path3280"
         y="0"
         x="0" />
    </g>
    <g
       id="g3394"
       transform="translate(0,9)">
      <use
         height="1052.3622"
         width="744.09448"
         id="use3172"
         transform="translate(30,294)"
         xlink:href="#use2995"
         inkscape:tiled-clone-of="#use2995"
         y="0"
         x="0" />
      <use
         height="1052.3622"
         width="744.09448"
         id="use3352"
         transform="translate(30.000003,53.979451)"
         xlink:href="#path3278"
         inkscape:tiled-clone-of="#path3278"
         y="0"
         x="0" />
    </g>
    <g
       id="g3378"
       transform="translate(1.7757299,3)">
      <use
         height="1052.3622"
         width="744.09448"
         id="use3174"
         transform="translate(60,360)"
         xlink:href="#use2995"
         inkscape:tiled-clone-of="#use2995"
         y="0"
         x="0" />
      <use
         height="1052.3622"
         width="744.09448"
         id="use3358"
         transform="translate(60.000003,119.97945)"
         xlink:href="#path3278"
         inkscape:tiled-clone-of="#path3278"
         y="0"
         x="0" />
    </g>
    <path
       style="fill:none;stroke:#666666;stroke-width:3;stroke-linecap:butt;stroke-linejoin:miter;stroke-miterlimit:4;stroke-opacity:1;stroke-dasharray:none"
       d="m 684,68.362183 24,35.999997 -168,36 84,132 84,132 -168,36 84,156"
       id="path3360"
       inkscape:connector-curvature="0"
       sodipodi:nodetypes="ccccccc" />
    <path
       sodipodi:type="arc"
       style="fill:#4d4d4d;stroke:#000000;stroke-width:5.11719036;stroke-linejoin:round;stroke-miterlimit:4;stroke-opacity:0.86666667;stroke-dasharray:none;stroke-dashoffset:0"
       id="path4294"
       sodipodi:cx="438"
       sodipodi:cy="86.362183"
       sodipodi:rx="6"
       sodipodi:ry="6"
       d="m 444,86.362183 c 0,3.313708 -2.68629,6 -6,6 -3.31371,0 -6,-2.686292 -6,-6 0,-3.313709 2.68629,-6 6,-6 3.31371,0 6,2.686291 6,6 z"
       transform="matrix(0.5862592,0,0,0.5862592,437.16903,32.731559)"
       inkscape:tile-cx="435.64695"
       inkscape:tile-cy="88.715239"
       inkscape:tile-w="7.0351104"
       inkscape:tile-h="7.0351104"
       inkscape:tile-x0="432.12939"
       inkscape:tile-y0="85.197684" />
    <use
       x="0"
       y="0"
       inkscape:tiled-clone-of="#path4294"
       xlink:href="#path4294"
       id="use4296"
       transform="translate(-148.242,66)"
       width="744.09448"
       height="1052.3622" />
    <use
       x="0"
       y="0"
       inkscape:tiled-clone-of="#path4294"
       xlink:href="#path4294"
       transform="translate(-110.067,126)"
       id="use4298"
       width="744.09448"
       height="1052.3622" />
    <use
       x="0"
       y="0"
       inkscape:tiled-clone-of="#path4294"
       xlink:href="#path4294"
       transform="translate(-71.790004,186)"
       id="use4300"
       width="744.09448"
       height="1052.3622" />
    <use
       x="0"
       y="0"
       inkscape:tiled-clone-of="#path4294"
       xlink:href="#path4294"
       transform="translate(-33.626477,246)"
       id="use4302"
       width="744.09448"
       height="1052.3622" />
    <use
       x="0"
       y="0"
       inkscape:tiled-clone-of="#path4294"
       xlink:href="#path4294"
       transform="translate(4.4619956,306)"
       id="use4304"
       width="744.09448"
       height="1052.3622" />
    <use
       x="0"
       y="0"
       inkscape:tiled-clone-of="#path4294"
       xlink:href="#path4294"
       transform="translate(-149.158,366)"
       id="use4306"
       width="744.09448"
       height="1052.3622" />
    <use
       x="0"
       y="0"
       inkscape:tiled-clone-of="#path4294"
       xlink:href="#path4294"
       transform="translate(-116.795,426)"
       id="use4308"
       width="744.09448"
       height="1052.3622" />
    <text
       xml:space="preserve"
       style="font-size:20px;font-style:normal;font-weight:normal;line-height:125%;letter-spacing:0px;word-spacing:0px;fill:#000000;fill-opacity:1;stroke:none;font-family:Sans"
       x="635.27313"
       y="57.977623"
       id="text4310"
       sodipodi:linespacing="125%"><tspan
         sodipodi:role="line"
         id="tspan4312"
         x="635.27313"
         y="57.977623">voltage</tspan></text>
    <text
       xml:space="preserve"
       style="font-size:20px;font-style:normal;font-weight:normal;line-height:125%;letter-spacing:0px;word-spacing:0px;writing-mode:lr-tb;fill:#000000;fill-opacity:1;stroke:none;font-family:Sans"
       x="606.76385"
       y="-606.15234"
       id="text4314"
       sodipodi:linespacing="125%"
       transform="matrix(0,1,-1,0,0,0)"><tspan
         sodipodi:role="line"
         id="tspan4316"
         x="606.76385"
         y="-606.15234">time</tspan></text>
  </g>
</svg>
