<?xml version="1.0" encoding="UTF-8" standalone="no"?>
<!-- Created with Inkscape (http://www.inkscape.org/) -->

<svg
   xmlns:dc="http://purl.org/dc/elements/1.1/"
   xmlns:cc="http://creativecommons.org/ns#"
   xmlns:rdf="http://www.w3.org/1999/02/22-rdf-syntax-ns#"
   xmlns:svg="http://www.w3.org/2000/svg"
   xmlns="http://www.w3.org/2000/svg"
   xmlns:xlink="http://www.w3.org/1999/xlink"
   xmlns:sodipodi="http://sodipodi.sourceforge.net/DTD/sodipodi-0.dtd"
   xmlns:inkscape="http://www.inkscape.org/namespaces/inkscape"
   width="744.09448819"
   height="1052.3622047"
   id="svg2"
   version="1.1"
   inkscape:version="0.48.2 r9819"
   sodipodi:docname="beamBunching.svg">
  <defs
     id="defs4">
    <marker
       inkscape:stockid="Arrow2Mstart"
       orient="auto"
       refY="0.0"
       refX="0.0"
       id="Arrow2Mstart"
       style="overflow:visible">
      <path
         id="path4041"
         style="font-size:12.0;fill-rule:evenodd;stroke-width:0.62500000;stroke-linejoin:round"
         d="M 8.7185878,4.0337352 L -2.2072895,0.016013256 L 8.7185884,-4.0017078 C 6.9730900,-1.6296469 6.9831476,1.6157441 8.7185878,4.0337352 z "
         transform="scale(0.6) translate(0,0)" />
    </marker>
    <marker
       inkscape:stockid="Arrow2Sstart"
       orient="auto"
       refY="0.0"
       refX="0.0"
       id="Arrow2Sstart"
       style="overflow:visible">
      <path
         id="path4047"
         style="font-size:12.0;fill-rule:evenodd;stroke-width:0.62500000;stroke-linejoin:round"
         d="M 8.7185878,4.0337352 L -2.2072895,0.016013256 L 8.7185884,-4.0017078 C 6.9730900,-1.6296469 6.9831476,1.6157441 8.7185878,4.0337352 z "
         transform="scale(0.3) translate(-2.3,0)" />
    </marker>
    <marker
       inkscape:stockid="Arrow1Mstart"
       orient="auto"
       refY="0.0"
       refX="0.0"
       id="Arrow1Mstart"
       style="overflow:visible">
      <path
         id="path4023"
         d="M 0.0,0.0 L 5.0,-5.0 L -12.5,0.0 L 5.0,5.0 L 0.0,0.0 z "
         style="fill-rule:evenodd;stroke:#000000;stroke-width:1.0pt;marker-start:none"
         transform="scale(0.4) translate(10,0)" />
    </marker>
    <marker
       inkscape:stockid="Arrow1Sstart"
       orient="auto"
       refY="0.0"
       refX="0.0"
       id="Arrow1Sstart"
       style="overflow:visible">
      <path
         id="path4029"
         d="M 0.0,0.0 L 5.0,-5.0 L -12.5,0.0 L 5.0,5.0 L 0.0,0.0 z "
         style="fill-rule:evenodd;stroke:#000000;stroke-width:1.0pt;marker-start:none"
         transform="scale(0.2) translate(6,0)" />
    </marker>
    <marker
       inkscape:stockid="Arrow1Lstart"
       orient="auto"
       refY="0.0"
       refX="0.0"
       id="Arrow1Lstart"
       style="overflow:visible">
      <path
         id="path4017"
         d="M 0.0,0.0 L 5.0,-5.0 L -12.5,0.0 L 5.0,5.0 L 0.0,0.0 z "
         style="fill-rule:evenodd;stroke:#000000;stroke-width:1.0pt;marker-start:none"
         transform="scale(0.8) translate(12.5,0)" />
    </marker>
  </defs>
  <sodipodi:namedview
     id="base"
     pagecolor="#ffffff"
     bordercolor="#666666"
     borderopacity="1.0"
     inkscape:pageopacity="0.0"
     inkscape:pageshadow="2"
     inkscape:zoom="3.2789862"
     inkscape:cx="331.78831"
     inkscape:cy="1014.1368"
     inkscape:document-units="px"
     inkscape:current-layer="layer1"
     showgrid="true"
     inkscape:window-width="1047"
     inkscape:window-height="828"
     inkscape:window-x="24"
     inkscape:window-y="20"
     inkscape:window-maximized="0">
    <inkscape:grid
       type="xygrid"
       id="grid2985"
       empspacing="5"
       visible="true"
       enabled="true"
       snapvisiblegridlinesonly="true"
       dotted="true"
       spacingx="0.6px"
       spacingy="0.6px" />
  </sodipodi:namedview>
  <metadata
     id="metadata7">
    <rdf:RDF>
      <cc:Work
         rdf:about="">
        <dc:format>image/svg+xml</dc:format>
        <dc:type
           rdf:resource="http://purl.org/dc/dcmitype/StillImage" />
        <dc:title></dc:title>
      </cc:Work>
    </rdf:RDF>
  </metadata>
  <g
     inkscape:label="Layer 1"
     inkscape:groupmode="layer"
     id="layer1">
    <path
       style="fill:none;stroke:#000000;stroke-width:1px;stroke-linecap:butt;stroke-linejoin:miter;stroke-opacity:1"
       d="m 624,44.362183 0,935.999997"
       id="path2987"
       inkscape:connector-curvature="0" />
    <path
       style="fill:none;stroke:#000000;stroke-width:1px;stroke-linecap:butt;stroke-linejoin:miter;stroke-opacity:1"
       d="m 528,68.362183 192,0"
       id="path2989"
       inkscape:connector-curvature="0" />
    <path
       sodipodi:type="arc"
       style="fill:#ff0000;stroke:#ff0000;stroke-width:3.75;stroke-linejoin:round;stroke-miterlimit:4;stroke-opacity:0.86666667;stroke-dasharray:none;stroke-dashoffset:0"
       id="path2993"
       sodipodi:cx="162"
       sodipodi:cy="86.362183"
       sodipodi:rx="6"
       sodipodi:ry="6"
       d="m 168,86.362183 a 6,6 0 1 1 -12,0 6,6 0 1 1 12,0 z"
       transform="translate(-48,6)"
       inkscape:tile-cx="114"
       inkscape:tile-cy="92.362183"
       inkscape:tile-w="12"
       inkscape:tile-h="12"
       inkscape:tile-x0="108"
       inkscape:tile-y0="86.362183" />
    <use
       x="0"
       y="0"
       inkscape:tiled-clone-of="#path2993"
       xlink:href="#path2993"
       id="use2995"
       inkscape:tile-cx="114"
       inkscape:tile-cy="92.362183"
       inkscape:tile-w="12"
       inkscape:tile-h="12"
       inkscape:tile-x0="108"
       inkscape:tile-y0="86.362183"
       transform="translate(300,54)"
       width="744.09448"
       height="1052.3622" />
    <use
       x="0"
       y="0"
       inkscape:tiled-clone-of="#path2993"
       xlink:href="#path2993"
       transform="translate(30,0)"
       id="use2997"
       width="744.09448"
       height="1052.3622" />
    <use
       x="0"
       y="0"
       inkscape:tiled-clone-of="#path2993"
       xlink:href="#path2993"
       transform="translate(60,0)"
       id="use2999"
       width="744.09448"
       height="1052.3622" />
    <use
       x="0"
       y="0"
       inkscape:tiled-clone-of="#path2993"
       xlink:href="#path2993"
       transform="translate(90,0)"
       id="use3001"
       width="744.09448"
       height="1052.3622" />
    <use
       x="0"
       y="0"
       inkscape:tiled-clone-of="#path2993"
       xlink:href="#path2993"
       transform="translate(120,0)"
       id="use3003"
       width="744.09448"
       height="1052.3622" />
    <use
       x="0"
       y="0"
       inkscape:tiled-clone-of="#path2993"
       xlink:href="#path2993"
       transform="translate(150,0)"
       id="use3005"
       width="744.09448"
       height="1052.3622" />
    <use
       x="0"
       y="0"
       inkscape:tiled-clone-of="#path2993"
       xlink:href="#path2993"
       transform="translate(180,0)"
       id="use3007"
       width="744.09448"
       height="1052.3622" />
    <use
       x="0"
       y="0"
       inkscape:tiled-clone-of="#path2993"
       xlink:href="#path2993"
       transform="translate(210,0)"
       id="use3009"
       width="744.09448"
       height="1052.3622" />
    <use
       x="0"
       y="0"
       inkscape:tiled-clone-of="#path2993"
       xlink:href="#path2993"
       transform="translate(240,0)"
       id="use3011"
       width="744.09448"
       height="1052.3622" />
    <use
       x="0"
       y="0"
       inkscape:tiled-clone-of="#path2993"
       xlink:href="#path2993"
       transform="translate(270,0)"
       id="use3013"
       width="744.09448"
       height="1052.3622" />
    <g
       id="g3019"
       inkscape:tile-cx="414"
       inkscape:tile-cy="95.362183"
       inkscape:tile-w="36"
       inkscape:tile-h="54"
       inkscape:tile-x0="396"
       inkscape:tile-y0="68.362183"
       transform="matrix(1,0,0,0.77777778,0,15.191596)">
      <rect
         y="68.362183"
         x="396"
         height="54"
         width="6"
         id="rect3015"
         style="fill:#b3b3b3;fill-opacity:1;stroke:#999999;stroke-width:3.75;stroke-linejoin:round;stroke-miterlimit:4;stroke-opacity:0.86666667;stroke-dasharray:none;stroke-dashoffset:0" />
      <use
         height="1052.3622"
         width="744.09448"
         transform="translate(30,0)"
         id="use3017"
         xlink:href="#rect3015"
         y="0"
         x="0" />
    </g>
    <use
       x="0"
       y="0"
       inkscape:tiled-clone-of="#g3019"
       xlink:href="#g3019"
       id="use3023"
       transform="translate(168,378)"
       width="744.09448"
       height="1052.3622" />
    <use
       x="0"
       y="0"
       inkscape:tiled-clone-of="#g3019"
       xlink:href="#g3019"
       transform="translate(0,60)"
       id="use3025"
       width="744.09448"
       height="1052.3622" />
    <use
       x="0"
       y="0"
       inkscape:tiled-clone-of="#g3019"
       xlink:href="#g3019"
       transform="translate(120,378)"
       id="use3027"
       width="744.09448"
       height="1052.3622" />
    <use
       x="0"
       y="0"
       inkscape:tiled-clone-of="#g3019"
       xlink:href="#g3019"
       transform="translate(0,120)"
       id="use3029"
       width="744.09448"
       height="1052.3622" />
    <use
       x="0"
       y="0"
       inkscape:tiled-clone-of="#g3019"
       xlink:href="#g3019"
       transform="translate(0,180)"
       id="use3031"
       width="744.09448"
       height="1052.3622" />
    <use
       x="0"
       y="0"
       inkscape:tiled-clone-of="#g3019"
       xlink:href="#g3019"
       transform="translate(0,240)"
       id="use3033"
       width="744.09448"
       height="1052.3622" />
    <use
       x="0"
       y="0"
       inkscape:tiled-clone-of="#g3019"
       xlink:href="#g3019"
       transform="translate(0,300)"
       id="use3035"
       width="744.09448"
       height="1052.3622" />
    <use
       x="0"
       y="0"
       inkscape:tiled-clone-of="#g3019"
       xlink:href="#g3019"
       transform="translate(0,360)"
       id="use3037"
       width="744.09448"
       height="1052.3622" />
    <use
       x="0"
       y="0"
       inkscape:tiled-clone-of="#g3019"
       xlink:href="#g3019"
       transform="translate(0,420)"
       id="use3039"
       width="744.09448"
       height="1052.3622" />
    <use
       x="0"
       y="0"
       inkscape:tiled-clone-of="#g3019"
       xlink:href="#g3019"
       transform="translate(0,480)"
       id="use3041"
       width="744.09448"
       height="1052.3622" />
    <use
       x="0"
       y="0"
       inkscape:tiled-clone-of="#use2995"
       xlink:href="#use2995"
       id="use3062"
       transform="translate(-30,0)"
       width="744.09448"
       height="1052.3622" />
    <use
       x="0"
       y="0"
       inkscape:tiled-clone-of="#use2995"
       xlink:href="#use2995"
       transform="translate(-210,60)"
       id="use3064"
       width="744.09448"
       height="1052.3622" />
    <use
       x="0"
       y="0"
       inkscape:tiled-clone-of="#use2995"
       xlink:href="#use2995"
       transform="translate(-180,120)"
       id="use3066"
       width="744.09448"
       height="1052.3622" />
    <use
       x="0"
       y="0"
       inkscape:tiled-clone-of="#use2995"
       xlink:href="#use2995"
       transform="translate(90,180)"
       id="use3068"
       width="744.09448"
       height="1052.3622" />
    <use
       x="0"
       y="0"
       inkscape:tiled-clone-of="#use2995"
       xlink:href="#use2995"
       transform="translate(-180,180)"
       id="use3070"
       width="744.09448"
       height="1052.3622" />
    <use
       x="0"
       y="0"
       inkscape:tiled-clone-of="#use2995"
       xlink:href="#use2995"
       transform="translate(-300,280)"
       id="use3072"
       width="744.09448"
       height="1052.3622" />
    <use
       x="0"
       y="0"
       inkscape:tiled-clone-of="#use2995"
       xlink:href="#use2995"
       transform="translate(-300,292)"
       id="use3074"
       width="744.09448"
       height="1052.3622" />
    <use
       x="0"
       y="0"
       inkscape:tiled-clone-of="#use2995"
       xlink:href="#use2995"
       transform="translate(-300,304)"
       id="use3076"
       width="744.09448"
       height="1052.3622" />
    <use
       x="0"
       y="0"
       inkscape:tiled-clone-of="#use2995"
       xlink:href="#use2995"
       transform="translate(-300,316)"
       id="use3078"
       width="744.09448"
       height="1052.3622" />
    <use
       x="0"
       y="0"
       inkscape:tiled-clone-of="#use2995"
       xlink:href="#use2995"
       transform="translate(-210,120)"
       id="use3080"
       width="744.09448"
       height="1052.3622" />
    <use
       x="0"
       y="0"
       inkscape:tiled-clone-of="#use2995"
       xlink:href="#use2995"
       transform="translate(-90,0)"
       id="use3082"
       width="744.09448"
       height="1052.3622" />
    <use
       x="0"
       y="0"
       inkscape:tiled-clone-of="#use2995"
       xlink:href="#use2995"
       transform="translate(-180,60)"
       id="use3084"
       width="744.09448"
       height="1052.3622" />
    <use
       x="0"
       y="0"
       inkscape:tiled-clone-of="#use2995"
       xlink:href="#use2995"
       transform="translate(-150,120)"
       id="use3086"
       width="744.09448"
       height="1052.3622" />
    <use
       x="0"
       y="0"
       inkscape:tiled-clone-of="#use2995"
       xlink:href="#use2995"
       transform="translate(-150,180)"
       id="use3088"
       width="744.09448"
       height="1052.3622" />
    <use
       x="0"
       y="0"
       inkscape:tiled-clone-of="#use2995"
       xlink:href="#use2995"
       transform="translate(-120,240)"
       id="use3090"
       width="744.09448"
       height="1052.3622" />
    <use
       x="0"
       y="0"
       inkscape:tiled-clone-of="#use2995"
       xlink:href="#use2995"
       transform="translate(-288,280)"
       id="use3092"
       width="744.09448"
       height="1052.3622" />
    <use
       x="0"
       y="0"
       inkscape:tiled-clone-of="#use2995"
       xlink:href="#use2995"
       transform="translate(-288,292)"
       id="use3094"
       width="744.09448"
       height="1052.3622" />
    <use
       x="0"
       y="0"
       inkscape:tiled-clone-of="#use2995"
       xlink:href="#use2995"
       transform="translate(-288,304)"
       id="use3096"
       width="744.09448"
       height="1052.3622" />
    <use
       x="0"
       y="0"
       inkscape:tiled-clone-of="#use2995"
       xlink:href="#use2995"
       transform="translate(-288,316)"
       id="use3098"
       width="744.09448"
       height="1052.3622" />
    <use
       x="0"
       y="0"
       inkscape:tiled-clone-of="#use2995"
       xlink:href="#use2995"
       transform="translate(-240,60)"
       id="use3100"
       width="744.09448"
       height="1052.3622" />
    <use
       x="0"
       y="0"
       inkscape:tiled-clone-of="#use2995"
       xlink:href="#use2995"
       transform="translate(-270,0)"
       id="use3102"
       width="744.09448"
       height="1052.3622" />
    <use
       x="0"
       y="0"
       inkscape:tiled-clone-of="#use2995"
       xlink:href="#use2995"
       transform="translate(-150,60)"
       id="use3104"
       width="744.09448"
       height="1052.3622" />
    <use
       x="0"
       y="0"
       inkscape:tiled-clone-of="#use2995"
       xlink:href="#use2995"
       transform="translate(-120,120)"
       id="use3106"
       width="744.09448"
       height="1052.3622" />
    <use
       x="0"
       y="0"
       inkscape:tiled-clone-of="#use2995"
       xlink:href="#use2995"
       transform="translate(-120,180)"
       id="use3108"
       width="744.09448"
       height="1052.3622" />
    <use
       x="0"
       y="0"
       inkscape:tiled-clone-of="#use2995"
       xlink:href="#use2995"
       transform="translate(-90,240)"
       id="use3110"
       width="744.09448"
       height="1052.3622" />
    <use
       x="0"
       y="0"
       inkscape:tiled-clone-of="#use2995"
       xlink:href="#use2995"
       transform="translate(-276,280)"
       id="use3112"
       width="744.09448"
       height="1052.3622" />
    <use
       x="0"
       y="0"
       inkscape:tiled-clone-of="#use2995"
       xlink:href="#use2995"
       transform="translate(-276,292)"
       id="use3114"
       width="744.09448"
       height="1052.3622" />
    <use
       x="0"
       y="0"
       inkscape:tiled-clone-of="#use2995"
       xlink:href="#use2995"
       transform="translate(-276,304)"
       id="use3116"
       width="744.09448"
       height="1052.3622" />
    <use
       x="0"
       y="0"
       inkscape:tiled-clone-of="#use2995"
       xlink:href="#use2995"
       transform="translate(-276,316)"
       id="use3118"
       width="744.09448"
       height="1052.3622" />
    <use
       x="0"
       y="0"
       inkscape:tiled-clone-of="#use2995"
       xlink:href="#use2995"
       transform="translate(120,240)"
       id="use3120"
       width="744.09448"
       height="1052.3622" />
    <use
       x="0"
       y="0"
       inkscape:tiled-clone-of="#use2995"
       xlink:href="#use2995"
       transform="translate(-240,0)"
       id="use3122"
       width="744.09448"
       height="1052.3622" />
    <use
       x="0"
       y="0"
       inkscape:tiled-clone-of="#use2995"
       xlink:href="#use2995"
       transform="translate(-120,60)"
       id="use3124"
       width="744.09448"
       height="1052.3622" />
    <use
       x="0"
       y="0"
       inkscape:tiled-clone-of="#use2995"
       xlink:href="#use2995"
       transform="translate(-90,120)"
       id="use3126"
       width="744.09448"
       height="1052.3622" />
    <use
       x="0"
       y="0"
       inkscape:tiled-clone-of="#use2995"
       xlink:href="#use2995"
       transform="translate(-90,180)"
       id="use3128"
       width="744.09448"
       height="1052.3622" />
    <use
       x="0"
       y="0"
       inkscape:tiled-clone-of="#use2995"
       xlink:href="#use2995"
       transform="translate(-60,240)"
       id="use3130"
       width="744.09448"
       height="1052.3622" />
    <use
       x="0"
       y="0"
       inkscape:tiled-clone-of="#use2995"
       xlink:href="#use2995"
       transform="translate(-264,280)"
       id="use3132"
       width="744.09448"
       height="1052.3622" />
    <use
       x="0"
       y="0"
       inkscape:tiled-clone-of="#use2995"
       xlink:href="#use2995"
       transform="translate(-264,292)"
       id="use3134"
       width="744.09448"
       height="1052.3622" />
    <use
       x="0"
       y="0"
       inkscape:tiled-clone-of="#use2995"
       xlink:href="#use2995"
       transform="translate(-264,304)"
       id="use3136"
       width="744.09448"
       height="1052.3622" />
    <use
       x="0"
       y="0"
       inkscape:tiled-clone-of="#use2995"
       xlink:href="#use2995"
       transform="translate(-264,316)"
       id="use3138"
       width="744.09448"
       height="1052.3622" />
    <use
       x="0"
       y="0"
       inkscape:tiled-clone-of="#use2995"
       xlink:href="#use2995"
       transform="translate(-150,240)"
       id="use3140"
       width="744.09448"
       height="1052.3622" />
    <use
       x="0"
       y="0"
       inkscape:tiled-clone-of="#use2995"
       xlink:href="#use2995"
       transform="translate(-210,0)"
       id="use3142"
       width="744.09448"
       height="1052.3622" />
    <use
       x="0"
       y="0"
       inkscape:tiled-clone-of="#use2995"
       xlink:href="#use2995"
       transform="translate(-90,60)"
       id="use3144"
       width="744.09448"
       height="1052.3622" />
    <use
       x="0"
       y="0"
       inkscape:tiled-clone-of="#use2995"
       xlink:href="#use2995"
       transform="translate(-60,120)"
       id="use3146"
       width="744.09448"
       height="1052.3622" />
    <use
       x="0"
       y="0"
       inkscape:tiled-clone-of="#use2995"
       xlink:href="#use2995"
       transform="translate(-60,180)"
       id="use3148"
       width="744.09448"
       height="1052.3622" />
    <use
       x="0"
       y="0"
       inkscape:tiled-clone-of="#use2995"
       xlink:href="#use2995"
       transform="translate(-30,240)"
       id="use3150"
       width="744.09448"
       height="1052.3622" />
    <use
       x="0"
       y="0"
       inkscape:tiled-clone-of="#use2995"
       xlink:href="#use2995"
       transform="translate(-252,280)"
       id="use3152"
       width="744.09448"
       height="1052.3622" />
    <use
       x="0"
       y="0"
       inkscape:tiled-clone-of="#use2995"
       xlink:href="#use2995"
       transform="translate(-252,292)"
       id="use3154"
       width="744.09448"
       height="1052.3622" />
    <use
       x="0"
       y="0"
       inkscape:tiled-clone-of="#use2995"
       xlink:href="#use2995"
       transform="translate(-252,304)"
       id="use3156"
       width="744.09448"
       height="1052.3622" />
    <use
       x="0"
       y="0"
       inkscape:tiled-clone-of="#use2995"
       xlink:href="#use2995"
       transform="translate(-252,316)"
       id="use3158"
       width="744.09448"
       height="1052.3622" />
    <use
       x="0"
       y="0"
       inkscape:tiled-clone-of="#use2995"
       xlink:href="#use2995"
       transform="translate(-252,328)"
       id="use3160"
       width="744.09448"
       height="1052.3622" />
    <use
       x="0"
       y="0"
       inkscape:tiled-clone-of="#use2995"
       xlink:href="#use2995"
       transform="translate(-30,60)"
       id="use3162"
       width="744.09448"
       height="1052.3622" />
    <use
       x="0"
       y="0"
       inkscape:tiled-clone-of="#use2995"
       xlink:href="#use2995"
       transform="translate(-60,60)"
       id="use3164"
       width="744.09448"
       height="1052.3622" />
    <use
       x="0"
       y="0"
       inkscape:tiled-clone-of="#use2995"
       xlink:href="#use2995"
       transform="translate(-30,120)"
       id="use3166"
       width="744.09448"
       height="1052.3622" />
    <use
       x="0"
       y="0"
       inkscape:tiled-clone-of="#use2995"
       xlink:href="#use2995"
       transform="translate(-30,180)"
       id="use3168"
       width="744.09448"
       height="1052.3622" />
    <use
       x="0"
       y="0"
       inkscape:tiled-clone-of="#use2995"
       xlink:href="#use2995"
       transform="translate(60,240)"
       id="use3170"
       width="744.09448"
       height="1052.3622" />
    <use
       x="0"
       y="0"
       inkscape:tiled-clone-of="#use2995"
       xlink:href="#use2995"
       transform="translate(-240,280)"
       id="use3172"
       width="744.09448"
       height="1052.3622" />
    <use
       x="0"
       y="0"
       inkscape:tiled-clone-of="#use2995"
       xlink:href="#use2995"
       transform="translate(-240,292)"
       id="use3174"
       width="744.09448"
       height="1052.3622" />
    <use
       x="0"
       y="0"
       inkscape:tiled-clone-of="#use2995"
       xlink:href="#use2995"
       transform="translate(-240,304)"
       id="use3176"
       width="744.09448"
       height="1052.3622" />
    <use
       x="0"
       y="0"
       inkscape:tiled-clone-of="#use2995"
       xlink:href="#use2995"
       transform="translate(-240,316)"
       id="use3178"
       width="744.09448"
       height="1052.3622" />
    <use
       x="0"
       y="0"
       inkscape:tiled-clone-of="#use2995"
       xlink:href="#use2995"
       transform="translate(-240,328)"
       id="use3180"
       width="744.09448"
       height="1052.3622" />
    <use
       x="0"
       y="0"
       inkscape:tiled-clone-of="#use2995"
       xlink:href="#use2995"
       transform="translate(-120,0)"
       id="use3182"
       width="744.09448"
       height="1052.3622" />
    <use
       x="0"
       y="0"
       inkscape:tiled-clone-of="#use2995"
       xlink:href="#use2995"
       transform="translate(30,60)"
       id="use3184"
       width="744.09448"
       height="1052.3622" />
    <use
       x="0"
       y="0"
       inkscape:tiled-clone-of="#use2995"
       xlink:href="#use2995"
       transform="translate(0,120)"
       id="use3186"
       width="744.09448"
       height="1052.3622" />
    <use
       x="0"
       y="0"
       inkscape:tiled-clone-of="#use2995"
       xlink:href="#use2995"
       transform="translate(30,180)"
       id="use3188"
       width="744.09448"
       height="1052.3622" />
    <use
       x="0"
       y="0"
       inkscape:tiled-clone-of="#use2995"
       xlink:href="#use2995"
       transform="translate(30,240)"
       id="use3190"
       width="744.09448"
       height="1052.3622" />
    <use
       x="0"
       y="0"
       inkscape:tiled-clone-of="#use2995"
       xlink:href="#use2995"
       transform="translate(-228,280)"
       id="use3192"
       width="744.09448"
       height="1052.3622" />
    <use
       x="0"
       y="0"
       inkscape:tiled-clone-of="#use2995"
       xlink:href="#use2995"
       transform="translate(-228,292)"
       id="use3194"
       width="744.09448"
       height="1052.3622" />
    <use
       x="0"
       y="0"
       inkscape:tiled-clone-of="#use2995"
       xlink:href="#use2995"
       transform="translate(-228,304)"
       id="use3196"
       width="744.09448"
       height="1052.3622" />
    <use
       x="0"
       y="0"
       inkscape:tiled-clone-of="#use2995"
       xlink:href="#use2995"
       transform="translate(-228,316)"
       id="use3198"
       width="744.09448"
       height="1052.3622" />
    <use
       x="0"
       y="0"
       inkscape:tiled-clone-of="#use2995"
       xlink:href="#use2995"
       transform="translate(-228,328)"
       id="use3200"
       width="744.09448"
       height="1052.3622" />
    <use
       x="0"
       y="0"
       inkscape:tiled-clone-of="#use2995"
       xlink:href="#use2995"
       transform="translate(-180,0)"
       id="use3202"
       width="744.09448"
       height="1052.3622" />
    <use
       x="0"
       y="0"
       inkscape:tiled-clone-of="#use2995"
       xlink:href="#use2995"
       transform="translate(0,60)"
       id="use3204"
       width="744.09448"
       height="1052.3622" />
    <use
       x="0"
       y="0"
       inkscape:tiled-clone-of="#use2995"
       xlink:href="#use2995"
       transform="translate(60,120)"
       id="use3206"
       width="744.09448"
       height="1052.3622" />
    <use
       x="0"
       y="0"
       inkscape:tiled-clone-of="#use2995"
       xlink:href="#use2995"
       transform="translate(0,180)"
       id="use3208"
       width="744.09448"
       height="1052.3622" />
    <use
       x="0"
       y="0"
       inkscape:tiled-clone-of="#use2995"
       xlink:href="#use2995"
       transform="translate(0,240)"
       id="use3210"
       width="744.09448"
       height="1052.3622" />
    <use
       x="0"
       y="0"
       inkscape:tiled-clone-of="#use2995"
       xlink:href="#use2995"
       transform="translate(-216,280)"
       id="use3212"
       width="744.09448"
       height="1052.3622" />
    <use
       x="0"
       y="0"
       inkscape:tiled-clone-of="#use2995"
       xlink:href="#use2995"
       transform="translate(-216,292)"
       id="use3214"
       width="744.09448"
       height="1052.3622" />
    <use
       x="0"
       y="0"
       inkscape:tiled-clone-of="#use2995"
       xlink:href="#use2995"
       transform="translate(-216,304)"
       id="use3216"
       width="744.09448"
       height="1052.3622" />
    <use
       x="0"
       y="0"
       inkscape:tiled-clone-of="#use2995"
       xlink:href="#use2995"
       transform="translate(-216,316)"
       id="use3218"
       width="744.09448"
       height="1052.3622" />
    <use
       x="0"
       y="0"
       inkscape:tiled-clone-of="#use2995"
       xlink:href="#use2995"
       transform="translate(-216,328)"
       id="use3220"
       width="744.09448"
       height="1052.3622" />
    <use
       x="0"
       y="0"
       inkscape:tiled-clone-of="#use2995"
       xlink:href="#use2995"
       transform="translate(-150,0)"
       id="use3222"
       width="744.09448"
       height="1052.3622" />
    <use
       x="0"
       y="0"
       inkscape:tiled-clone-of="#use2995"
       xlink:href="#use2995"
       transform="translate(-60,0)"
       id="use3224"
       width="744.09448"
       height="1052.3622" />
    <use
       x="0"
       y="0"
       inkscape:tiled-clone-of="#use2995"
       xlink:href="#use2995"
       transform="translate(30,120)"
       id="use3226"
       width="744.09448"
       height="1052.3622" />
    <use
       x="0"
       y="0"
       inkscape:tiled-clone-of="#use2995"
       xlink:href="#use2995"
       transform="translate(60,180)"
       id="use3228"
       width="744.09448"
       height="1052.3622" />
    <use
       x="0"
       y="0"
       inkscape:tiled-clone-of="#use2995"
       xlink:href="#use2995"
       transform="translate(90,240)"
       id="use3230"
       width="744.09448"
       height="1052.3622" />
    <use
       x="0"
       y="0"
       inkscape:tiled-clone-of="#use2995"
       xlink:href="#use2995"
       transform="translate(-204,280)"
       id="use3232"
       width="744.09448"
       height="1052.3622" />
    <use
       x="0"
       y="0"
       inkscape:tiled-clone-of="#use2995"
       xlink:href="#use2995"
       transform="translate(-204,292)"
       id="use3234"
       width="744.09448"
       height="1052.3622" />
    <use
       x="0"
       y="0"
       inkscape:tiled-clone-of="#use2995"
       xlink:href="#use2995"
       transform="translate(-204,304)"
       id="use3236"
       width="744.09448"
       height="1052.3622" />
    <use
       x="0"
       y="0"
       inkscape:tiled-clone-of="#use2995"
       xlink:href="#use2995"
       transform="translate(-204,316)"
       id="use3238"
       width="744.09448"
       height="1052.3622" />
    <use
       x="0"
       y="0"
       inkscape:tiled-clone-of="#use2995"
       xlink:href="#use2995"
       transform="translate(-204,328)"
       id="use3240"
       width="744.09448"
       height="1052.3622" />
    <path
       style="fill:none;stroke:#000000;stroke-width:2.5;stroke-linecap:butt;stroke-linejoin:miter;stroke-miterlimit:4;stroke-opacity:1;stroke-dasharray:none;marker-start:url(#Arrow2Sstart)"
       d="m 327,68.362183 21,0"
       id="path3242"
       inkscape:connector-curvature="0"
       sodipodi:nodetypes="cc" />
    <path
       style="fill:none;stroke:#000000;stroke-width:2.50000000000000000;stroke-linecap:butt;stroke-linejoin:miter;stroke-opacity:1;marker-end:none;marker-start:url(#Arrow2Sstart);stroke-miterlimit:4;stroke-dasharray:none"
       d="m 288,68.362183 12,0"
       id="path3244"
       inkscape:connector-curvature="0" />
    <path
       inkscape:connector-curvature="0"
       id="path6330"
       d="m 243.86953,62.362183 -24,0"
       style="fill:none;stroke:#000000;stroke-width:2.5;stroke-linecap:butt;stroke-linejoin:miter;stroke-miterlimit:4;stroke-opacity:1;stroke-dasharray:none;marker-start:url(#Arrow2Sstart)" />
    <path
       inkscape:connector-curvature="0"
       id="path6332"
       d="m 189.86953,62.362183 -12,0"
       style="fill:none;stroke:#000000;stroke-width:2.5;stroke-linecap:butt;stroke-linejoin:miter;stroke-miterlimit:4;stroke-opacity:1;stroke-dasharray:none;marker-start:url(#Arrow2Sstart);marker-end:none" />
    <path
       sodipodi:type="arc"
       style="fill:#000000;fill-opacity:1;stroke:#000000;stroke-width:2.5;stroke-linejoin:round;stroke-miterlimit:4;stroke-opacity:0.86666667;stroke-dasharray:none;stroke-dashoffset:0"
       id="path6334"
       sodipodi:cx="267"
       sodipodi:cy="65.362183"
       sodipodi:rx="3"
       sodipodi:ry="3"
       d="m 270,65.362183 a 3,3 0 1 1 -6,0 3,3 0 1 1 6,0 z"
       transform="matrix(0.5,0,0,0.5,132,34.181091)" />
  </g>
</svg>
