<?xml version="1.0" encoding="UTF-8" standalone="no"?>
<svg
   xmlns:dc="http://purl.org/dc/elements/1.1/"
   xmlns:cc="http://creativecommons.org/ns#"
   xmlns:rdf="http://www.w3.org/1999/02/22-rdf-syntax-ns#"
   xmlns:svg="http://www.w3.org/2000/svg"
   xmlns="http://www.w3.org/2000/svg"
   xmlns:xlink="http://www.w3.org/1999/xlink"
   xmlns:sodipodi="http://sodipodi.sourceforge.net/DTD/sodipodi-0.dtd"
   xmlns:inkscape="http://www.inkscape.org/namespaces/inkscape"
   width="800"
   height="600"
   viewBox="0 0 800 600"
   id="svg3219"
   version="1.1"
   inkscape:version="0.48.2 r9819"
   sodipodi:docname="Gamma_distribution_pdf.eps">
  <metadata
     id="metadata3413">
    <rdf:RDF>
      <cc:Work
         rdf:about="">
        <dc:format>image/svg+xml</dc:format>
        <dc:type
           rdf:resource="http://purl.org/dc/dcmitype/StillImage" />
        <dc:title></dc:title>
      </cc:Work>
    </rdf:RDF>
  </metadata>
  <sodipodi:namedview
     pagecolor="#ffffff"
     bordercolor="#666666"
     borderopacity="1"
     objecttolerance="10"
     gridtolerance="10"
     guidetolerance="10"
     inkscape:pageopacity="0"
     inkscape:pageshadow="2"
     inkscape:window-width="1436"
     inkscape:window-height="856"
     id="namedview3411"
     showgrid="false"
     inkscape:zoom="1.1069387"
     inkscape:cx="414.39385"
     inkscape:cy="301.49907"
     inkscape:window-x="4"
     inkscape:window-y="0"
     inkscape:window-maximized="1"
     inkscape:current-layer="svg3219" />
  <desc
     id="desc3221">Produced by GNUPLOT 4.2 patchlevel 5  </desc>
  <defs
     id="defs3223">
    <circle
       id="gpDot"
       r="0.5"
       stroke-width="0.5" />
    <path
       id="gpPt0"
       stroke-width="0.222"
       stroke="currentColor"
       d="M-1,0 h2 M0,-1 v2" />
    <path
       id="gpPt1"
       stroke-width="0.222"
       stroke="currentColor"
       d="M-1,-1 L1,1 M1,-1 L-1,1" />
    <path
       id="gpPt2"
       stroke-width="0.222"
       stroke="currentColor"
       d="M-1,0 L1,0 M0,-1 L0,1 M-1,-1 L1,1 M-1,1 L1,-1" />
    <rect
       id="gpPt3"
       stroke-width="0.222"
       stroke="currentColor"
       x="-1"
       y="-1"
       width="2"
       height="2" />
    <rect
       id="gpPt4"
       stroke-width="0.222"
       stroke="currentColor"
       fill="currentColor"
       x="-1"
       y="-1"
       width="2"
       height="2" />
    <circle
       id="gpPt5"
       stroke-width="0.222"
       stroke="currentColor"
       cx="0"
       cy="0"
       r="1" />
    <use
       xlink:href="#gpPt5"
       id="gpPt6"
       fill="currentColor"
       stroke="none" />
    <path
       id="gpPt7"
       stroke-width="0.222"
       stroke="currentColor"
       d="M0,-1.33 L-1.33,0.67 L1.33,0.67 z" />
    <use
       xlink:href="#gpPt7"
       id="gpPt8"
       fill="currentColor"
       stroke="none" />
    <use
       xlink:href="#gpPt7"
       id="gpPt9"
       stroke="currentColor"
       transform="rotate(180)" />
    <use
       xlink:href="#gpPt9"
       id="gpPt10"
       fill="currentColor"
       stroke="none" />
    <use
       xlink:href="#gpPt3"
       id="gpPt11"
       stroke="currentColor"
       transform="rotate(45)" />
    <use
       xlink:href="#gpPt11"
       id="gpPt12"
       fill="currentColor"
       stroke="none" />
  </defs>
  <g
     style="fill:none; color:white; stroke:currentColor; stroke-width:1.00; stroke-linecap:butt; stroke-linejoin:miter"
     id="g3239" />
  <g
     style="fill:none; color:black; stroke:currentColor; stroke-width:1.00; stroke-linecap:butt; stroke-linejoin:miter"
     id="g3241">
    <path
       d="M70.5,564.0 L79.5,564.0 "
       id="path3243" />
    <g
       transform="translate(62.2,568.5)"
       style="stroke:none; fill:black; font-family:Arial; font-size:12.00pt; text-anchor:end"
       id="g3245">
      <text
         id="text3247"> 0</text>
    </g>
    <path
       d="M70.5,553.1 L75.0,553.1 M70.5,542.1 L75.0,542.1 M70.5,531.2 L75.0,531.2 M70.5,520.2 L75.0,520.2    M70.5,509.3 L75.0,509.3 M70.5,498.3 L75.0,498.3 M70.5,487.4 L75.0,487.4 M70.5,476.4 L75.0,476.4    M70.5,465.5 L75.0,465.5 M70.5,454.5 L75.0,454.5 M70.5,454.5 L79.5,454.5 "
       id="path3249" />
    <g
       transform="translate(62.2,459.0)"
       style="stroke:none; fill:black; font-family:Arial; font-size:12.00pt; text-anchor:end"
       id="g3251">
      <text
         id="text3253"> 0.1</text>
    </g>
    <path
       d="M70.5,443.6 L75.0,443.6 M70.5,432.6 L75.0,432.6 M70.5,421.7 L75.0,421.7 M70.5,410.7 L75.0,410.7    M70.5,399.8 L75.0,399.8 M70.5,388.8 L75.0,388.8 M70.5,377.9 L75.0,377.9 M70.5,366.9 L75.0,366.9    M70.5,356.0 L75.0,356.0 M70.5,345.0 L75.0,345.0 M70.5,345.0 L79.5,345.0 "
       id="path3255" />
    <g
       transform="translate(62.2,349.5)"
       style="stroke:none; fill:black; font-family:Arial; font-size:12.00pt; text-anchor:end"
       id="g3257">
      <text
         id="text3259"> 0.2</text>
    </g>
    <path
       d="M70.5,334.1 L75.0,334.1 M70.5,323.1 L75.0,323.1 M70.5,312.2 L75.0,312.2 M70.5,301.2 L75.0,301.2    M70.5,290.3 L75.0,290.3 M70.5,279.4 L75.0,279.4 M70.5,268.4 L75.0,268.4 M70.5,257.5 L75.0,257.5    M70.5,246.5 L75.0,246.5 M70.5,235.6 L75.0,235.6 M70.5,235.6 L79.5,235.6 "
       id="path3261" />
    <g
       transform="translate(62.2,240.1)"
       style="stroke:none; fill:black; font-family:Arial; font-size:12.00pt; text-anchor:end"
       id="g3263">
      <text
         id="text3265"> 0.3</text>
    </g>
    <path
       d="M70.5,224.6 L75.0,224.6 M70.5,213.7 L75.0,213.7 M70.5,202.7 L75.0,202.7 M70.5,191.8 L75.0,191.8    M70.5,180.8 L75.0,180.8 M70.5,169.9 L75.0,169.9 M70.5,158.9 L75.0,158.9 M70.5,148.0 L75.0,148.0    M70.5,137.0 L75.0,137.0 M70.5,126.1 L75.0,126.1 M70.5,126.1 L79.5,126.1 "
       id="path3267" />
    <g
       transform="translate(62.2,130.6)"
       style="stroke:none; fill:black; font-family:Arial; font-size:12.00pt; text-anchor:end"
       id="g3269">
      <text
         id="text3271"> 0.4</text>
    </g>
    <path
       d="M70.5,115.1 L75.0,115.1 M70.5,104.2 L75.0,104.2 M70.5,93.2 L75.0,93.2 M70.5,82.3 L75.0,82.3    M70.5,71.3 L75.0,71.3 M70.5,60.4 L75.0,60.4 M70.5,49.4 L75.0,49.4 M70.5,38.5 L75.0,38.5    M70.5,27.5 L75.0,27.5 M70.5,16.6 L75.0,16.6 M70.5,16.6 L79.5,16.6 "
       id="path3273" />
    <g
       transform="translate(62.2,21.1)"
       style="stroke:none; fill:black; font-family:Arial; font-size:12.00pt; text-anchor:end"
       id="g3275">
      <text
         id="text3277"> 0.5</text>
    </g>
    <path
       d="M70.5,564.0 L70.5,555.0 "
       id="path3279" />
    <g
       transform="translate(70.5,586.5)"
       style="stroke:none; fill:black; font-family:Arial; font-size:12.00pt; text-anchor:middle"
       id="g3281">
      <text
         id="text3283"> 0</text>
    </g>
    <path
       d="M77.6,564.0 L77.6,559.5 M84.7,564.0 L84.7,559.5 M91.8,564.0 L91.8,559.5 M98.8,564.0 L98.8,559.5    M105.9,564.0 L105.9,559.5 M113.0,564.0 L113.0,559.5 M120.1,564.0 L120.1,559.5 M127.2,564.0 L127.2,559.5    M134.3,564.0 L134.3,559.5 M141.4,564.0 L141.4,559.5 M141.4,564.0 L141.4,555.0 "
       id="path3285" />
    <g
       transform="translate(141.4,586.5)"
       style="stroke:none; fill:black; font-family:Arial; font-size:12.00pt; text-anchor:middle"
       id="g3287">
      <text
         id="text3289"> 2</text>
    </g>
    <path
       d="M148.5,564.0 L148.5,559.5 M155.5,564.0 L155.5,559.5 M162.6,564.0 L162.6,559.5 M169.7,564.0 L169.7,559.5    M176.8,564.0 L176.8,559.5 M183.9,564.0 L183.9,559.5 M191.0,564.0 L191.0,559.5 M198.1,564.0 L198.1,559.5    M205.2,564.0 L205.2,559.5 M212.2,564.0 L212.2,559.5 M212.2,564.0 L212.2,555.0 "
       id="path3291" />
    <g
       transform="translate(212.2,586.5)"
       style="stroke:none; fill:black; font-family:Arial; font-size:12.00pt; text-anchor:middle"
       id="g3293">
      <text
         id="text3295"> 4</text>
    </g>
    <path
       d="M219.3,564.0 L219.3,559.5 M226.4,564.0 L226.4,559.5 M233.5,564.0 L233.5,559.5 M240.6,564.0 L240.6,559.5    M247.7,564.0 L247.7,559.5 M254.8,564.0 L254.8,559.5 M261.8,564.0 L261.8,559.5 M268.9,564.0 L268.9,559.5    M276.0,564.0 L276.0,559.5 M283.1,564.0 L283.1,559.5 M283.1,564.0 L283.1,555.0 "
       id="path3297" />
    <g
       transform="translate(283.1,586.5)"
       style="stroke:none; fill:black; font-family:Arial; font-size:12.00pt; text-anchor:middle"
       id="g3299">
      <text
         id="text3301"> 6</text>
    </g>
    <path
       d="M290.2,564.0 L290.2,559.5 M297.3,564.0 L297.3,559.5 M304.4,564.0 L304.4,559.5 M311.5,564.0 L311.5,559.5    M318.5,564.0 L318.5,559.5 M325.6,564.0 L325.6,559.5 M332.7,564.0 L332.7,559.5 M339.8,564.0 L339.8,559.5    M346.9,564.0 L346.9,559.5 M354.0,564.0 L354.0,559.5 M354.0,564.0 L354.0,555.0 "
       id="path3303" />
    <g
       transform="translate(354.0,586.5)"
       style="stroke:none; fill:black; font-family:Arial; font-size:12.00pt; text-anchor:middle"
       id="g3305">
      <text
         id="text3307"> 8</text>
    </g>
    <path
       d="M361.1,564.0 L361.1,559.5 M368.2,564.0 L368.2,559.5 M375.2,564.0 L375.2,559.5 M382.3,564.0 L382.3,559.5    M389.4,564.0 L389.4,559.5 M396.5,564.0 L396.5,559.5 M403.6,564.0 L403.6,559.5 M410.7,564.0 L410.7,559.5    M417.8,564.0 L417.8,559.5 M424.9,564.0 L424.9,559.5 M424.9,564.0 L424.9,555.0 "
       id="path3309" />
    <g
       transform="translate(424.9,586.5)"
       style="stroke:none; fill:black; font-family:Arial; font-size:12.00pt; text-anchor:middle"
       id="g3311">
      <text
         id="text3313"> 10</text>
    </g>
    <path
       d="M431.9,564.0 L431.9,559.5 M439.0,564.0 L439.0,559.5 M446.1,564.0 L446.1,559.5 M453.2,564.0 L453.2,559.5    M460.3,564.0 L460.3,559.5 M467.4,564.0 L467.4,559.5 M474.5,564.0 L474.5,559.5 M481.5,564.0 L481.5,559.5    M488.6,564.0 L488.6,559.5 M495.7,564.0 L495.7,559.5 M495.7,564.0 L495.7,555.0 "
       id="path3315" />
    <g
       transform="translate(495.7,586.5)"
       style="stroke:none; fill:black; font-family:Arial; font-size:12.00pt; text-anchor:middle"
       id="g3317">
      <text
         id="text3319"> 12</text>
    </g>
    <path
       d="M502.8,564.0 L502.8,559.5 M509.9,564.0 L509.9,559.5 M517.0,564.0 L517.0,559.5 M524.1,564.0 L524.1,559.5    M531.2,564.0 L531.2,559.5 M538.2,564.0 L538.2,559.5 M545.3,564.0 L545.3,559.5 M552.4,564.0 L552.4,559.5    M559.5,564.0 L559.5,559.5 M566.6,564.0 L566.6,559.5 M566.6,564.0 L566.6,555.0 "
       id="path3321" />
    <g
       transform="translate(566.6,586.5)"
       style="stroke:none; fill:black; font-family:Arial; font-size:12.00pt; text-anchor:middle"
       id="g3323">
      <text
         id="text3325"> 14</text>
    </g>
    <path
       d="M573.7,564.0 L573.7,559.5 M580.8,564.0 L580.8,559.5 M587.9,564.0 L587.9,559.5 M594.9,564.0 L594.9,559.5    M602.0,564.0 L602.0,559.5 M609.1,564.0 L609.1,559.5 M616.2,564.0 L616.2,559.5 M623.3,564.0 L623.3,559.5    M630.4,564.0 L630.4,559.5 M637.5,564.0 L637.5,559.5 M637.5,564.0 L637.5,555.0 "
       id="path3327" />
    <g
       transform="translate(637.5,586.5)"
       style="stroke:none; fill:black; font-family:Arial; font-size:12.00pt; text-anchor:middle"
       id="g3329">
      <text
         id="text3331"> 16</text>
    </g>
    <path
       d="M644.5,564.0 L644.5,559.5 M651.6,564.0 L651.6,559.5 M658.7,564.0 L658.7,559.5 M665.8,564.0 L665.8,559.5    M672.9,564.0 L672.9,559.5 M680.0,564.0 L680.0,559.5 M687.1,564.0 L687.1,559.5 M694.2,564.0 L694.2,559.5    M701.2,564.0 L701.2,559.5 M708.3,564.0 L708.3,559.5 M708.3,564.0 L708.3,555.0 "
       id="path3333" />
    <g
       transform="translate(708.3,586.5)"
       style="stroke:none; fill:black; font-family:Arial; font-size:12.00pt; text-anchor:middle"
       id="g3335">
      <text
         id="text3337"> 18</text>
    </g>
    <path
       d="M715.4,564.0 L715.4,559.5 M722.5,564.0 L722.5,559.5 M729.6,564.0 L729.6,559.5 M736.7,564.0 L736.7,559.5    M743.8,564.0 L743.8,559.5 M750.9,564.0 L750.9,559.5 M757.9,564.0 L757.9,559.5 M765.0,564.0 L765.0,559.5    M772.1,564.0 L772.1,559.5 M779.2,564.0 L779.2,559.5 M779.2,564.0 L779.2,555.0 "
       id="path3339" />
    <g
       transform="translate(779.2,586.5)"
       style="stroke:none; fill:black; font-family:Arial; font-size:12.00pt; text-anchor:middle"
       id="g3341">
      <text
         id="text3343"> 20</text>
    </g>
    <path
       d="M70.5,16.6 L70.5,564.0 L779.2,564.0 M779.2,16.6 M70.5,16.6 "
       id="path3345" />
  </g>
  <g
     style="fill:none; color:red; stroke:currentColor; stroke-width:1.00; stroke-linecap:butt; stroke-linejoin:miter"
     id="g3347" />
  <g
     style="fill:none; color:black; stroke:currentColor; stroke-width:1.00; stroke-linecap:butt; stroke-linejoin:miter"
     id="g3349">
    <g
       transform="translate(646.4,39.1)"
       style="stroke:none; fill:black; font-family:Arial; font-size:12.00pt; text-anchor:start"
       id="g3351">
      <text
         id="text3353">k = 1, θ = 2.0</text>
    </g>
  </g>
  <g
     style="fill:none; color:red; stroke:currentColor; stroke-width:1.00; stroke-linecap:butt; stroke-linejoin:miter"
     id="g3355">
    <path
       d="M595.9,34.6 L638.1,34.6 M70.5,16.6 L71.2,22.0 L71.9,27.4 L72.6,32.8 L73.3,38.1 L74.0,43.3    L74.8,48.5 L75.5,53.6 L76.2,58.7 L76.9,63.7 L77.6,68.7 L78.3,73.6 L79.0,78.5 L79.7,83.3    L80.4,88.1 L81.1,92.8 L81.8,97.5 L82.5,102.2 L83.3,106.8 L84.0,111.3 L84.7,115.8 L85.4,120.3    L86.1,124.7 L86.8,129.1 L87.5,133.4 L88.2,137.7 L88.9,141.9 L89.6,146.1 L90.3,150.3 L91.1,154.4    L91.8,158.5 L92.5,162.5 L93.2,166.5 L93.9,170.5 L94.6,174.4 L95.3,178.3 L96.0,182.1 L96.7,185.9    L97.4,189.7 L98.1,193.4 L98.8,197.1 L99.6,200.7 L100.3,204.3 L101.0,207.9 L101.7,211.5 L102.4,215.0    L103.1,218.4 L103.8,221.9 L104.5,225.3 L105.2,228.6 L105.9,232.0 L106.6,235.3 L107.4,238.6 L108.1,241.8    L108.8,245.0 L109.5,248.2 L110.2,251.3 L110.9,254.4 L111.6,257.5 L112.3,260.6 L113.0,263.6 L113.7,266.6    L114.4,269.5 L115.1,272.5 L115.9,275.4 L116.6,278.2 L117.3,281.1 L118.0,283.9 L118.7,286.7 L119.4,289.4    L120.1,292.2 L120.8,294.9 L121.5,297.6 L122.2,300.2 L122.9,302.8 L123.7,305.4 L124.4,308.0 L125.1,310.5    L125.8,313.1 L126.5,315.6 L127.2,318.0 L127.9,320.5 L128.6,322.9 L129.3,325.3 L130.0,327.7 L130.7,330.0    L131.4,332.4 L132.2,334.7 L132.9,336.9 L133.6,339.2 L134.3,341.4 L135.0,343.7 L135.7,345.9 L136.4,348.0    L137.1,350.2 L137.8,352.3 L138.5,354.4 L139.2,356.5 L140.0,358.6 L140.7,360.6 L141.4,362.6 L142.1,364.6    L142.8,366.6 L143.5,368.6 L144.2,370.5 L144.9,372.4 L145.6,374.4 L146.3,376.2 L147.0,378.1 L147.7,380.0    L148.5,381.8 L149.2,383.6 L149.9,385.4 L150.6,387.2 L151.3,388.9 L152.0,390.7 L152.7,392.4 L153.4,394.1    L154.1,395.8 L154.8,397.5 L155.5,399.1 L156.3,400.8 L157.0,402.4 L157.7,404.0 L158.4,405.6 L159.1,407.2    L159.8,408.7 L160.5,410.3 L161.2,411.8 L161.9,413.3 L162.6,414.8 L163.3,416.3 L164.0,417.8 L164.8,419.2    L165.5,420.7 L166.2,422.1 L166.9,423.5 L167.6,424.9 L168.3,426.3 L169.0,427.7 L169.7,429.0 L170.4,430.4    L171.1,431.7 L171.8,433.0 L172.6,434.3 L173.3,435.6 L174.0,436.9 L174.7,438.1 L175.4,439.4 L176.1,440.6    L176.8,441.9 L177.5,443.1 L178.2,444.3 L178.9,445.5 L179.6,446.6 L180.3,447.8 L181.1,449.0 L181.8,450.1    L182.5,451.2 L183.2,452.4 L183.9,453.5 L184.6,454.6 L185.3,455.7 L186.0,456.7 L186.7,457.8 L187.4,458.9    L188.1,459.9 L188.9,461.0 L189.6,462.0 L190.3,463.0 L191.0,464.0 L191.7,465.0 L192.4,466.0 L193.1,467.0    L193.8,467.9 L194.5,468.9 L195.2,469.8 L195.9,470.8 L196.6,471.7 L197.4,472.6 L198.1,473.5 L198.8,474.4    L199.5,475.3 L200.2,476.2 L200.9,477.1 L201.6,477.9 L202.3,478.8 L203.0,479.6 L203.7,480.5 L204.4,481.3    L205.2,482.1 L205.9,482.9 L206.6,483.7 L207.3,484.5 L208.0,485.3 L208.7,486.1 L209.4,486.9 L210.1,487.7    L210.8,488.4 L211.5,489.2 L212.2,489.9 L212.9,490.7 L213.7,491.4 L214.4,492.1 L215.1,492.8 L215.8,493.5    L216.5,494.2 L217.2,494.9 L217.9,495.6 L218.6,496.3 L219.3,497.0 L220.0,497.6 L220.7,498.3 L221.5,498.9    L222.2,499.6 L222.9,500.2 L223.6,500.9 L224.3,501.5 L225.0,502.1 L225.7,502.7 L226.4,503.3 L227.1,503.9    L227.8,504.5 L228.5,505.1 L229.2,505.7 L230.0,506.3 L230.7,506.9 L231.4,507.4 L232.1,508.0 L232.8,508.6    L233.5,509.1 L234.2,509.7 L234.9,510.2 L235.6,510.7 L236.3,511.3 L237.0,511.8 L237.8,512.3 L238.5,512.8    L239.2,513.3 L239.9,513.8 L240.6,514.3 L241.3,514.8 L242.0,515.3 L242.7,515.8 L243.4,516.3 L244.1,516.8    L244.8,517.2 L245.5,517.7 L246.3,518.2 L247.0,518.6 L247.7,519.1 L248.4,519.5 L249.1,520.0 L249.8,520.4    L250.5,520.8 L251.2,521.3 L251.9,521.7 L252.6,522.1 L253.3,522.5 L254.1,522.9 L254.8,523.3 L255.5,523.7    L256.2,524.1 L256.9,524.5 L257.6,524.9 L258.3,525.3 L259.0,525.7 L259.7,526.1 L260.4,526.5 L261.1,526.8    L261.8,527.2 L262.6,527.6 L263.3,527.9 L264.0,528.3 L264.7,528.7 L265.4,529.0 L266.1,529.4 L266.8,529.7    L267.5,530.0 L268.2,530.4 L268.9,530.7 L269.6,531.0 L270.4,531.4 L271.1,531.7 L271.8,532.0 L272.5,532.3    L273.2,532.7 L273.9,533.0 L274.6,533.3 L275.3,533.6 L276.0,533.9 L276.7,534.2 L277.4,534.5 L278.1,534.8    L278.9,535.1 L279.6,535.3 L280.3,535.6 L281.0,535.9 L281.7,536.2 L282.4,536.5 L283.1,536.7 L283.8,537.0    L284.5,537.3 L285.2,537.6 L285.9,537.8 L286.7,538.1 L287.4,538.3 L288.1,538.6 L288.8,538.8 L289.5,539.1    L290.2,539.3 L290.9,539.6 L291.6,539.8 L292.3,540.1 L293.0,540.3 L293.7,540.5 L294.4,540.8 L295.2,541.0    L295.9,541.2 L296.6,541.5 L297.3,541.7 L298.0,541.9 L298.7,542.1 L299.4,542.3 L300.1,542.6 L300.8,542.8    L301.5,543.0 L302.2,543.2 L303.0,543.4 L303.7,543.6 L304.4,543.8 L305.1,544.0 L305.8,544.2 L306.5,544.4    L307.2,544.6 L307.9,544.8 L308.6,545.0 L309.3,545.2 L310.0,545.4 L310.7,545.5 L311.5,545.7 L312.2,545.9    L312.9,546.1 L313.6,546.3 L314.3,546.4 L315.0,546.6 L315.7,546.8 L316.4,547.0 L317.1,547.1 L317.8,547.3    L318.5,547.5 L319.3,547.6 L320.0,547.8 L320.7,548.0 L321.4,548.1 L322.1,548.3 L322.8,548.4 L323.5,548.6    L324.2,548.7 L324.9,548.9 L325.6,549.0 L326.3,549.2 L327.0,549.3 L327.8,549.5 L328.5,549.6 L329.2,549.8    L329.9,549.9 L330.6,550.1 L331.3,550.2 L332.0,550.3 L332.7,550.5 L333.4,550.6 L334.1,550.7 L334.8,550.9    L335.6,551.0 L336.3,551.1 L337.0,551.3 L337.7,551.4 L338.4,551.5 L339.1,551.6 L339.8,551.8 L340.5,551.9    L341.2,552.0 L341.9,552.1 L342.6,552.2 L343.3,552.4 L344.1,552.5 L344.8,552.6 L345.5,552.7 L346.2,552.8    L346.9,552.9 L347.6,553.0 L348.3,553.1 L349.0,553.2 L349.7,553.4 L350.4,553.5 L351.1,553.6 L351.9,553.7    L352.6,553.8 L353.3,553.9 L354.0,554.0 L354.7,554.1 L355.4,554.2 L356.1,554.3 L356.8,554.4 L357.5,554.5    L358.2,554.6 L358.9,554.7 L359.6,554.7 L360.4,554.8 L361.1,554.9 L361.8,555.0 L362.5,555.1 L363.2,555.2    L363.9,555.3 L364.6,555.4 L365.3,555.5 L366.0,555.5 L366.7,555.6 L367.4,555.7 L368.2,555.8 L368.9,555.9    L369.6,556.0 L370.3,556.0 L371.0,556.1 L371.7,556.2 L372.4,556.3 L373.1,556.3 L373.8,556.4 L374.5,556.5    L375.2,556.6 L375.9,556.6 L376.7,556.7 L377.4,556.8 L378.1,556.9 L378.8,556.9 L379.5,557.0 L380.2,557.1    L380.9,557.1 L381.6,557.2 L382.3,557.3 L383.0,557.3 L383.7,557.4 L384.5,557.5 L385.2,557.5 L385.9,557.6    L386.6,557.7 L387.3,557.7 L388.0,557.8 L388.7,557.9 L389.4,557.9 L390.1,558.0 L390.8,558.0 L391.5,558.1    L392.2,558.2 L393.0,558.2 L393.7,558.3 L394.4,558.3 L395.1,558.4 L395.8,558.4 L396.5,558.5 L397.2,558.6    L397.9,558.6 L398.6,558.7 L399.3,558.7 L400.0,558.8 L400.8,558.8 L401.5,558.9 L402.2,558.9 L402.9,559.0    L403.6,559.0 L404.3,559.1 L405.0,559.1 L405.7,559.2 L406.4,559.2 L407.1,559.3 L407.8,559.3 L408.5,559.4    L409.3,559.4 L410.0,559.4 L410.7,559.5 L411.4,559.5 L412.1,559.6 L412.8,559.6 L413.5,559.7 L414.2,559.7    L414.9,559.8 L415.6,559.8 L416.3,559.8 L417.1,559.9 L417.8,559.9 L418.5,560.0 L419.2,560.0 L419.9,560.0    L420.6,560.1 L421.3,560.1 L422.0,560.2 L422.7,560.2 L423.4,560.2 L424.1,560.3 L424.9,560.3 L425.6,560.3    L426.3,560.4 L427.0,560.4 L427.7,560.5 L428.4,560.5 L429.1,560.5 L429.8,560.6 L430.5,560.6 L431.2,560.6    L431.9,560.7 L432.6,560.7 L433.4,560.7 L434.1,560.8 L434.8,560.8 L435.5,560.8 L436.2,560.9 L436.9,560.9    L437.6,560.9 L438.3,560.9 L439.0,561.0 L439.7,561.0 L440.4,561.0 L441.2,561.1 L441.9,561.1 L442.6,561.1    L443.3,561.2 L444.0,561.2 L444.7,561.2 L445.4,561.2 L446.1,561.3 L446.8,561.3 L447.5,561.3 L448.2,561.3    L448.9,561.4 L449.7,561.4 L450.4,561.4 L451.1,561.5 L451.8,561.5 L452.5,561.5 L453.2,561.5 L453.9,561.6    L454.6,561.6 L455.3,561.6 L456.0,561.6 L456.7,561.6 L457.5,561.7 L458.2,561.7 L458.9,561.7 L459.6,561.7    L460.3,561.8 L461.0,561.8 L461.7,561.8 L462.4,561.8 L463.1,561.9 L463.8,561.9 L464.5,561.9 L465.2,561.9    L466.0,561.9 L466.7,562.0 L467.4,562.0 L468.1,562.0 L468.8,562.0 L469.5,562.0 L470.2,562.1 L470.9,562.1    L471.6,562.1 L472.3,562.1 L473.0,562.1 L473.8,562.2 L474.5,562.2 L475.2,562.2 L475.9,562.2 L476.6,562.2    L477.3,562.2 L478.0,562.3 L478.7,562.3 L479.4,562.3 L480.1,562.3 L480.8,562.3 L481.5,562.3 L482.3,562.4    L483.0,562.4 L483.7,562.4 L484.4,562.4 L485.1,562.4 L485.8,562.4 L486.5,562.5 L487.2,562.5 L487.9,562.5    L488.6,562.5 L489.3,562.5 L490.1,562.5 L490.8,562.5 L491.5,562.6 L492.2,562.6 L492.9,562.6 L493.6,562.6    L494.3,562.6 L495.0,562.6 L495.7,562.6 L496.4,562.7 L497.1,562.7 L497.8,562.7 L498.6,562.7 L499.3,562.7    L500.0,562.7 L500.7,562.7 L501.4,562.7 L502.1,562.8 L502.8,562.8 L503.5,562.8 L504.2,562.8 L504.9,562.8    L505.6,562.8 L506.4,562.8 L507.1,562.8 L507.8,562.9 L508.5,562.9 L509.2,562.9 L509.9,562.9 L510.6,562.9    L511.3,562.9 L512.0,562.9 L512.7,562.9 L513.4,562.9 L514.1,563.0 L514.9,563.0 L515.6,563.0 L516.3,563.0    L517.0,563.0 L517.7,563.0 L518.4,563.0 L519.1,563.0 L519.8,563.0 L520.5,563.0 L521.2,563.1 L521.9,563.1    L522.7,563.1 L523.4,563.1 L524.1,563.1 L524.8,563.1 L525.5,563.1 L526.2,563.1 L526.9,563.1 L527.6,563.1    L528.3,563.1 L529.0,563.2 L529.7,563.2 L530.4,563.2 L531.2,563.2 L531.9,563.2 L532.6,563.2 L533.3,563.2    L534.0,563.2 L534.7,563.2 L535.4,563.2 L536.1,563.2 L536.8,563.2 L537.5,563.2 L538.2,563.3 L539.0,563.3    L539.7,563.3 L540.4,563.3 L541.1,563.3 L541.8,563.3 L542.5,563.3 L543.2,563.3 L543.9,563.3 L544.6,563.3    L545.3,563.3 L546.0,563.3 L546.7,563.3 L547.5,563.3 L548.2,563.4 L548.9,563.4 L549.6,563.4 L550.3,563.4    L551.0,563.4 L551.7,563.4 L552.4,563.4 L553.1,563.4 L553.8,563.4 L554.5,563.4 L555.3,563.4 L556.0,563.4    L556.7,563.4 L557.4,563.4 L558.1,563.4 L558.8,563.4 L559.5,563.4 L560.2,563.5 L560.9,563.5 L561.6,563.5    L562.3,563.5 L563.0,563.5 L563.8,563.5 L564.5,563.5 L565.2,563.5 L565.9,563.5 L566.6,563.5 L567.3,563.5    L568.0,563.5 L568.7,563.5 L569.4,563.5 L570.1,563.5 L570.8,563.5 L571.6,563.5 L572.3,563.5 L573.0,563.5    L573.7,563.5 L574.4,563.6 L575.1,563.6 L575.8,563.6 L576.5,563.6 L577.2,563.6 L577.9,563.6 L578.6,563.6    L579.3,563.6 L580.1,563.6 L580.8,563.6 L581.5,563.6 L582.2,563.6 L582.9,563.6 L583.6,563.6 L584.3,563.6    L585.0,563.6 L585.7,563.6 L586.4,563.6 L587.1,563.6 L587.9,563.6 L588.6,563.6 L589.3,563.6 L590.0,563.6    L590.7,563.6 L591.4,563.6 L592.1,563.7 L592.8,563.7 L593.5,563.7 L594.2,563.7 L594.9,563.7 L595.6,563.7    L596.4,563.7 L597.1,563.7 L597.8,563.7 L598.5,563.7 L599.2,563.7 L599.9,563.7 L600.6,563.7 L601.3,563.7    L602.0,563.7 L602.7,563.7 L603.4,563.7 L604.2,563.7 L604.9,563.7 L605.6,563.7 L606.3,563.7 L607.0,563.7    L607.7,563.7 L608.4,563.7 L609.1,563.7 L609.8,563.7 L610.5,563.7 L611.2,563.7 L611.9,563.7 L612.7,563.7    L613.4,563.7 L614.1,563.7 L614.8,563.7 L615.5,563.7 L616.2,563.8 L616.9,563.8 L617.6,563.8 L618.3,563.8    L619.0,563.8 L619.7,563.8 L620.5,563.8 L621.2,563.8 L621.9,563.8 L622.6,563.8 L623.3,563.8 L624.0,563.8    L624.7,563.8 L625.4,563.8 L626.1,563.8 L626.8,563.8 L627.5,563.8 L628.2,563.8 L629.0,563.8 L629.7,563.8    L630.4,563.8 L631.1,563.8 L631.8,563.8 L632.5,563.8 L633.2,563.8 L633.9,563.8 L634.6,563.8 L635.3,563.8    L636.0,563.8 L636.8,563.8 L637.5,563.8 L638.2,563.8 L638.9,563.8 L639.6,563.8 L640.3,563.8 L641.0,563.8    L641.7,563.8 L642.4,563.8 L643.1,563.8 L643.8,563.8 L644.5,563.8 L645.3,563.8 L646.0,563.8 L646.7,563.8    L647.4,563.8 L648.1,563.8 L648.8,563.8 L649.5,563.8 L650.2,563.8 L650.9,563.8 L651.6,563.8 L652.3,563.9    L653.1,563.9 L653.8,563.9 L654.5,563.9 L655.2,563.9 L655.9,563.9 L656.6,563.9 L657.3,563.9 L658.0,563.9    L658.7,563.9 L659.4,563.9 L660.1,563.9 L660.8,563.9 L661.6,563.9 L662.3,563.9 L663.0,563.9 L663.7,563.9    L664.4,563.9 L665.1,563.9 L665.8,563.9 L666.5,563.9 L667.2,563.9 L667.9,563.9 L668.6,563.9 L669.4,563.9    L670.1,563.9 L670.8,563.9 L671.5,563.9 L672.2,563.9 L672.9,563.9 L673.6,563.9 L674.3,563.9 L675.0,563.9    L675.7,563.9 L676.4,563.9 L677.1,563.9 L677.9,563.9 L678.6,563.9 L679.3,563.9 L680.0,563.9 L680.7,563.9    L681.4,563.9 L682.1,563.9 L682.8,563.9 L683.5,563.9 L684.2,563.9 L684.9,563.9 L685.7,563.9 L686.4,563.9    L687.1,563.9 L687.8,563.9 L688.5,563.9 L689.2,563.9 L689.9,563.9 L690.6,563.9 L691.3,563.9 L692.0,563.9    L692.7,563.9 L693.4,563.9 L694.2,563.9 L694.9,563.9 L695.6,563.9 L696.3,563.9 L697.0,563.9 L697.7,563.9    L698.4,563.9 L699.1,563.9 L699.8,563.9 L700.5,563.9 L701.2,563.9 L702.0,563.9 L702.7,563.9 L703.4,563.9    L704.1,563.9 L704.8,563.9 L705.5,563.9 L706.2,563.9 L706.9,563.9 L707.6,563.9 L708.3,563.9 L709.0,563.9    L709.7,563.9 L710.5,563.9 L711.2,563.9 L711.9,563.9 L712.6,563.9 L713.3,563.9 L714.0,563.9 L714.7,563.9    L715.4,563.9 L716.1,563.9 L716.8,563.9 L717.5,563.9 L718.3,563.9 L719.0,563.9 L719.7,563.9 L720.4,563.9    L721.1,563.9 L721.8,563.9 L722.5,563.9 L723.2,563.9 L723.9,563.9 L724.6,563.9 L725.3,563.9 L726.0,563.9    L726.8,563.9 L727.5,563.9 L728.2,563.9 L728.9,563.9 L729.6,563.9 L730.3,564.0 L731.0,564.0 L731.7,564.0    L732.4,564.0 L733.1,564.0 L733.8,564.0 L734.6,564.0 L735.3,564.0 L736.0,564.0 L736.7,564.0 L737.4,564.0    L738.1,564.0 L738.8,564.0 L739.5,564.0 L740.2,564.0 L740.9,564.0 L741.6,564.0 L742.3,564.0 L743.1,564.0    L743.8,564.0 L744.5,564.0 L745.2,564.0 L745.9,564.0 L746.6,564.0 L747.3,564.0 L748.0,564.0 L748.7,564.0    L749.4,564.0 L750.1,564.0 L750.9,564.0 L751.6,564.0 L752.3,564.0 L753.0,564.0 L753.7,564.0 L754.4,564.0    L755.1,564.0 L755.8,564.0 L756.5,564.0 L757.2,564.0 L757.9,564.0 L758.6,564.0 L759.4,564.0 L760.1,564.0    L760.8,564.0 L761.5,564.0 L762.2,564.0 L762.9,564.0 L763.6,564.0 L764.3,564.0 L765.0,564.0 L765.7,564.0    L766.4,564.0 L767.2,564.0 L767.9,564.0 L768.6,564.0 L769.3,564.0 L770.0,564.0 L770.7,564.0 L771.4,564.0    L772.1,564.0 L772.8,564.0 L773.5,564.0 L774.2,564.0 L774.9,564.0 L775.7,564.0 L776.4,564.0 L777.1,564.0    L777.8,564.0 L778.5,564.0 L779.2,564.0 "
       id="path3357" />
  </g>
  <g
     style="fill:none; color:green; stroke:currentColor; stroke-width:1.00; stroke-linecap:butt; stroke-linejoin:miter"
     id="g3359" />
  <g
     style="fill:none; color:black; stroke:currentColor; stroke-width:1.00; stroke-linecap:butt; stroke-linejoin:miter"
     id="g3361">
    <g
       transform="translate(646.4,57.1)"
       style="stroke:none; fill:black; font-family:Arial; font-size:12.00pt; text-anchor:start"
       id="g3363">
      <text
         id="text3365">k = 2, θ = 2.0</text>
    </g>
  </g>
  <g
     style="fill:none; color:green; stroke:currentColor; stroke-width:1.00; stroke-linecap:butt; stroke-linejoin:miter"
     id="g3367">
    <path
       d="M595.9,52.6 L638.1,52.6 M70.5,564.0 L71.2,558.6 L71.9,553.3 L72.6,548.1 L73.3,543.0 L74.0,538.0    L74.8,533.1 L75.5,528.3 L76.2,523.6 L76.9,519.0 L77.6,514.5 L78.3,510.1 L79.0,505.7 L79.7,501.5    L80.4,497.4 L81.1,493.3 L81.8,489.4 L82.5,485.5 L83.3,481.7 L84.0,478.0 L84.7,474.4 L85.4,470.8    L86.1,467.4 L86.8,464.0 L87.5,460.7 L88.2,457.4 L88.9,454.3 L89.6,451.2 L90.3,448.2 L91.1,445.2    L91.8,442.3 L92.5,439.5 L93.2,436.8 L93.9,434.1 L94.6,431.5 L95.3,429.0 L96.0,426.5 L96.7,424.1    L97.4,421.7 L98.1,419.5 L98.8,417.2 L99.6,415.1 L100.3,412.9 L101.0,410.9 L101.7,408.9 L102.4,406.9    L103.1,405.0 L103.8,403.2 L104.5,401.4 L105.2,399.7 L105.9,398.0 L106.6,396.4 L107.4,394.8 L108.1,393.2    L108.8,391.7 L109.5,390.3 L110.2,388.9 L110.9,387.5 L111.6,386.2 L112.3,385.0 L113.0,383.7 L113.7,382.6    L114.4,381.4 L115.1,380.3 L115.9,379.3 L116.6,378.3 L117.3,377.3 L118.0,376.3 L118.7,375.4 L119.4,374.6    L120.1,373.7 L120.8,372.9 L121.5,372.2 L122.2,371.4 L122.9,370.7 L123.7,370.1 L124.4,369.4 L125.1,368.8    L125.8,368.3 L126.5,367.7 L127.2,367.2 L127.9,366.8 L128.6,366.3 L129.3,365.9 L130.0,365.5 L130.7,365.1    L131.4,364.8 L132.2,364.5 L132.9,364.2 L133.6,363.9 L134.3,363.7 L135.0,363.5 L135.7,363.3 L136.4,363.1    L137.1,363.0 L137.8,362.9 L138.5,362.8 L139.2,362.7 L140.0,362.7 L140.7,362.6 L141.4,362.6 L142.1,362.6    L142.8,362.7 L143.5,362.7 L144.2,362.8 L144.9,362.9 L145.6,363.0 L146.3,363.1 L147.0,363.2 L147.7,363.4    L148.5,363.6 L149.2,363.8 L149.9,364.0 L150.6,364.2 L151.3,364.4 L152.0,364.7 L152.7,364.9 L153.4,365.2    L154.1,365.5 L154.8,365.8 L155.5,366.2 L156.3,366.5 L157.0,366.8 L157.7,367.2 L158.4,367.6 L159.1,368.0    L159.8,368.4 L160.5,368.8 L161.2,369.2 L161.9,369.6 L162.6,370.1 L163.3,370.5 L164.0,371.0 L164.8,371.4    L165.5,371.9 L166.2,372.4 L166.9,372.9 L167.6,373.4 L168.3,374.0 L169.0,374.5 L169.7,375.0 L170.4,375.6    L171.1,376.1 L171.8,376.7 L172.6,377.2 L173.3,377.8 L174.0,378.4 L174.7,379.0 L175.4,379.6 L176.1,380.2    L176.8,380.8 L177.5,381.4 L178.2,382.0 L178.9,382.6 L179.6,383.3 L180.3,383.9 L181.1,384.6 L181.8,385.2    L182.5,385.9 L183.2,386.5 L183.9,387.2 L184.6,387.8 L185.3,388.5 L186.0,389.2 L186.7,389.9 L187.4,390.5    L188.1,391.2 L188.9,391.9 L189.6,392.6 L190.3,393.3 L191.0,394.0 L191.7,394.7 L192.4,395.4 L193.1,396.1    L193.8,396.8 L194.5,397.5 L195.2,398.2 L195.9,399.0 L196.6,399.7 L197.4,400.4 L198.1,401.1 L198.8,401.9    L199.5,402.6 L200.2,403.3 L200.9,404.0 L201.6,404.8 L202.3,405.5 L203.0,406.2 L203.7,407.0 L204.4,407.7    L205.2,408.4 L205.9,409.2 L206.6,409.9 L207.3,410.7 L208.0,411.4 L208.7,412.1 L209.4,412.9 L210.1,413.6    L210.8,414.4 L211.5,415.1 L212.2,415.8 L212.9,416.6 L213.7,417.3 L214.4,418.1 L215.1,418.8 L215.8,419.5    L216.5,420.3 L217.2,421.0 L217.9,421.8 L218.6,422.5 L219.3,423.2 L220.0,424.0 L220.7,424.7 L221.5,425.4    L222.2,426.2 L222.9,426.9 L223.6,427.6 L224.3,428.4 L225.0,429.1 L225.7,429.8 L226.4,430.6 L227.1,431.3    L227.8,432.0 L228.5,432.7 L229.2,433.5 L230.0,434.2 L230.7,434.9 L231.4,435.6 L232.1,436.3 L232.8,437.1    L233.5,437.8 L234.2,438.5 L234.9,439.2 L235.6,439.9 L236.3,440.6 L237.0,441.3 L237.8,442.0 L238.5,442.7    L239.2,443.4 L239.9,444.1 L240.6,444.8 L241.3,445.5 L242.0,446.2 L242.7,446.9 L243.4,447.6 L244.1,448.3    L244.8,449.0 L245.5,449.6 L246.3,450.3 L247.0,451.0 L247.7,451.7 L248.4,452.3 L249.1,453.0 L249.8,453.7    L250.5,454.3 L251.2,455.0 L251.9,455.7 L252.6,456.3 L253.3,457.0 L254.1,457.6 L254.8,458.3 L255.5,458.9    L256.2,459.6 L256.9,460.2 L257.6,460.9 L258.3,461.5 L259.0,462.1 L259.7,462.8 L260.4,463.4 L261.1,464.0    L261.8,464.7 L262.6,465.3 L263.3,465.9 L264.0,466.5 L264.7,467.2 L265.4,467.8 L266.1,468.4 L266.8,469.0    L267.5,469.6 L268.2,470.2 L268.9,470.8 L269.6,471.4 L270.4,472.0 L271.1,472.6 L271.8,473.2 L272.5,473.8    L273.2,474.3 L273.9,474.9 L274.6,475.5 L275.3,476.1 L276.0,476.7 L276.7,477.2 L277.4,477.8 L278.1,478.4    L278.9,478.9 L279.6,479.5 L280.3,480.0 L281.0,480.6 L281.7,481.1 L282.4,481.7 L283.1,482.2 L283.8,482.8    L284.5,483.3 L285.2,483.9 L285.9,484.4 L286.7,484.9 L287.4,485.5 L288.1,486.0 L288.8,486.5 L289.5,487.0    L290.2,487.6 L290.9,488.1 L291.6,488.6 L292.3,489.1 L293.0,489.6 L293.7,490.1 L294.4,490.6 L295.2,491.1    L295.9,491.6 L296.6,492.1 L297.3,492.6 L298.0,493.1 L298.7,493.6 L299.4,494.1 L300.1,494.5 L300.8,495.0    L301.5,495.5 L302.2,496.0 L303.0,496.4 L303.7,496.9 L304.4,497.4 L305.1,497.8 L305.8,498.3 L306.5,498.8    L307.2,499.2 L307.9,499.7 L308.6,500.1 L309.3,500.6 L310.0,501.0 L310.7,501.4 L311.5,501.9 L312.2,502.3    L312.9,502.8 L313.6,503.2 L314.3,503.6 L315.0,504.0 L315.7,504.5 L316.4,504.9 L317.1,505.3 L317.8,505.7    L318.5,506.1 L319.3,506.6 L320.0,507.0 L320.7,507.4 L321.4,507.8 L322.1,508.2 L322.8,508.6 L323.5,509.0    L324.2,509.4 L324.9,509.8 L325.6,510.2 L326.3,510.5 L327.0,510.9 L327.8,511.3 L328.5,511.7 L329.2,512.1    L329.9,512.4 L330.6,512.8 L331.3,513.2 L332.0,513.6 L332.7,513.9 L333.4,514.3 L334.1,514.7 L334.8,515.0    L335.6,515.4 L336.3,515.7 L337.0,516.1 L337.7,516.4 L338.4,516.8 L339.1,517.1 L339.8,517.5 L340.5,517.8    L341.2,518.1 L341.9,518.5 L342.6,518.8 L343.3,519.2 L344.1,519.5 L344.8,519.8 L345.5,520.1 L346.2,520.5    L346.9,520.8 L347.6,521.1 L348.3,521.4 L349.0,521.7 L349.7,522.1 L350.4,522.4 L351.1,522.7 L351.9,523.0    L352.6,523.3 L353.3,523.6 L354.0,523.9 L354.7,524.2 L355.4,524.5 L356.1,524.8 L356.8,525.1 L357.5,525.4    L358.2,525.7 L358.9,526.0 L359.6,526.2 L360.4,526.5 L361.1,526.8 L361.8,527.1 L362.5,527.4 L363.2,527.6    L363.9,527.9 L364.6,528.2 L365.3,528.5 L366.0,528.7 L366.7,529.0 L367.4,529.3 L368.2,529.5 L368.9,529.8    L369.6,530.0 L370.3,530.3 L371.0,530.6 L371.7,530.8 L372.4,531.1 L373.1,531.3 L373.8,531.6 L374.5,531.8    L375.2,532.1 L375.9,532.3 L376.7,532.5 L377.4,532.8 L378.1,533.0 L378.8,533.3 L379.5,533.5 L380.2,533.7    L380.9,534.0 L381.6,534.2 L382.3,534.4 L383.0,534.7 L383.7,534.9 L384.5,535.1 L385.2,535.3 L385.9,535.6    L386.6,535.8 L387.3,536.0 L388.0,536.2 L388.7,536.4 L389.4,536.6 L390.1,536.8 L390.8,537.1 L391.5,537.3    L392.2,537.5 L393.0,537.7 L393.7,537.9 L394.4,538.1 L395.1,538.3 L395.8,538.5 L396.5,538.7 L397.2,538.9    L397.9,539.1 L398.6,539.3 L399.3,539.5 L400.0,539.7 L400.8,539.9 L401.5,540.0 L402.2,540.2 L402.9,540.4    L403.6,540.6 L404.3,540.8 L405.0,541.0 L405.7,541.1 L406.4,541.3 L407.1,541.5 L407.8,541.7 L408.5,541.9    L409.3,542.0 L410.0,542.2 L410.7,542.4 L411.4,542.5 L412.1,542.7 L412.8,542.9 L413.5,543.1 L414.2,543.2    L414.9,543.4 L415.6,543.5 L416.3,543.7 L417.1,543.9 L417.8,544.0 L418.5,544.2 L419.2,544.3 L419.9,544.5    L420.6,544.7 L421.3,544.8 L422.0,545.0 L422.7,545.1 L423.4,545.3 L424.1,545.4 L424.9,545.6 L425.6,545.7    L426.3,545.9 L427.0,546.0 L427.7,546.1 L428.4,546.3 L429.1,546.4 L429.8,546.6 L430.5,546.7 L431.2,546.8    L431.9,547.0 L432.6,547.1 L433.4,547.3 L434.1,547.4 L434.8,547.5 L435.5,547.7 L436.2,547.8 L436.9,547.9    L437.6,548.0 L438.3,548.2 L439.0,548.3 L439.7,548.4 L440.4,548.5 L441.2,548.7 L441.9,548.8 L442.6,548.9    L443.3,549.0 L444.0,549.2 L444.7,549.3 L445.4,549.4 L446.1,549.5 L446.8,549.6 L447.5,549.8 L448.2,549.9    L448.9,550.0 L449.7,550.1 L450.4,550.2 L451.1,550.3 L451.8,550.4 L452.5,550.5 L453.2,550.6 L453.9,550.8    L454.6,550.9 L455.3,551.0 L456.0,551.1 L456.7,551.2 L457.5,551.3 L458.2,551.4 L458.9,551.5 L459.6,551.6    L460.3,551.7 L461.0,551.8 L461.7,551.9 L462.4,552.0 L463.1,552.1 L463.8,552.2 L464.5,552.3 L465.2,552.4    L466.0,552.5 L466.7,552.6 L467.4,552.7 L468.1,552.8 L468.8,552.8 L469.5,552.9 L470.2,553.0 L470.9,553.1    L471.6,553.2 L472.3,553.3 L473.0,553.4 L473.8,553.5 L474.5,553.6 L475.2,553.6 L475.9,553.7 L476.6,553.8    L477.3,553.9 L478.0,554.0 L478.7,554.1 L479.4,554.1 L480.1,554.2 L480.8,554.3 L481.5,554.4 L482.3,554.5    L483.0,554.5 L483.7,554.6 L484.4,554.7 L485.1,554.8 L485.8,554.9 L486.5,554.9 L487.2,555.0 L487.9,555.1    L488.6,555.2 L489.3,555.2 L490.1,555.3 L490.8,555.4 L491.5,555.4 L492.2,555.5 L492.9,555.6 L493.6,555.7    L494.3,555.7 L495.0,555.8 L495.7,555.9 L496.4,555.9 L497.1,556.0 L497.8,556.1 L498.6,556.1 L499.3,556.2    L500.0,556.3 L500.7,556.3 L501.4,556.4 L502.1,556.4 L502.8,556.5 L503.5,556.6 L504.2,556.6 L504.9,556.7    L505.6,556.8 L506.4,556.8 L507.1,556.9 L507.8,556.9 L508.5,557.0 L509.2,557.1 L509.9,557.1 L510.6,557.2    L511.3,557.2 L512.0,557.3 L512.7,557.3 L513.4,557.4 L514.1,557.5 L514.9,557.5 L515.6,557.6 L516.3,557.6    L517.0,557.7 L517.7,557.7 L518.4,557.8 L519.1,557.8 L519.8,557.9 L520.5,557.9 L521.2,558.0 L521.9,558.0    L522.7,558.1 L523.4,558.1 L524.1,558.2 L524.8,558.2 L525.5,558.3 L526.2,558.3 L526.9,558.4 L527.6,558.4    L528.3,558.5 L529.0,558.5 L529.7,558.6 L530.4,558.6 L531.2,558.7 L531.9,558.7 L532.6,558.7 L533.3,558.8    L534.0,558.8 L534.7,558.9 L535.4,558.9 L536.1,559.0 L536.8,559.0 L537.5,559.0 L538.2,559.1 L539.0,559.1    L539.7,559.2 L540.4,559.2 L541.1,559.2 L541.8,559.3 L542.5,559.3 L543.2,559.4 L543.9,559.4 L544.6,559.4    L545.3,559.5 L546.0,559.5 L546.7,559.6 L547.5,559.6 L548.2,559.6 L548.9,559.7 L549.6,559.7 L550.3,559.7    L551.0,559.8 L551.7,559.8 L552.4,559.9 L553.1,559.9 L553.8,559.9 L554.5,560.0 L555.3,560.0 L556.0,560.0    L556.7,560.1 L557.4,560.1 L558.1,560.1 L558.8,560.2 L559.5,560.2 L560.2,560.2 L560.9,560.3 L561.6,560.3    L562.3,560.3 L563.0,560.4 L563.8,560.4 L564.5,560.4 L565.2,560.4 L565.9,560.5 L566.6,560.5 L567.3,560.5    L568.0,560.6 L568.7,560.6 L569.4,560.6 L570.1,560.7 L570.8,560.7 L571.6,560.7 L572.3,560.7 L573.0,560.8    L573.7,560.8 L574.4,560.8 L575.1,560.8 L575.8,560.9 L576.5,560.9 L577.2,560.9 L577.9,561.0 L578.6,561.0    L579.3,561.0 L580.1,561.0 L580.8,561.1 L581.5,561.1 L582.2,561.1 L582.9,561.1 L583.6,561.2 L584.3,561.2    L585.0,561.2 L585.7,561.2 L586.4,561.3 L587.1,561.3 L587.9,561.3 L588.6,561.3 L589.3,561.3 L590.0,561.4    L590.7,561.4 L591.4,561.4 L592.1,561.4 L592.8,561.5 L593.5,561.5 L594.2,561.5 L594.9,561.5 L595.6,561.5    L596.4,561.6 L597.1,561.6 L597.8,561.6 L598.5,561.6 L599.2,561.6 L599.9,561.7 L600.6,561.7 L601.3,561.7    L602.0,561.7 L602.7,561.7 L603.4,561.8 L604.2,561.8 L604.9,561.8 L605.6,561.8 L606.3,561.8 L607.0,561.9    L607.7,561.9 L608.4,561.9 L609.1,561.9 L609.8,561.9 L610.5,562.0 L611.2,562.0 L611.9,562.0 L612.7,562.0    L613.4,562.0 L614.1,562.0 L614.8,562.1 L615.5,562.1 L616.2,562.1 L616.9,562.1 L617.6,562.1 L618.3,562.1    L619.0,562.2 L619.7,562.2 L620.5,562.2 L621.2,562.2 L621.9,562.2 L622.6,562.2 L623.3,562.3 L624.0,562.3    L624.7,562.3 L625.4,562.3 L626.1,562.3 L626.8,562.3 L627.5,562.3 L628.2,562.4 L629.0,562.4 L629.7,562.4    L630.4,562.4 L631.1,562.4 L631.8,562.4 L632.5,562.4 L633.2,562.5 L633.9,562.5 L634.6,562.5 L635.3,562.5    L636.0,562.5 L636.8,562.5 L637.5,562.5 L638.2,562.5 L638.9,562.6 L639.6,562.6 L640.3,562.6 L641.0,562.6    L641.7,562.6 L642.4,562.6 L643.1,562.6 L643.8,562.6 L644.5,562.7 L645.3,562.7 L646.0,562.7 L646.7,562.7    L647.4,562.7 L648.1,562.7 L648.8,562.7 L649.5,562.7 L650.2,562.7 L650.9,562.8 L651.6,562.8 L652.3,562.8    L653.1,562.8 L653.8,562.8 L654.5,562.8 L655.2,562.8 L655.9,562.8 L656.6,562.8 L657.3,562.9 L658.0,562.9    L658.7,562.9 L659.4,562.9 L660.1,562.9 L660.8,562.9 L661.6,562.9 L662.3,562.9 L663.0,562.9 L663.7,562.9    L664.4,562.9 L665.1,563.0 L665.8,563.0 L666.5,563.0 L667.2,563.0 L667.9,563.0 L668.6,563.0 L669.4,563.0    L670.1,563.0 L670.8,563.0 L671.5,563.0 L672.2,563.0 L672.9,563.1 L673.6,563.1 L674.3,563.1 L675.0,563.1    L675.7,563.1 L676.4,563.1 L677.1,563.1 L677.9,563.1 L678.6,563.1 L679.3,563.1 L680.0,563.1 L680.7,563.1    L681.4,563.1 L682.1,563.2 L682.8,563.2 L683.5,563.2 L684.2,563.2 L684.9,563.2 L685.7,563.2 L686.4,563.2    L687.1,563.2 L687.8,563.2 L688.5,563.2 L689.2,563.2 L689.9,563.2 L690.6,563.2 L691.3,563.2 L692.0,563.3    L692.7,563.3 L693.4,563.3 L694.2,563.3 L694.9,563.3 L695.6,563.3 L696.3,563.3 L697.0,563.3 L697.7,563.3    L698.4,563.3 L699.1,563.3 L699.8,563.3 L700.5,563.3 L701.2,563.3 L702.0,563.3 L702.7,563.3 L703.4,563.4    L704.1,563.4 L704.8,563.4 L705.5,563.4 L706.2,563.4 L706.9,563.4 L707.6,563.4 L708.3,563.4 L709.0,563.4    L709.7,563.4 L710.5,563.4 L711.2,563.4 L711.9,563.4 L712.6,563.4 L713.3,563.4 L714.0,563.4 L714.7,563.4    L715.4,563.4 L716.1,563.4 L716.8,563.5 L717.5,563.5 L718.3,563.5 L719.0,563.5 L719.7,563.5 L720.4,563.5    L721.1,563.5 L721.8,563.5 L722.5,563.5 L723.2,563.5 L723.9,563.5 L724.6,563.5 L725.3,563.5 L726.0,563.5    L726.8,563.5 L727.5,563.5 L728.2,563.5 L728.9,563.5 L729.6,563.5 L730.3,563.5 L731.0,563.5 L731.7,563.5    L732.4,563.6 L733.1,563.6 L733.8,563.6 L734.6,563.6 L735.3,563.6 L736.0,563.6 L736.7,563.6 L737.4,563.6    L738.1,563.6 L738.8,563.6 L739.5,563.6 L740.2,563.6 L740.9,563.6 L741.6,563.6 L742.3,563.6 L743.1,563.6    L743.8,563.6 L744.5,563.6 L745.2,563.6 L745.9,563.6 L746.6,563.6 L747.3,563.6 L748.0,563.6 L748.7,563.6    L749.4,563.6 L750.1,563.6 L750.9,563.6 L751.6,563.6 L752.3,563.7 L753.0,563.7 L753.7,563.7 L754.4,563.7    L755.1,563.7 L755.8,563.7 L756.5,563.7 L757.2,563.7 L757.9,563.7 L758.6,563.7 L759.4,563.7 L760.1,563.7    L760.8,563.7 L761.5,563.7 L762.2,563.7 L762.9,563.7 L763.6,563.7 L764.3,563.7 L765.0,563.7 L765.7,563.7    L766.4,563.7 L767.2,563.7 L767.9,563.7 L768.6,563.7 L769.3,563.7 L770.0,563.7 L770.7,563.7 L771.4,563.7    L772.1,563.7 L772.8,563.7 L773.5,563.7 L774.2,563.7 L774.9,563.7 L775.7,563.7 L776.4,563.7 L777.1,563.7    L777.8,563.7 L778.5,563.7 L779.2,563.8 "
       id="path3369" />
  </g>
  <g
     style="fill:none; color:blue; stroke:currentColor; stroke-width:1.00; stroke-linecap:butt; stroke-linejoin:miter"
     id="g3371" />
  <g
     style="fill:none; color:black; stroke:currentColor; stroke-width:1.00; stroke-linecap:butt; stroke-linejoin:miter"
     id="g3373">
    <g
       transform="translate(646.4,75.1)"
       style="stroke:none; fill:black; font-family:Arial; font-size:12.00pt; text-anchor:start"
       id="g3375">
      <text
         id="text3377">k = 3, θ = 2.0</text>
    </g>
  </g>
  <g
     style="fill:none; color:blue; stroke:currentColor; stroke-width:1.00; stroke-linecap:butt; stroke-linejoin:miter"
     id="g3379">
    <path
       d="M595.9,70.6 L638.1,70.6 M70.5,564.0 L71.2,564.0 L71.9,563.9 L72.6,563.8 L73.3,563.6 L74.0,563.3    L74.8,563.1 L75.5,562.7 L76.2,562.4 L76.9,562.0 L77.6,561.5 L78.3,561.0 L79.0,560.5 L79.7,559.9    L80.4,559.3 L81.1,558.7 L81.8,558.0 L82.5,557.3 L83.3,556.6 L84.0,555.8 L84.7,555.0 L85.4,554.2    L86.1,553.4 L86.8,552.5 L87.5,551.6 L88.2,550.7 L88.9,549.7 L89.6,548.8 L90.3,547.8 L91.1,546.8    L91.8,545.8 L92.5,544.7 L93.2,543.6 L93.9,542.6 L94.6,541.5 L95.3,540.4 L96.0,539.3 L96.7,538.1    L97.4,537.0 L98.1,535.8 L98.8,534.6 L99.6,533.5 L100.3,532.3 L101.0,531.1 L101.7,529.9 L102.4,528.7    L103.1,527.4 L103.8,526.2 L104.5,525.0 L105.2,523.7 L105.9,522.5 L106.6,521.3 L107.4,520.0 L108.1,518.7    L108.8,517.5 L109.5,516.2 L110.2,515.0 L110.9,513.7 L111.6,512.4 L112.3,511.2 L113.0,509.9 L113.7,508.7    L114.4,507.4 L115.1,506.1 L115.9,504.9 L116.6,503.6 L117.3,502.4 L118.0,501.1 L118.7,499.9 L119.4,498.6    L120.1,497.4 L120.8,496.2 L121.5,494.9 L122.2,493.7 L122.9,492.5 L123.7,491.3 L124.4,490.1 L125.1,488.9    L125.8,487.7 L126.5,486.5 L127.2,485.3 L127.9,484.1 L128.6,482.9 L129.3,481.8 L130.0,480.6 L130.7,479.5    L131.4,478.3 L132.2,477.2 L132.9,476.1 L133.6,475.0 L134.3,473.9 L135.0,472.8 L135.7,471.7 L136.4,470.6    L137.1,469.5 L137.8,468.5 L138.5,467.4 L139.2,466.4 L140.0,465.3 L140.7,464.3 L141.4,463.3 L142.1,462.3    L142.8,461.3 L143.5,460.3 L144.2,459.4 L144.9,458.4 L145.6,457.5 L146.3,456.5 L147.0,455.6 L147.7,454.7    L148.5,453.8 L149.2,452.9 L149.9,452.0 L150.6,451.1 L151.3,450.2 L152.0,449.4 L152.7,448.5 L153.4,447.7    L154.1,446.9 L154.8,446.1 L155.5,445.3 L156.3,444.5 L157.0,443.7 L157.7,443.0 L158.4,442.2 L159.1,441.5    L159.8,440.7 L160.5,440.0 L161.2,439.3 L161.9,438.6 L162.6,437.9 L163.3,437.3 L164.0,436.6 L164.8,436.0    L165.5,435.3 L166.2,434.7 L166.9,434.1 L167.6,433.5 L168.3,432.9 L169.0,432.3 L169.7,431.7 L170.4,431.2    L171.1,430.6 L171.8,430.1 L172.6,429.5 L173.3,429.0 L174.0,428.5 L174.7,428.0 L175.4,427.5 L176.1,427.1    L176.8,426.6 L177.5,426.1 L178.2,425.7 L178.9,425.3 L179.6,424.8 L180.3,424.4 L181.1,424.0 L181.8,423.6    L182.5,423.3 L183.2,422.9 L183.9,422.5 L184.6,422.2 L185.3,421.8 L186.0,421.5 L186.7,421.2 L187.4,420.9    L188.1,420.6 L188.9,420.3 L189.6,420.0 L190.3,419.8 L191.0,419.5 L191.7,419.2 L192.4,419.0 L193.1,418.8    L193.8,418.6 L194.5,418.3 L195.2,418.1 L195.9,417.9 L196.6,417.8 L197.4,417.6 L198.1,417.4 L198.8,417.3    L199.5,417.1 L200.2,417.0 L200.9,416.8 L201.6,416.7 L202.3,416.6 L203.0,416.5 L203.7,416.4 L204.4,416.3    L205.2,416.2 L205.9,416.1 L206.6,416.1 L207.3,416.0 L208.0,416.0 L208.7,415.9 L209.4,415.9 L210.1,415.9    L210.8,415.8 L211.5,415.8 L212.2,415.8 L212.9,415.8 L213.7,415.8 L214.4,415.9 L215.1,415.9 L215.8,415.9    L216.5,416.0 L217.2,416.0 L217.9,416.1 L218.6,416.1 L219.3,416.2 L220.0,416.3 L220.7,416.3 L221.5,416.4    L222.2,416.5 L222.9,416.6 L223.6,416.7 L224.3,416.8 L225.0,417.0 L225.7,417.1 L226.4,417.2 L227.1,417.4    L227.8,417.5 L228.5,417.6 L229.2,417.8 L230.0,418.0 L230.7,418.1 L231.4,418.3 L232.1,418.5 L232.8,418.7    L233.5,418.8 L234.2,419.0 L234.9,419.2 L235.6,419.4 L236.3,419.6 L237.0,419.8 L237.8,420.1 L238.5,420.3    L239.2,420.5 L239.9,420.7 L240.6,421.0 L241.3,421.2 L242.0,421.5 L242.7,421.7 L243.4,422.0 L244.1,422.2    L244.8,422.5 L245.5,422.8 L246.3,423.0 L247.0,423.3 L247.7,423.6 L248.4,423.9 L249.1,424.2 L249.8,424.4    L250.5,424.7 L251.2,425.0 L251.9,425.3 L252.6,425.6 L253.3,426.0 L254.1,426.3 L254.8,426.6 L255.5,426.9    L256.2,427.2 L256.9,427.5 L257.6,427.9 L258.3,428.2 L259.0,428.5 L259.7,428.9 L260.4,429.2 L261.1,429.6    L261.8,429.9 L262.6,430.3 L263.3,430.6 L264.0,431.0 L264.7,431.3 L265.4,431.7 L266.1,432.0 L266.8,432.4    L267.5,432.8 L268.2,433.1 L268.9,433.5 L269.6,433.9 L270.4,434.3 L271.1,434.6 L271.8,435.0 L272.5,435.4    L273.2,435.8 L273.9,436.2 L274.6,436.6 L275.3,437.0 L276.0,437.3 L276.7,437.7 L277.4,438.1 L278.1,438.5    L278.9,438.9 L279.6,439.3 L280.3,439.7 L281.0,440.1 L281.7,440.5 L282.4,441.0 L283.1,441.4 L283.8,441.8    L284.5,442.2 L285.2,442.6 L285.9,443.0 L286.7,443.4 L287.4,443.8 L288.1,444.3 L288.8,444.7 L289.5,445.1    L290.2,445.5 L290.9,445.9 L291.6,446.4 L292.3,446.8 L293.0,447.2 L293.7,447.6 L294.4,448.0 L295.2,448.5    L295.9,448.9 L296.6,449.3 L297.3,449.8 L298.0,450.2 L298.7,450.6 L299.4,451.0 L300.1,451.5 L300.8,451.9    L301.5,452.3 L302.2,452.8 L303.0,453.2 L303.7,453.6 L304.4,454.1 L305.1,454.5 L305.8,454.9 L306.5,455.4    L307.2,455.8 L307.9,456.2 L308.6,456.7 L309.3,457.1 L310.0,457.5 L310.7,458.0 L311.5,458.4 L312.2,458.8    L312.9,459.3 L313.6,459.7 L314.3,460.1 L315.0,460.6 L315.7,461.0 L316.4,461.5 L317.1,461.9 L317.8,462.3    L318.5,462.8 L319.3,463.2 L320.0,463.6 L320.7,464.1 L321.4,464.5 L322.1,464.9 L322.8,465.4 L323.5,465.8    L324.2,466.2 L324.9,466.6 L325.6,467.1 L326.3,467.5 L327.0,467.9 L327.8,468.4 L328.5,468.8 L329.2,469.2    L329.9,469.7 L330.6,470.1 L331.3,470.5 L332.0,470.9 L332.7,471.4 L333.4,471.8 L334.1,472.2 L334.8,472.6    L335.6,473.1 L336.3,473.5 L337.0,473.9 L337.7,474.3 L338.4,474.7 L339.1,475.2 L339.8,475.6 L340.5,476.0    L341.2,476.4 L341.9,476.8 L342.6,477.3 L343.3,477.7 L344.1,478.1 L344.8,478.5 L345.5,478.9 L346.2,479.3    L346.9,479.7 L347.6,480.1 L348.3,480.6 L349.0,481.0 L349.7,481.4 L350.4,481.8 L351.1,482.2 L351.9,482.6    L352.6,483.0 L353.3,483.4 L354.0,483.8 L354.7,484.2 L355.4,484.6 L356.1,485.0 L356.8,485.4 L357.5,485.8    L358.2,486.2 L358.9,486.6 L359.6,487.0 L360.4,487.4 L361.1,487.8 L361.8,488.1 L362.5,488.5 L363.2,488.9    L363.9,489.3 L364.6,489.7 L365.3,490.1 L366.0,490.5 L366.7,490.8 L367.4,491.2 L368.2,491.6 L368.9,492.0    L369.6,492.4 L370.3,492.7 L371.0,493.1 L371.7,493.5 L372.4,493.9 L373.1,494.2 L373.8,494.6 L374.5,495.0    L375.2,495.3 L375.9,495.7 L376.7,496.1 L377.4,496.4 L378.1,496.8 L378.8,497.2 L379.5,497.5 L380.2,497.9    L380.9,498.2 L381.6,498.6 L382.3,498.9 L383.0,499.3 L383.7,499.7 L384.5,500.0 L385.2,500.4 L385.9,500.7    L386.6,501.1 L387.3,501.4 L388.0,501.7 L388.7,502.1 L389.4,502.4 L390.1,502.8 L390.8,503.1 L391.5,503.4    L392.2,503.8 L393.0,504.1 L393.7,504.5 L394.4,504.8 L395.1,505.1 L395.8,505.5 L396.5,505.8 L397.2,506.1    L397.9,506.4 L398.6,506.8 L399.3,507.1 L400.0,507.4 L400.8,507.7 L401.5,508.1 L402.2,508.4 L402.9,508.7    L403.6,509.0 L404.3,509.3 L405.0,509.6 L405.7,510.0 L406.4,510.3 L407.1,510.6 L407.8,510.9 L408.5,511.2    L409.3,511.5 L410.0,511.8 L410.7,512.1 L411.4,512.4 L412.1,512.7 L412.8,513.0 L413.5,513.3 L414.2,513.6    L414.9,513.9 L415.6,514.2 L416.3,514.5 L417.1,514.8 L417.8,515.1 L418.5,515.4 L419.2,515.6 L419.9,515.9    L420.6,516.2 L421.3,516.5 L422.0,516.8 L422.7,517.1 L423.4,517.3 L424.1,517.6 L424.9,517.9 L425.6,518.2    L426.3,518.4 L427.0,518.7 L427.7,519.0 L428.4,519.3 L429.1,519.5 L429.8,519.8 L430.5,520.1 L431.2,520.3    L431.9,520.6 L432.6,520.9 L433.4,521.1 L434.1,521.4 L434.8,521.6 L435.5,521.9 L436.2,522.2 L436.9,522.4    L437.6,522.7 L438.3,522.9 L439.0,523.2 L439.7,523.4 L440.4,523.7 L441.2,523.9 L441.9,524.2 L442.6,524.4    L443.3,524.7 L444.0,524.9 L444.7,525.1 L445.4,525.4 L446.1,525.6 L446.8,525.9 L447.5,526.1 L448.2,526.3    L448.9,526.6 L449.7,526.8 L450.4,527.0 L451.1,527.3 L451.8,527.5 L452.5,527.7 L453.2,528.0 L453.9,528.2    L454.6,528.4 L455.3,528.6 L456.0,528.9 L456.7,529.1 L457.5,529.3 L458.2,529.5 L458.9,529.7 L459.6,529.9    L460.3,530.2 L461.0,530.4 L461.7,530.6 L462.4,530.8 L463.1,531.0 L463.8,531.2 L464.5,531.4 L465.2,531.6    L466.0,531.9 L466.7,532.1 L467.4,532.3 L468.1,532.5 L468.8,532.7 L469.5,532.9 L470.2,533.1 L470.9,533.3    L471.6,533.5 L472.3,533.7 L473.0,533.9 L473.8,534.1 L474.5,534.2 L475.2,534.4 L475.9,534.6 L476.6,534.8    L477.3,535.0 L478.0,535.2 L478.7,535.4 L479.4,535.6 L480.1,535.8 L480.8,535.9 L481.5,536.1 L482.3,536.3    L483.0,536.5 L483.7,536.7 L484.4,536.8 L485.1,537.0 L485.8,537.2 L486.5,537.4 L487.2,537.6 L487.9,537.7    L488.6,537.9 L489.3,538.1 L490.1,538.2 L490.8,538.4 L491.5,538.6 L492.2,538.8 L492.9,538.9 L493.6,539.1    L494.3,539.2 L495.0,539.4 L495.7,539.6 L496.4,539.7 L497.1,539.9 L497.8,540.1 L498.6,540.2 L499.3,540.4    L500.0,540.5 L500.7,540.7 L501.4,540.8 L502.1,541.0 L502.8,541.2 L503.5,541.3 L504.2,541.5 L504.9,541.6    L505.6,541.8 L506.4,541.9 L507.1,542.1 L507.8,542.2 L508.5,542.4 L509.2,542.5 L509.9,542.6 L510.6,542.8    L511.3,542.9 L512.0,543.1 L512.7,543.2 L513.4,543.4 L514.1,543.5 L514.9,543.6 L515.6,543.8 L516.3,543.9    L517.0,544.1 L517.7,544.2 L518.4,544.3 L519.1,544.5 L519.8,544.6 L520.5,544.7 L521.2,544.9 L521.9,545.0    L522.7,545.1 L523.4,545.2 L524.1,545.4 L524.8,545.5 L525.5,545.6 L526.2,545.8 L526.9,545.9 L527.6,546.0    L528.3,546.1 L529.0,546.3 L529.7,546.4 L530.4,546.5 L531.2,546.6 L531.9,546.7 L532.6,546.9 L533.3,547.0    L534.0,547.1 L534.7,547.2 L535.4,547.3 L536.1,547.4 L536.8,547.6 L537.5,547.7 L538.2,547.8 L539.0,547.9    L539.7,548.0 L540.4,548.1 L541.1,548.2 L541.8,548.3 L542.5,548.4 L543.2,548.6 L543.9,548.7 L544.6,548.8    L545.3,548.9 L546.0,549.0 L546.7,549.1 L547.5,549.2 L548.2,549.3 L548.9,549.4 L549.6,549.5 L550.3,549.6    L551.0,549.7 L551.7,549.8 L552.4,549.9 L553.1,550.0 L553.8,550.1 L554.5,550.2 L555.3,550.3 L556.0,550.4    L556.7,550.5 L557.4,550.6 L558.1,550.7 L558.8,550.8 L559.5,550.9 L560.2,551.0 L560.9,551.1 L561.6,551.1    L562.3,551.2 L563.0,551.3 L563.8,551.4 L564.5,551.5 L565.2,551.6 L565.9,551.7 L566.6,551.8 L567.3,551.9    L568.0,551.9 L568.7,552.0 L569.4,552.1 L570.1,552.2 L570.8,552.3 L571.6,552.4 L572.3,552.5 L573.0,552.5    L573.7,552.6 L574.4,552.7 L575.1,552.8 L575.8,552.9 L576.5,552.9 L577.2,553.0 L577.9,553.1 L578.6,553.2    L579.3,553.3 L580.1,553.3 L580.8,553.4 L581.5,553.5 L582.2,553.6 L582.9,553.6 L583.6,553.7 L584.3,553.8    L585.0,553.9 L585.7,553.9 L586.4,554.0 L587.1,554.1 L587.9,554.1 L588.6,554.2 L589.3,554.3 L590.0,554.4    L590.7,554.4 L591.4,554.5 L592.1,554.6 L592.8,554.6 L593.5,554.7 L594.2,554.8 L594.9,554.8 L595.6,554.9    L596.4,555.0 L597.1,555.0 L597.8,555.1 L598.5,555.2 L599.2,555.2 L599.9,555.3 L600.6,555.4 L601.3,555.4    L602.0,555.5 L602.7,555.5 L603.4,555.6 L604.2,555.7 L604.9,555.7 L605.6,555.8 L606.3,555.9 L607.0,555.9    L607.7,556.0 L608.4,556.0 L609.1,556.1 L609.8,556.1 L610.5,556.2 L611.2,556.3 L611.9,556.3 L612.7,556.4    L613.4,556.4 L614.1,556.5 L614.8,556.5 L615.5,556.6 L616.2,556.7 L616.9,556.7 L617.6,556.8 L618.3,556.8    L619.0,556.9 L619.7,556.9 L620.5,557.0 L621.2,557.0 L621.9,557.1 L622.6,557.1 L623.3,557.2 L624.0,557.2    L624.7,557.3 L625.4,557.3 L626.1,557.4 L626.8,557.4 L627.5,557.5 L628.2,557.5 L629.0,557.6 L629.7,557.6    L630.4,557.7 L631.1,557.7 L631.8,557.8 L632.5,557.8 L633.2,557.9 L633.9,557.9 L634.6,557.9 L635.3,558.0    L636.0,558.0 L636.8,558.1 L637.5,558.1 L638.2,558.2 L638.9,558.2 L639.6,558.3 L640.3,558.3 L641.0,558.3    L641.7,558.4 L642.4,558.4 L643.1,558.5 L643.8,558.5 L644.5,558.5 L645.3,558.6 L646.0,558.6 L646.7,558.7    L647.4,558.7 L648.1,558.8 L648.8,558.8 L649.5,558.8 L650.2,558.9 L650.9,558.9 L651.6,558.9 L652.3,559.0    L653.1,559.0 L653.8,559.1 L654.5,559.1 L655.2,559.1 L655.9,559.2 L656.6,559.2 L657.3,559.2 L658.0,559.3    L658.7,559.3 L659.4,559.3 L660.1,559.4 L660.8,559.4 L661.6,559.5 L662.3,559.5 L663.0,559.5 L663.7,559.6    L664.4,559.6 L665.1,559.6 L665.8,559.7 L666.5,559.7 L667.2,559.7 L667.9,559.8 L668.6,559.8 L669.4,559.8    L670.1,559.9 L670.8,559.9 L671.5,559.9 L672.2,559.9 L672.9,560.0 L673.6,560.0 L674.3,560.0 L675.0,560.1    L675.7,560.1 L676.4,560.1 L677.1,560.2 L677.9,560.2 L678.6,560.2 L679.3,560.2 L680.0,560.3 L680.7,560.3    L681.4,560.3 L682.1,560.4 L682.8,560.4 L683.5,560.4 L684.2,560.4 L684.9,560.5 L685.7,560.5 L686.4,560.5    L687.1,560.5 L687.8,560.6 L688.5,560.6 L689.2,560.6 L689.9,560.7 L690.6,560.7 L691.3,560.7 L692.0,560.7    L692.7,560.8 L693.4,560.8 L694.2,560.8 L694.9,560.8 L695.6,560.9 L696.3,560.9 L697.0,560.9 L697.7,560.9    L698.4,561.0 L699.1,561.0 L699.8,561.0 L700.5,561.0 L701.2,561.0 L702.0,561.1 L702.7,561.1 L703.4,561.1    L704.1,561.1 L704.8,561.2 L705.5,561.2 L706.2,561.2 L706.9,561.2 L707.6,561.2 L708.3,561.3 L709.0,561.3    L709.7,561.3 L710.5,561.3 L711.2,561.3 L711.9,561.4 L712.6,561.4 L713.3,561.4 L714.0,561.4 L714.7,561.4    L715.4,561.5 L716.1,561.5 L716.8,561.5 L717.5,561.5 L718.3,561.5 L719.0,561.6 L719.7,561.6 L720.4,561.6    L721.1,561.6 L721.8,561.6 L722.5,561.7 L723.2,561.7 L723.9,561.7 L724.6,561.7 L725.3,561.7 L726.0,561.7    L726.8,561.8 L727.5,561.8 L728.2,561.8 L728.9,561.8 L729.6,561.8 L730.3,561.9 L731.0,561.9 L731.7,561.9    L732.4,561.9 L733.1,561.9 L733.8,561.9 L734.6,562.0 L735.3,562.0 L736.0,562.0 L736.7,562.0 L737.4,562.0    L738.1,562.0 L738.8,562.0 L739.5,562.1 L740.2,562.1 L740.9,562.1 L741.6,562.1 L742.3,562.1 L743.1,562.1    L743.8,562.2 L744.5,562.2 L745.2,562.2 L745.9,562.2 L746.6,562.2 L747.3,562.2 L748.0,562.2 L748.7,562.3    L749.4,562.3 L750.1,562.3 L750.9,562.3 L751.6,562.3 L752.3,562.3 L753.0,562.3 L753.7,562.3 L754.4,562.4    L755.1,562.4 L755.8,562.4 L756.5,562.4 L757.2,562.4 L757.9,562.4 L758.6,562.4 L759.4,562.4 L760.1,562.5    L760.8,562.5 L761.5,562.5 L762.2,562.5 L762.9,562.5 L763.6,562.5 L764.3,562.5 L765.0,562.5 L765.7,562.6    L766.4,562.6 L767.2,562.6 L767.9,562.6 L768.6,562.6 L769.3,562.6 L770.0,562.6 L770.7,562.6 L771.4,562.6    L772.1,562.7 L772.8,562.7 L773.5,562.7 L774.2,562.7 L774.9,562.7 L775.7,562.7 L776.4,562.7 L777.1,562.7    L777.8,562.7 L778.5,562.7 L779.2,562.8 "
       id="path3381" />
  </g>
  <g
     style="fill:none; color:cyan; stroke:currentColor; stroke-width:1.00; stroke-linecap:butt; stroke-linejoin:miter"
     id="g3383" />
  <g
     style="fill:none; color:black; stroke:currentColor; stroke-width:1.00; stroke-linecap:butt; stroke-linejoin:miter"
     id="g3385">
    <g
       transform="translate(646.4,93.1)"
       style="stroke:none; fill:black; font-family:Arial; font-size:12.00pt; text-anchor:start"
       id="g3387">
      <text
         id="text3389">k = 5, θ = 1.0</text>
    </g>
  </g>
  <g
     style="fill:none; color:cyan; stroke:currentColor; stroke-width:1.00; stroke-linecap:butt; stroke-linejoin:miter"
     id="g3391">
    <path
       d="M595.9,88.6 L638.1,88.6 M70.5,564.0 L71.2,564.0 L71.9,564.0 L72.6,564.0 L73.3,564.0 L74.0,564.0    L74.8,564.0 L75.5,564.0 L76.2,564.0 L76.9,564.0 L77.6,563.9 L78.3,563.9 L79.0,563.9 L79.7,563.8    L80.4,563.8 L81.1,563.7 L81.8,563.7 L82.5,563.6 L83.3,563.5 L84.0,563.3 L84.7,563.2 L85.4,563.1    L86.1,562.9 L86.8,562.7 L87.5,562.5 L88.2,562.3 L88.9,562.0 L89.6,561.7 L90.3,561.4 L91.1,561.1    L91.8,560.8 L92.5,560.4 L93.2,560.0 L93.9,559.5 L94.6,559.1 L95.3,558.6 L96.0,558.0 L96.7,557.5    L97.4,556.9 L98.1,556.3 L98.8,555.6 L99.6,554.9 L100.3,554.2 L101.0,553.4 L101.7,552.7 L102.4,551.8    L103.1,551.0 L103.8,550.1 L104.5,549.2 L105.2,548.2 L105.9,547.2 L106.6,546.2 L107.4,545.1 L108.1,544.0    L108.8,542.9 L109.5,541.8 L110.2,540.6 L110.9,539.4 L111.6,538.1 L112.3,536.8 L113.0,535.5 L113.7,534.2    L114.4,532.8 L115.1,531.4 L115.9,530.0 L116.6,528.5 L117.3,527.0 L118.0,525.5 L118.7,523.9 L119.4,522.4    L120.1,520.8 L120.8,519.2 L121.5,517.5 L122.2,515.9 L122.9,514.2 L123.7,512.5 L124.4,510.7 L125.1,509.0    L125.8,507.2 L126.5,505.4 L127.2,503.6 L127.9,501.8 L128.6,500.0 L129.3,498.1 L130.0,496.3 L130.7,494.4    L131.4,492.5 L132.2,490.6 L132.9,488.7 L133.6,486.8 L134.3,484.8 L135.0,482.9 L135.7,481.0 L136.4,479.0    L137.1,477.0 L137.8,475.1 L138.5,473.1 L139.2,471.1 L140.0,469.2 L140.7,467.2 L141.4,465.2 L142.1,463.2    L142.8,461.3 L143.5,459.3 L144.2,457.3 L144.9,455.4 L145.6,453.4 L146.3,451.4 L147.0,449.5 L147.7,447.5    L148.5,445.6 L149.2,443.7 L149.9,441.7 L150.6,439.8 L151.3,437.9 L152.0,436.0 L152.7,434.1 L153.4,432.3    L154.1,430.4 L154.8,428.5 L155.5,426.7 L156.3,424.9 L157.0,423.1 L157.7,421.3 L158.4,419.5 L159.1,417.7    L159.8,416.0 L160.5,414.3 L161.2,412.5 L161.9,410.8 L162.6,409.2 L163.3,407.5 L164.0,405.9 L164.8,404.3    L165.5,402.7 L166.2,401.1 L166.9,399.5 L167.6,398.0 L168.3,396.5 L169.0,395.0 L169.7,393.5 L170.4,392.0    L171.1,390.6 L171.8,389.2 L172.6,387.8 L173.3,386.5 L174.0,385.1 L174.7,383.8 L175.4,382.5 L176.1,381.3    L176.8,380.0 L177.5,378.8 L178.2,377.6 L178.9,376.5 L179.6,375.3 L180.3,374.2 L181.1,373.1 L181.8,372.1    L182.5,371.0 L183.2,370.0 L183.9,369.0 L184.6,368.1 L185.3,367.1 L186.0,366.2 L186.7,365.3 L187.4,364.5    L188.1,363.6 L188.9,362.8 L189.6,362.0 L190.3,361.3 L191.0,360.6 L191.7,359.9 L192.4,359.2 L193.1,358.5    L193.8,357.9 L194.5,357.3 L195.2,356.7 L195.9,356.2 L196.6,355.6 L197.4,355.1 L198.1,354.6 L198.8,354.2    L199.5,353.8 L200.2,353.4 L200.9,353.0 L201.6,352.6 L202.3,352.3 L203.0,352.0 L203.7,351.7 L204.4,351.5    L205.2,351.2 L205.9,351.0 L206.6,350.8 L207.3,350.6 L208.0,350.5 L208.7,350.4 L209.4,350.3 L210.1,350.2    L210.8,350.2 L211.5,350.1 L212.2,350.1 L212.9,350.1 L213.7,350.2 L214.4,350.2 L215.1,350.3 L215.8,350.4    L216.5,350.5 L217.2,350.6 L217.9,350.8 L218.6,351.0 L219.3,351.1 L220.0,351.4 L220.7,351.6 L221.5,351.8    L222.2,352.1 L222.9,352.4 L223.6,352.7 L224.3,353.0 L225.0,353.4 L225.7,353.7 L226.4,354.1 L227.1,354.5    L227.8,354.9 L228.5,355.3 L229.2,355.7 L230.0,356.2 L230.7,356.7 L231.4,357.2 L232.1,357.7 L232.8,358.2    L233.5,358.7 L234.2,359.2 L234.9,359.8 L235.6,360.4 L236.3,360.9 L237.0,361.5 L237.8,362.2 L238.5,362.8    L239.2,363.4 L239.9,364.1 L240.6,364.7 L241.3,365.4 L242.0,366.1 L242.7,366.8 L243.4,367.5 L244.1,368.2    L244.8,368.9 L245.5,369.6 L246.3,370.4 L247.0,371.1 L247.7,371.9 L248.4,372.7 L249.1,373.5 L249.8,374.2    L250.5,375.0 L251.2,375.9 L251.9,376.7 L252.6,377.5 L253.3,378.3 L254.1,379.2 L254.8,380.0 L255.5,380.9    L256.2,381.7 L256.9,382.6 L257.6,383.5 L258.3,384.3 L259.0,385.2 L259.7,386.1 L260.4,387.0 L261.1,387.9    L261.8,388.8 L262.6,389.7 L263.3,390.6 L264.0,391.6 L264.7,392.5 L265.4,393.4 L266.1,394.3 L266.8,395.3    L267.5,396.2 L268.2,397.2 L268.9,398.1 L269.6,399.1 L270.4,400.0 L271.1,401.0 L271.8,401.9 L272.5,402.9    L273.2,403.8 L273.9,404.8 L274.6,405.8 L275.3,406.7 L276.0,407.7 L276.7,408.7 L277.4,409.7 L278.1,410.6    L278.9,411.6 L279.6,412.6 L280.3,413.6 L281.0,414.5 L281.7,415.5 L282.4,416.5 L283.1,417.5 L283.8,418.4    L284.5,419.4 L285.2,420.4 L285.9,421.4 L286.7,422.3 L287.4,423.3 L288.1,424.3 L288.8,425.3 L289.5,426.2    L290.2,427.2 L290.9,428.2 L291.6,429.1 L292.3,430.1 L293.0,431.1 L293.7,432.0 L294.4,433.0 L295.2,434.0    L295.9,434.9 L296.6,435.9 L297.3,436.8 L298.0,437.8 L298.7,438.7 L299.4,439.7 L300.1,440.6 L300.8,441.6    L301.5,442.5 L302.2,443.5 L303.0,444.4 L303.7,445.3 L304.4,446.3 L305.1,447.2 L305.8,448.1 L306.5,449.0    L307.2,449.9 L307.9,450.9 L308.6,451.8 L309.3,452.7 L310.0,453.6 L310.7,454.5 L311.5,455.4 L312.2,456.3    L312.9,457.2 L313.6,458.0 L314.3,458.9 L315.0,459.8 L315.7,460.7 L316.4,461.5 L317.1,462.4 L317.8,463.3    L318.5,464.1 L319.3,465.0 L320.0,465.8 L320.7,466.7 L321.4,467.5 L322.1,468.4 L322.8,469.2 L323.5,470.0    L324.2,470.8 L324.9,471.7 L325.6,472.5 L326.3,473.3 L327.0,474.1 L327.8,474.9 L328.5,475.7 L329.2,476.5    L329.9,477.3 L330.6,478.1 L331.3,478.8 L332.0,479.6 L332.7,480.4 L333.4,481.2 L334.1,481.9 L334.8,482.7    L335.6,483.4 L336.3,484.2 L337.0,484.9 L337.7,485.7 L338.4,486.4 L339.1,487.1 L339.8,487.8 L340.5,488.6    L341.2,489.3 L341.9,490.0 L342.6,490.7 L343.3,491.4 L344.1,492.1 L344.8,492.8 L345.5,493.5 L346.2,494.1    L346.9,494.8 L347.6,495.5 L348.3,496.2 L349.0,496.8 L349.7,497.5 L350.4,498.1 L351.1,498.8 L351.9,499.4    L352.6,500.1 L353.3,500.7 L354.0,501.3 L354.7,501.9 L355.4,502.6 L356.1,503.2 L356.8,503.8 L357.5,504.4    L358.2,505.0 L358.9,505.6 L359.6,506.2 L360.4,506.8 L361.1,507.4 L361.8,507.9 L362.5,508.5 L363.2,509.1    L363.9,509.6 L364.6,510.2 L365.3,510.8 L366.0,511.3 L366.7,511.9 L367.4,512.4 L368.2,512.9 L368.9,513.5    L369.6,514.0 L370.3,514.5 L371.0,515.0 L371.7,515.5 L372.4,516.1 L373.1,516.6 L373.8,517.1 L374.5,517.6    L375.2,518.1 L375.9,518.5 L376.7,519.0 L377.4,519.5 L378.1,520.0 L378.8,520.5 L379.5,520.9 L380.2,521.4    L380.9,521.9 L381.6,522.3 L382.3,522.8 L383.0,523.2 L383.7,523.7 L384.5,524.1 L385.2,524.5 L385.9,525.0    L386.6,525.4 L387.3,525.8 L388.0,526.2 L388.7,526.7 L389.4,527.1 L390.1,527.5 L390.8,527.9 L391.5,528.3    L392.2,528.7 L393.0,529.1 L393.7,529.5 L394.4,529.8 L395.1,530.2 L395.8,530.6 L396.5,531.0 L397.2,531.4    L397.9,531.7 L398.6,532.1 L399.3,532.4 L400.0,532.8 L400.8,533.2 L401.5,533.5 L402.2,533.9 L402.9,534.2    L403.6,534.5 L404.3,534.9 L405.0,535.2 L405.7,535.5 L406.4,535.9 L407.1,536.2 L407.8,536.5 L408.5,536.8    L409.3,537.1 L410.0,537.5 L410.7,537.8 L411.4,538.1 L412.1,538.4 L412.8,538.7 L413.5,539.0 L414.2,539.3    L414.9,539.5 L415.6,539.8 L416.3,540.1 L417.1,540.4 L417.8,540.7 L418.5,540.9 L419.2,541.2 L419.9,541.5    L420.6,541.8 L421.3,542.0 L422.0,542.3 L422.7,542.5 L423.4,542.8 L424.1,543.0 L424.9,543.3 L425.6,543.5    L426.3,543.8 L427.0,544.0 L427.7,544.3 L428.4,544.5 L429.1,544.7 L429.8,545.0 L430.5,545.2 L431.2,545.4    L431.9,545.6 L432.6,545.9 L433.4,546.1 L434.1,546.3 L434.8,546.5 L435.5,546.7 L436.2,546.9 L436.9,547.1    L437.6,547.4 L438.3,547.6 L439.0,547.8 L439.7,548.0 L440.4,548.2 L441.2,548.3 L441.9,548.5 L442.6,548.7    L443.3,548.9 L444.0,549.1 L444.7,549.3 L445.4,549.5 L446.1,549.7 L446.8,549.8 L447.5,550.0 L448.2,550.2    L448.9,550.3 L449.7,550.5 L450.4,550.7 L451.1,550.9 L451.8,551.0 L452.5,551.2 L453.2,551.3 L453.9,551.5    L454.6,551.7 L455.3,551.8 L456.0,552.0 L456.7,552.1 L457.5,552.3 L458.2,552.4 L458.9,552.6 L459.6,552.7    L460.3,552.8 L461.0,553.0 L461.7,553.1 L462.4,553.3 L463.1,553.4 L463.8,553.5 L464.5,553.7 L465.2,553.8    L466.0,553.9 L466.7,554.1 L467.4,554.2 L468.1,554.3 L468.8,554.4 L469.5,554.6 L470.2,554.7 L470.9,554.8    L471.6,554.9 L472.3,555.0 L473.0,555.1 L473.8,555.3 L474.5,555.4 L475.2,555.5 L475.9,555.6 L476.6,555.7    L477.3,555.8 L478.0,555.9 L478.7,556.0 L479.4,556.1 L480.1,556.2 L480.8,556.3 L481.5,556.4 L482.3,556.5    L483.0,556.6 L483.7,556.7 L484.4,556.8 L485.1,556.9 L485.8,557.0 L486.5,557.1 L487.2,557.2 L487.9,557.3    L488.6,557.4 L489.3,557.5 L490.1,557.5 L490.8,557.6 L491.5,557.7 L492.2,557.8 L492.9,557.9 L493.6,558.0    L494.3,558.0 L495.0,558.1 L495.7,558.2 L496.4,558.3 L497.1,558.3 L497.8,558.4 L498.6,558.5 L499.3,558.6    L500.0,558.6 L500.7,558.7 L501.4,558.8 L502.1,558.8 L502.8,558.9 L503.5,559.0 L504.2,559.1 L504.9,559.1    L505.6,559.2 L506.4,559.2 L507.1,559.3 L507.8,559.4 L508.5,559.4 L509.2,559.5 L509.9,559.6 L510.6,559.6    L511.3,559.7 L512.0,559.7 L512.7,559.8 L513.4,559.8 L514.1,559.9 L514.9,560.0 L515.6,560.0 L516.3,560.1    L517.0,560.1 L517.7,560.2 L518.4,560.2 L519.1,560.3 L519.8,560.3 L520.5,560.4 L521.2,560.4 L521.9,560.5    L522.7,560.5 L523.4,560.6 L524.1,560.6 L524.8,560.7 L525.5,560.7 L526.2,560.8 L526.9,560.8 L527.6,560.8    L528.3,560.9 L529.0,560.9 L529.7,561.0 L530.4,561.0 L531.2,561.1 L531.9,561.1 L532.6,561.1 L533.3,561.2    L534.0,561.2 L534.7,561.3 L535.4,561.3 L536.1,561.3 L536.8,561.4 L537.5,561.4 L538.2,561.4 L539.0,561.5    L539.7,561.5 L540.4,561.5 L541.1,561.6 L541.8,561.6 L542.5,561.6 L543.2,561.7 L543.9,561.7 L544.6,561.7    L545.3,561.8 L546.0,561.8 L546.7,561.8 L547.5,561.9 L548.2,561.9 L548.9,561.9 L549.6,562.0 L550.3,562.0    L551.0,562.0 L551.7,562.0 L552.4,562.1 L553.1,562.1 L553.8,562.1 L554.5,562.1 L555.3,562.2 L556.0,562.2    L556.7,562.2 L557.4,562.2 L558.1,562.3 L558.8,562.3 L559.5,562.3 L560.2,562.3 L560.9,562.4 L561.6,562.4    L562.3,562.4 L563.0,562.4 L563.8,562.5 L564.5,562.5 L565.2,562.5 L565.9,562.5 L566.6,562.5 L567.3,562.6    L568.0,562.6 L568.7,562.6 L569.4,562.6 L570.1,562.6 L570.8,562.7 L571.6,562.7 L572.3,562.7 L573.0,562.7    L573.7,562.7 L574.4,562.8 L575.1,562.8 L575.8,562.8 L576.5,562.8 L577.2,562.8 L577.9,562.8 L578.6,562.9    L579.3,562.9 L580.1,562.9 L580.8,562.9 L581.5,562.9 L582.2,562.9 L582.9,563.0 L583.6,563.0 L584.3,563.0    L585.0,563.0 L585.7,563.0 L586.4,563.0 L587.1,563.0 L587.9,563.1 L588.6,563.1 L589.3,563.1 L590.0,563.1    L590.7,563.1 L591.4,563.1 L592.1,563.1 L592.8,563.1 L593.5,563.2 L594.2,563.2 L594.9,563.2 L595.6,563.2    L596.4,563.2 L597.1,563.2 L597.8,563.2 L598.5,563.2 L599.2,563.3 L599.9,563.3 L600.6,563.3 L601.3,563.3    L602.0,563.3 L602.7,563.3 L603.4,563.3 L604.2,563.3 L604.9,563.3 L605.6,563.3 L606.3,563.4 L607.0,563.4    L607.7,563.4 L608.4,563.4 L609.1,563.4 L609.8,563.4 L610.5,563.4 L611.2,563.4 L611.9,563.4 L612.7,563.4    L613.4,563.4 L614.1,563.5 L614.8,563.5 L615.5,563.5 L616.2,563.5 L616.9,563.5 L617.6,563.5 L618.3,563.5    L619.0,563.5 L619.7,563.5 L620.5,563.5 L621.2,563.5 L621.9,563.5 L622.6,563.5 L623.3,563.5 L624.0,563.6    L624.7,563.6 L625.4,563.6 L626.1,563.6 L626.8,563.6 L627.5,563.6 L628.2,563.6 L629.0,563.6 L629.7,563.6    L630.4,563.6 L631.1,563.6 L631.8,563.6 L632.5,563.6 L633.2,563.6 L633.9,563.6 L634.6,563.6 L635.3,563.6    L636.0,563.7 L636.8,563.7 L637.5,563.7 L638.2,563.7 L638.9,563.7 L639.6,563.7 L640.3,563.7 L641.0,563.7    L641.7,563.7 L642.4,563.7 L643.1,563.7 L643.8,563.7 L644.5,563.7 L645.3,563.7 L646.0,563.7 L646.7,563.7    L647.4,563.7 L648.1,563.7 L648.8,563.7 L649.5,563.7 L650.2,563.7 L650.9,563.7 L651.6,563.8 L652.3,563.8    L653.1,563.8 L653.8,563.8 L654.5,563.8 L655.2,563.8 L655.9,563.8 L656.6,563.8 L657.3,563.8 L658.0,563.8    L658.7,563.8 L659.4,563.8 L660.1,563.8 L660.8,563.8 L661.6,563.8 L662.3,563.8 L663.0,563.8 L663.7,563.8    L664.4,563.8 L665.1,563.8 L665.8,563.8 L666.5,563.8 L667.2,563.8 L667.9,563.8 L668.6,563.8 L669.4,563.8    L670.1,563.8 L670.8,563.8 L671.5,563.8 L672.2,563.8 L672.9,563.8 L673.6,563.8 L674.3,563.8 L675.0,563.8    L675.7,563.9 L676.4,563.9 L677.1,563.9 L677.9,563.9 L678.6,563.9 L679.3,563.9 L680.0,563.9 L680.7,563.9    L681.4,563.9 L682.1,563.9 L682.8,563.9 L683.5,563.9 L684.2,563.9 L684.9,563.9 L685.7,563.9 L686.4,563.9    L687.1,563.9 L687.8,563.9 L688.5,563.9 L689.2,563.9 L689.9,563.9 L690.6,563.9 L691.3,563.9 L692.0,563.9    L692.7,563.9 L693.4,563.9 L694.2,563.9 L694.9,563.9 L695.6,563.9 L696.3,563.9 L697.0,563.9 L697.7,563.9    L698.4,563.9 L699.1,563.9 L699.8,563.9 L700.5,563.9 L701.2,563.9 L702.0,563.9 L702.7,563.9 L703.4,563.9    L704.1,563.9 L704.8,563.9 L705.5,563.9 L706.2,563.9 L706.9,563.9 L707.6,563.9 L708.3,563.9 L709.0,563.9    L709.7,563.9 L710.5,563.9 L711.2,563.9 L711.9,563.9 L712.6,563.9 L713.3,563.9 L714.0,563.9 L714.7,563.9    L715.4,563.9 L716.1,563.9 L716.8,563.9 L717.5,563.9 L718.3,563.9 L719.0,563.9 L719.7,563.9 L720.4,563.9    L721.1,563.9 L721.8,563.9 L722.5,563.9 L723.2,563.9 L723.9,563.9 L724.6,563.9 L725.3,563.9 L726.0,564.0    L726.8,564.0 L727.5,564.0 L728.2,564.0 L728.9,564.0 L729.6,564.0 L730.3,564.0 L731.0,564.0 L731.7,564.0    L732.4,564.0 L733.1,564.0 L733.8,564.0 L734.6,564.0 L735.3,564.0 L736.0,564.0 L736.7,564.0 L737.4,564.0    L738.1,564.0 L738.8,564.0 L739.5,564.0 L740.2,564.0 L740.9,564.0 L741.6,564.0 L742.3,564.0 L743.1,564.0    L743.8,564.0 L744.5,564.0 L745.2,564.0 L745.9,564.0 L746.6,564.0 L747.3,564.0 L748.0,564.0 L748.7,564.0    L749.4,564.0 L750.1,564.0 L750.9,564.0 L751.6,564.0 L752.3,564.0 L753.0,564.0 L753.7,564.0 L754.4,564.0    L755.1,564.0 L755.8,564.0 L756.5,564.0 L757.2,564.0 L757.9,564.0 L758.6,564.0 L759.4,564.0 L760.1,564.0    L760.8,564.0 L761.5,564.0 L762.2,564.0 L762.9,564.0 L763.6,564.0 L764.3,564.0 L765.0,564.0 L765.7,564.0    L766.4,564.0 L767.2,564.0 L767.9,564.0 L768.6,564.0 L769.3,564.0 L770.0,564.0 L770.7,564.0 L771.4,564.0    L772.1,564.0 L772.8,564.0 L773.5,564.0 L774.2,564.0 L774.9,564.0 L775.7,564.0 L776.4,564.0 L777.1,564.0    L777.8,564.0 L778.5,564.0 L779.2,564.0 "
       id="path3393" />
  </g>
  <g
     style="fill:none; color:#FF9900; stroke:currentColor; stroke-width:1.00; stroke-linecap:butt; stroke-linejoin:miter"
     id="g3395" />
  <g
     style="fill:none; color:black; stroke:currentColor; stroke-width:1.00; stroke-linecap:butt; stroke-linejoin:miter"
     id="g3397">
    <g
       transform="translate(646.4,111.1)"
       style="stroke:none; fill:black; font-family:Arial; font-size:12.00pt; text-anchor:start"
       id="g3399">
      <text
         id="text3401">k = 9, θ = 0.5</text>
    </g>
  </g>
  <g
     style="fill:none; color:#FF9900; stroke:currentColor; stroke-width:1.00; stroke-linecap:butt; stroke-linejoin:miter"
     id="g3403">
    <path
       d="M595.9,106.6 L638.1,106.6 M70.5,564.0 L71.2,564.0 L71.9,564.0 L72.6,564.0 L73.3,564.0 L74.0,564.0    L74.8,564.0 L75.5,564.0 L76.2,564.0 L76.9,564.0 L77.6,564.0 L78.3,564.0 L79.0,564.0 L79.7,564.0    L80.4,564.0 L81.1,564.0 L81.8,564.0 L82.5,564.0 L83.3,564.0 L84.0,564.0 L84.7,564.0 L85.4,564.0    L86.1,564.0 L86.8,564.0 L87.5,564.0 L88.2,564.0 L88.9,564.0 L89.6,564.0 L90.3,564.0 L91.1,563.9    L91.8,563.9 L92.5,563.9 L93.2,563.9 L93.9,563.9 L94.6,563.8 L95.3,563.8 L96.0,563.8 L96.7,563.7    L97.4,563.7 L98.1,563.6 L98.8,563.5 L99.6,563.4 L100.3,563.4 L101.0,563.3 L101.7,563.1 L102.4,563.0    L103.1,562.9 L103.8,562.7 L104.5,562.5 L105.2,562.3 L105.9,562.1 L106.6,561.9 L107.4,561.6 L108.1,561.3    L108.8,561.0 L109.5,560.7 L110.2,560.3 L110.9,559.9 L111.6,559.5 L112.3,559.1 L113.0,558.6 L113.7,558.1    L114.4,557.5 L115.1,556.9 L115.9,556.3 L116.6,555.6 L117.3,554.9 L118.0,554.1 L118.7,553.3 L119.4,552.4    L120.1,551.5 L120.8,550.6 L121.5,549.6 L122.2,548.5 L122.9,547.4 L123.7,546.3 L124.4,545.1 L125.1,543.8    L125.8,542.5 L126.5,541.1 L127.2,539.7 L127.9,538.2 L128.6,536.6 L129.3,535.0 L130.0,533.4 L130.7,531.6    L131.4,529.9 L132.2,528.0 L132.9,526.1 L133.6,524.2 L134.3,522.1 L135.0,520.1 L135.7,517.9 L136.4,515.7    L137.1,513.5 L137.8,511.2 L138.5,508.8 L139.2,506.4 L140.0,503.9 L140.7,501.4 L141.4,498.8 L142.1,496.2    L142.8,493.5 L143.5,490.8 L144.2,488.0 L144.9,485.1 L145.6,482.3 L146.3,479.4 L147.0,476.4 L147.7,473.4    L148.5,470.3 L149.2,467.3 L149.9,464.1 L150.6,461.0 L151.3,457.8 L152.0,454.6 L152.7,451.3 L153.4,448.0    L154.1,444.7 L154.8,441.4 L155.5,438.1 L156.3,434.7 L157.0,431.3 L157.7,427.9 L158.4,424.5 L159.1,421.1    L159.8,417.6 L160.5,414.2 L161.2,410.7 L161.9,407.3 L162.6,403.8 L163.3,400.4 L164.0,397.0 L164.8,393.5    L165.5,390.1 L166.2,386.7 L166.9,383.3 L167.6,379.9 L168.3,376.5 L169.0,373.1 L169.7,369.8 L170.4,366.5    L171.1,363.2 L171.8,359.9 L172.6,356.7 L173.3,353.4 L174.0,350.3 L174.7,347.1 L175.4,344.0 L176.1,340.9    L176.8,337.9 L177.5,334.9 L178.2,332.0 L178.9,329.1 L179.6,326.2 L180.3,323.4 L181.1,320.6 L181.8,317.9    L182.5,315.2 L183.2,312.6 L183.9,310.0 L184.6,307.5 L185.3,305.0 L186.0,302.6 L186.7,300.3 L187.4,298.0    L188.1,295.8 L188.9,293.6 L189.6,291.5 L190.3,289.5 L191.0,287.5 L191.7,285.6 L192.4,283.7 L193.1,281.9    L193.8,280.2 L194.5,278.5 L195.2,276.9 L195.9,275.4 L196.6,273.9 L197.4,272.5 L198.1,271.2 L198.8,269.9    L199.5,268.7 L200.2,267.6 L200.9,266.5 L201.6,265.5 L202.3,264.6 L203.0,263.7 L203.7,262.9 L204.4,262.2    L205.2,261.5 L205.9,260.9 L206.6,260.4 L207.3,259.9 L208.0,259.5 L208.7,259.1 L209.4,258.9 L210.1,258.6    L210.8,258.5 L211.5,258.4 L212.2,258.4 L212.9,258.4 L213.7,258.5 L214.4,258.6 L215.1,258.8 L215.8,259.1    L216.5,259.4 L217.2,259.8 L217.9,260.3 L218.6,260.8 L219.3,261.3 L220.0,261.9 L220.7,262.6 L221.5,263.3    L222.2,264.0 L222.9,264.8 L223.6,265.7 L224.3,266.6 L225.0,267.6 L225.7,268.6 L226.4,269.6 L227.1,270.7    L227.8,271.8 L228.5,273.0 L229.2,274.2 L230.0,275.5 L230.7,276.8 L231.4,278.2 L232.1,279.5 L232.8,280.9    L233.5,282.4 L234.2,283.9 L234.9,285.4 L235.6,287.0 L236.3,288.5 L237.0,290.2 L237.8,291.8 L238.5,293.5    L239.2,295.2 L239.9,296.9 L240.6,298.7 L241.3,300.5 L242.0,302.3 L242.7,304.1 L243.4,305.9 L244.1,307.8    L244.8,309.7 L245.5,311.6 L246.3,313.5 L247.0,315.5 L247.7,317.5 L248.4,319.4 L249.1,321.4 L249.8,323.4    L250.5,325.5 L251.2,327.5 L251.9,329.5 L252.6,331.6 L253.3,333.7 L254.1,335.7 L254.8,337.8 L255.5,339.9    L256.2,342.0 L256.9,344.1 L257.6,346.2 L258.3,348.3 L259.0,350.5 L259.7,352.6 L260.4,354.7 L261.1,356.8    L261.8,359.0 L262.6,361.1 L263.3,363.2 L264.0,365.3 L264.7,367.5 L265.4,369.6 L266.1,371.7 L266.8,373.8    L267.5,375.9 L268.2,378.0 L268.9,380.1 L269.6,382.2 L270.4,384.3 L271.1,386.4 L271.8,388.5 L272.5,390.6    L273.2,392.6 L273.9,394.7 L274.6,396.7 L275.3,398.8 L276.0,400.8 L276.7,402.8 L277.4,404.8 L278.1,406.8    L278.9,408.8 L279.6,410.8 L280.3,412.8 L281.0,414.7 L281.7,416.7 L282.4,418.6 L283.1,420.5 L283.8,422.4    L284.5,424.3 L285.2,426.2 L285.9,428.1 L286.7,429.9 L287.4,431.8 L288.1,433.6 L288.8,435.4 L289.5,437.2    L290.2,439.0 L290.9,440.8 L291.6,442.5 L292.3,444.2 L293.0,446.0 L293.7,447.7 L294.4,449.4 L295.2,451.0    L295.9,452.7 L296.6,454.3 L297.3,456.0 L298.0,457.6 L298.7,459.2 L299.4,460.8 L300.1,462.3 L300.8,463.9    L301.5,465.4 L302.2,466.9 L303.0,468.4 L303.7,469.9 L304.4,471.4 L305.1,472.8 L305.8,474.3 L306.5,475.7    L307.2,477.1 L307.9,478.5 L308.6,479.8 L309.3,481.2 L310.0,482.5 L310.7,483.9 L311.5,485.2 L312.2,486.4    L312.9,487.7 L313.6,489.0 L314.3,490.2 L315.0,491.5 L315.7,492.7 L316.4,493.9 L317.1,495.0 L317.8,496.2    L318.5,497.4 L319.3,498.5 L320.0,499.6 L320.7,500.7 L321.4,501.8 L322.1,502.9 L322.8,503.9 L323.5,505.0    L324.2,506.0 L324.9,507.0 L325.6,508.0 L326.3,509.0 L327.0,510.0 L327.8,511.0 L328.5,511.9 L329.2,512.8    L329.9,513.8 L330.6,514.7 L331.3,515.6 L332.0,516.4 L332.7,517.3 L333.4,518.1 L334.1,519.0 L334.8,519.8    L335.6,520.6 L336.3,521.4 L337.0,522.2 L337.7,523.0 L338.4,523.8 L339.1,524.5 L339.8,525.2 L340.5,526.0    L341.2,526.7 L341.9,527.4 L342.6,528.1 L343.3,528.8 L344.1,529.4 L344.8,530.1 L345.5,530.8 L346.2,531.4    L346.9,532.0 L347.6,532.6 L348.3,533.2 L349.0,533.8 L349.7,534.4 L350.4,535.0 L351.1,535.6 L351.9,536.1    L352.6,536.7 L353.3,537.2 L354.0,537.8 L354.7,538.3 L355.4,538.8 L356.1,539.3 L356.8,539.8 L357.5,540.3    L358.2,540.7 L358.9,541.2 L359.6,541.7 L360.4,542.1 L361.1,542.6 L361.8,543.0 L362.5,543.4 L363.2,543.8    L363.9,544.3 L364.6,544.7 L365.3,545.1 L366.0,545.4 L366.7,545.8 L367.4,546.2 L368.2,546.6 L368.9,546.9    L369.6,547.3 L370.3,547.6 L371.0,548.0 L371.7,548.3 L372.4,548.6 L373.1,549.0 L373.8,549.3 L374.5,549.6    L375.2,549.9 L375.9,550.2 L376.7,550.5 L377.4,550.8 L378.1,551.1 L378.8,551.3 L379.5,551.6 L380.2,551.9    L380.9,552.1 L381.6,552.4 L382.3,552.6 L383.0,552.9 L383.7,553.1 L384.5,553.4 L385.2,553.6 L385.9,553.8    L386.6,554.0 L387.3,554.3 L388.0,554.5 L388.7,554.7 L389.4,554.9 L390.1,555.1 L390.8,555.3 L391.5,555.5    L392.2,555.7 L393.0,555.8 L393.7,556.0 L394.4,556.2 L395.1,556.4 L395.8,556.5 L396.5,556.7 L397.2,556.9    L397.9,557.0 L398.6,557.2 L399.3,557.3 L400.0,557.5 L400.8,557.6 L401.5,557.8 L402.2,557.9 L402.9,558.1    L403.6,558.2 L404.3,558.3 L405.0,558.5 L405.7,558.6 L406.4,558.7 L407.1,558.8 L407.8,559.0 L408.5,559.1    L409.3,559.2 L410.0,559.3 L410.7,559.4 L411.4,559.5 L412.1,559.6 L412.8,559.7 L413.5,559.8 L414.2,559.9    L414.9,560.0 L415.6,560.1 L416.3,560.2 L417.1,560.3 L417.8,560.4 L418.5,560.4 L419.2,560.5 L419.9,560.6    L420.6,560.7 L421.3,560.8 L422.0,560.8 L422.7,560.9 L423.4,561.0 L424.1,561.1 L424.9,561.1 L425.6,561.2    L426.3,561.3 L427.0,561.3 L427.7,561.4 L428.4,561.5 L429.1,561.5 L429.8,561.6 L430.5,561.6 L431.2,561.7    L431.9,561.7 L432.6,561.8 L433.4,561.9 L434.1,561.9 L434.8,562.0 L435.5,562.0 L436.2,562.1 L436.9,562.1    L437.6,562.1 L438.3,562.2 L439.0,562.2 L439.7,562.3 L440.4,562.3 L441.2,562.4 L441.9,562.4 L442.6,562.4    L443.3,562.5 L444.0,562.5 L444.7,562.6 L445.4,562.6 L446.1,562.6 L446.8,562.7 L447.5,562.7 L448.2,562.7    L448.9,562.8 L449.7,562.8 L450.4,562.8 L451.1,562.8 L451.8,562.9 L452.5,562.9 L453.2,562.9 L453.9,563.0    L454.6,563.0 L455.3,563.0 L456.0,563.0 L456.7,563.1 L457.5,563.1 L458.2,563.1 L458.9,563.1 L459.6,563.1    L460.3,563.2 L461.0,563.2 L461.7,563.2 L462.4,563.2 L463.1,563.2 L463.8,563.3 L464.5,563.3 L465.2,563.3    L466.0,563.3 L466.7,563.3 L467.4,563.4 L468.1,563.4 L468.8,563.4 L469.5,563.4 L470.2,563.4 L470.9,563.4    L471.6,563.4 L472.3,563.5 L473.0,563.5 L473.8,563.5 L474.5,563.5 L475.2,563.5 L475.9,563.5 L476.6,563.5    L477.3,563.6 L478.0,563.6 L478.7,563.6 L479.4,563.6 L480.1,563.6 L480.8,563.6 L481.5,563.6 L482.3,563.6    L483.0,563.6 L483.7,563.6 L484.4,563.7 L485.1,563.7 L485.8,563.7 L486.5,563.7 L487.2,563.7 L487.9,563.7    L488.6,563.7 L489.3,563.7 L490.1,563.7 L490.8,563.7 L491.5,563.7 L492.2,563.7 L492.9,563.7 L493.6,563.8    L494.3,563.8 L495.0,563.8 L495.7,563.8 L496.4,563.8 L497.1,563.8 L497.8,563.8 L498.6,563.8 L499.3,563.8    L500.0,563.8 L500.7,563.8 L501.4,563.8 L502.1,563.8 L502.8,563.8 L503.5,563.8 L504.2,563.8 L504.9,563.8    L505.6,563.8 L506.4,563.8 L507.1,563.9 L507.8,563.9 L508.5,563.9 L509.2,563.9 L509.9,563.9 L510.6,563.9    L511.3,563.9 L512.0,563.9 L512.7,563.9 L513.4,563.9 L514.1,563.9 L514.9,563.9 L515.6,563.9 L516.3,563.9    L517.0,563.9 L517.7,563.9 L518.4,563.9 L519.1,563.9 L519.8,563.9 L520.5,563.9 L521.2,563.9 L521.9,563.9    L522.7,563.9 L523.4,563.9 L524.1,563.9 L524.8,563.9 L525.5,563.9 L526.2,563.9 L526.9,563.9 L527.6,563.9    L528.3,563.9 L529.0,563.9 L529.7,563.9 L530.4,563.9 L531.2,563.9 L531.9,563.9 L532.6,563.9 L533.3,563.9    L534.0,563.9 L534.7,563.9 L535.4,564.0 L536.1,564.0 L536.8,564.0 L537.5,564.0 L538.2,564.0 L539.0,564.0    L539.7,564.0 L540.4,564.0 L541.1,564.0 L541.8,564.0 L542.5,564.0 L543.2,564.0 L543.9,564.0 L544.6,564.0    L545.3,564.0 L546.0,564.0 L546.7,564.0 L547.5,564.0 L548.2,564.0 L548.9,564.0 L549.6,564.0 L550.3,564.0    L551.0,564.0 L551.7,564.0 L552.4,564.0 L553.1,564.0 L553.8,564.0 L554.5,564.0 L555.3,564.0 L556.0,564.0    L556.7,564.0 L557.4,564.0 L558.1,564.0 L558.8,564.0 L559.5,564.0 L560.2,564.0 L560.9,564.0 L561.6,564.0    L562.3,564.0 L563.0,564.0 L563.8,564.0 L564.5,564.0 L565.2,564.0 L565.9,564.0 L566.6,564.0 L567.3,564.0    L568.0,564.0 L568.7,564.0 L569.4,564.0 L570.1,564.0 L570.8,564.0 L571.6,564.0 L572.3,564.0 L573.0,564.0    L573.7,564.0 L574.4,564.0 L575.1,564.0 L575.8,564.0 L576.5,564.0 L577.2,564.0 L577.9,564.0 L578.6,564.0    L579.3,564.0 L580.1,564.0 L580.8,564.0 L581.5,564.0 L582.2,564.0 L582.9,564.0 L583.6,564.0 L584.3,564.0    L585.0,564.0 L585.7,564.0 L586.4,564.0 L587.1,564.0 L587.9,564.0 L588.6,564.0 L589.3,564.0 L590.0,564.0    L590.7,564.0 L591.4,564.0 L592.1,564.0 L592.8,564.0 L593.5,564.0 L594.2,564.0 L594.9,564.0 L595.6,564.0    L596.4,564.0 L597.1,564.0 L597.8,564.0 L598.5,564.0 L599.2,564.0 L599.9,564.0 L600.6,564.0 L601.3,564.0    L602.0,564.0 L602.7,564.0 L603.4,564.0 L604.2,564.0 L604.9,564.0 L605.6,564.0 L606.3,564.0 L607.0,564.0    L607.7,564.0 L608.4,564.0 L609.1,564.0 L609.8,564.0 L610.5,564.0 L611.2,564.0 L611.9,564.0 L612.7,564.0    L613.4,564.0 L614.1,564.0 L614.8,564.0 L615.5,564.0 L616.2,564.0 L616.9,564.0 L617.6,564.0 L618.3,564.0    L619.0,564.0 L619.7,564.0 L620.5,564.0 L621.2,564.0 L621.9,564.0 L622.6,564.0 L623.3,564.0 L624.0,564.0    L624.7,564.0 L625.4,564.0 L626.1,564.0 L626.8,564.0 L627.5,564.0 L628.2,564.0 L629.0,564.0 L629.7,564.0    L630.4,564.0 L631.1,564.0 L631.8,564.0 L632.5,564.0 L633.2,564.0 L633.9,564.0 L634.6,564.0 L635.3,564.0    L636.0,564.0 L636.8,564.0 L637.5,564.0 L638.2,564.0 L638.9,564.0 L639.6,564.0 L640.3,564.0 L641.0,564.0    L641.7,564.0 L642.4,564.0 L643.1,564.0 L643.8,564.0 L644.5,564.0 L645.3,564.0 L646.0,564.0 L646.7,564.0    L647.4,564.0 L648.1,564.0 L648.8,564.0 L649.5,564.0 L650.2,564.0 L650.9,564.0 L651.6,564.0 L652.3,564.0    L653.1,564.0 L653.8,564.0 L654.5,564.0 L655.2,564.0 L655.9,564.0 L656.6,564.0 L657.3,564.0 L658.0,564.0    L658.7,564.0 L659.4,564.0 L660.1,564.0 L660.8,564.0 L661.6,564.0 L662.3,564.0 L663.0,564.0 L663.7,564.0    L664.4,564.0 L665.1,564.0 L665.8,564.0 L666.5,564.0 L667.2,564.0 L667.9,564.0 L668.6,564.0 L669.4,564.0    L670.1,564.0 L670.8,564.0 L671.5,564.0 L672.2,564.0 L672.9,564.0 L673.6,564.0 L674.3,564.0 L675.0,564.0    L675.7,564.0 L676.4,564.0 L677.1,564.0 L677.9,564.0 L678.6,564.0 L679.3,564.0 L680.0,564.0 L680.7,564.0    L681.4,564.0 L682.1,564.0 L682.8,564.0 L683.5,564.0 L684.2,564.0 L684.9,564.0 L685.7,564.0 L686.4,564.0    L687.1,564.0 L687.8,564.0 L688.5,564.0 L689.2,564.0 L689.9,564.0 L690.6,564.0 L691.3,564.0 L692.0,564.0    L692.7,564.0 L693.4,564.0 L694.2,564.0 L694.9,564.0 L695.6,564.0 L696.3,564.0 L697.0,564.0 L697.7,564.0    L698.4,564.0 L699.1,564.0 L699.8,564.0 L700.5,564.0 L701.2,564.0 L702.0,564.0 L702.7,564.0 L703.4,564.0    L704.1,564.0 L704.8,564.0 L705.5,564.0 L706.2,564.0 L706.9,564.0 L707.6,564.0 L708.3,564.0 L709.0,564.0    L709.7,564.0 L710.5,564.0 L711.2,564.0 L711.9,564.0 L712.6,564.0 L713.3,564.0 L714.0,564.0 L714.7,564.0    L715.4,564.0 L716.1,564.0 L716.8,564.0 L717.5,564.0 L718.3,564.0 L719.0,564.0 L719.7,564.0 L720.4,564.0    L721.1,564.0 L721.8,564.0 L722.5,564.0 L723.2,564.0 L723.9,564.0 L724.6,564.0 L725.3,564.0 L726.0,564.0    L726.8,564.0 L727.5,564.0 L728.2,564.0 L728.9,564.0 L729.6,564.0 L730.3,564.0 L731.0,564.0 L731.7,564.0    L732.4,564.0 L733.1,564.0 L733.8,564.0 L734.6,564.0 L735.3,564.0 L736.0,564.0 L736.7,564.0 L737.4,564.0    L738.1,564.0 L738.8,564.0 L739.5,564.0 L740.2,564.0 L740.9,564.0 L741.6,564.0 L742.3,564.0 L743.1,564.0    L743.8,564.0 L744.5,564.0 L745.2,564.0 L745.9,564.0 L746.6,564.0 L747.3,564.0 L748.0,564.0 L748.7,564.0    L749.4,564.0 L750.1,564.0 L750.9,564.0 L751.6,564.0 L752.3,564.0 L753.0,564.0 L753.7,564.0 L754.4,564.0    L755.1,564.0 L755.8,564.0 L756.5,564.0 L757.2,564.0 L757.9,564.0 L758.6,564.0 L759.4,564.0 L760.1,564.0    L760.8,564.0 L761.5,564.0 L762.2,564.0 L762.9,564.0 L763.6,564.0 L764.3,564.0 L765.0,564.0 L765.7,564.0    L766.4,564.0 L767.2,564.0 L767.9,564.0 L768.6,564.0 L769.3,564.0 L770.0,564.0 L770.7,564.0 L771.4,564.0    L772.1,564.0 L772.8,564.0 L773.5,564.0 L774.2,564.0 L774.9,564.0 L775.7,564.0 L776.4,564.0 L777.1,564.0    L777.8,564.0 L778.5,564.0 L779.2,564.0 "
       id="path3405" />
  </g>
  <g
     style="fill:none; color:black; stroke:currentColor; stroke-width:1.00; stroke-linecap:butt; stroke-linejoin:miter"
     id="g3407">
    <path
       d="M70.5,16.6 L70.5,564.0 L779.2,564.0 M779.2,16.6 M70.5,16.6 "
       id="path3409" />
  </g>
</svg>
