<?xml version="1.0" encoding="UTF-8" standalone="no"?>
<!-- Created with Inkscape (http://www.inkscape.org/) -->

<svg
   xmlns:dc="http://purl.org/dc/elements/1.1/"
   xmlns:cc="http://creativecommons.org/ns#"
   xmlns:rdf="http://www.w3.org/1999/02/22-rdf-syntax-ns#"
   xmlns:svg="http://www.w3.org/2000/svg"
   xmlns="http://www.w3.org/2000/svg"
   xmlns:xlink="http://www.w3.org/1999/xlink"
   xmlns:sodipodi="http://sodipodi.sourceforge.net/DTD/sodipodi-0.dtd"
   xmlns:inkscape="http://www.inkscape.org/namespaces/inkscape"
   id="svg3039"
   version="1.1"
   inkscape:version="0.48.3.1 r9886"
   width="408.0047"
   height="287.46582"
   xml:space="preserve"
   sodipodi:docname="mass_scale.svg"><metadata
     id="metadata3045"><rdf:RDF><cc:Work
         rdf:about=""><dc:format>image/svg+xml</dc:format><dc:type
           rdf:resource="http://purl.org/dc/dcmitype/StillImage" /><dc:title /></cc:Work></rdf:RDF></metadata><defs
     id="defs3043"><clipPath
   clipPathUnits="userSpaceOnUse"
   id="clipPath3163"><path
     d="M 0,2000 0,0 l 1720,0 0,2000 -1720,0 z m 197,-106.8 0.602,90.6 -36,0.6 -0.602,-90.6 0,0 18.602,71.4 17.398,-72 z"
     clip-rule="evenodd"
     id="path3165"
     inkscape:connector-curvature="0" /></clipPath>

</defs><sodipodi:namedview
     pagecolor="#ffffff"
     bordercolor="#666666"
     borderopacity="1"
     objecttolerance="10"
     gridtolerance="10"
     guidetolerance="10"
     inkscape:pageopacity="0"
     inkscape:pageshadow="2"
     inkscape:window-width="1600"
     inkscape:window-height="876"
     id="namedview3041"
     showgrid="false"
     inkscape:zoom="2.7978604"
     inkscape:cx="183.18238"
     inkscape:cy="134.92249"
     inkscape:window-x="0"
     inkscape:window-y="24"
     inkscape:window-maximized="1"
     inkscape:current-layer="g3049"
     fit-margin-top="5"
     fit-margin-left="5"
     fit-margin-right="5"
     fit-margin-bottom="5" /><g
     id="g3047"
     inkscape:groupmode="layer"
     inkscape:label="ink_ext_XXXXXX"
     transform="matrix(0,1.25,1.25,0,-13.064375,24.660625)"><g
       id="g3049"
       transform="matrix(0,0.1,-0.1,0,185.8165,13.6635)"><path
   style="fill:none;stroke:#999999;stroke-width:1;stroke-linecap:butt;stroke-linejoin:miter;stroke-miterlimit:4;stroke-opacity:1;stroke-dasharray:3, 3;stroke-dashoffset:0"
   d="m 39.617455,12.081327 196.476805,0"
   id="path3947"
   inkscape:connector-curvature="0"
   transform="matrix(8,0,0,-8,-136.635,1858.165)"
   sodipodi:nodetypes="cc" /><g
   id="g4343"
   transform="translate(-5e-4,-84.07648)"><path
     inkscape:connector-curvature="0"
     id="path3051"
     style="fill:#ff0000;fill-opacity:1;fill-rule:evenodd;stroke:none"
     d="m 860,384.199 180,0 0,45 -180,0 0,-45 z" /><path
     inkscape:connector-curvature="0"
     id="path3053"
     style="fill:none;stroke:#000000;stroke-width:4.5;stroke-linecap:butt;stroke-linejoin:bevel;stroke-miterlimit:10;stroke-opacity:1;stroke-dasharray:none"
     d="m 860,384.199 180,0 0,45 -180,0 0,-45 z" /><path
     inkscape:connector-curvature="0"
     id="path3055"
     style="fill:#00b000;fill-opacity:1;fill-rule:evenodd;stroke:none"
     d="m 1130,384.199 90,0 0,45 -90,0 0,-45 z" /><path
     inkscape:connector-curvature="0"
     id="path3057"
     style="fill:none;stroke:#000000;stroke-width:4.5;stroke-linecap:butt;stroke-linejoin:miter;stroke-miterlimit:10;stroke-opacity:1;stroke-dasharray:none"
     d="m 1130,384.199 90,0 0,45 -90,0 0,-45 z" /><path
     inkscape:connector-curvature="0"
     id="path3059"
     style="fill:#0000ff;fill-opacity:1;fill-rule:evenodd;stroke:none"
     d="m 1040,384.199 90,0 0,45 -90,0 0,-45 z" /><path
     inkscape:connector-curvature="0"
     id="path3061"
     style="fill:none;stroke:#000000;stroke-width:4.5;stroke-linecap:butt;stroke-linejoin:miter;stroke-miterlimit:10;stroke-opacity:1;stroke-dasharray:none"
     d="m 1040,384.199 90,0 0,45 -90,0 0,-45 z" /></g><g
   id="g4360"><path
     inkscape:connector-curvature="0"
     id="path3075"
     style="fill:#ff0000;fill-opacity:1;fill-rule:evenodd;stroke:none"
     d="m 860,24.1992 45,0 0,45 -45,0 0,-45 z" /><path
     inkscape:connector-curvature="0"
     id="path3077"
     style="fill:none;stroke:#000000;stroke-width:4.5;stroke-linecap:butt;stroke-linejoin:bevel;stroke-miterlimit:10;stroke-opacity:1;stroke-dasharray:none"
     d="m 860,24.1992 45,0 0,45 -45,0 0,-45 z" /><path
     inkscape:connector-curvature="0"
     id="path3079"
     style="fill:#0000ff;fill-opacity:1;fill-rule:evenodd;stroke:none"
     d="m 905,24.1992 157.801,0 0,45 -157.801,0 0,-45 z" /><path
     inkscape:connector-curvature="0"
     id="path3081"
     style="fill:none;stroke:#000000;stroke-width:4.5;stroke-linecap:butt;stroke-linejoin:miter;stroke-miterlimit:10;stroke-opacity:1;stroke-dasharray:none"
     d="m 905,24.1992 157.801,0 0,45 -157.801,0 0,-45 z" /><path
     inkscape:connector-curvature="0"
     id="path3083"
     style="fill:#00b000;fill-opacity:1;fill-rule:evenodd;stroke:none"
     d="m 1062.8,24.1992 157.199,0 0,45 -157.199,0 0,-45 z" /><path
     inkscape:connector-curvature="0"
     id="path3085"
     style="fill:none;stroke:#000000;stroke-width:4.5;stroke-linecap:butt;stroke-linejoin:miter;stroke-miterlimit:10;stroke-opacity:1;stroke-dasharray:none"
     d="m 1062.8,24.1992 157.199,0 0,45 -157.199,0 0,-45 z" /></g><g
   id="g3202"><path
     inkscape:connector-curvature="0"
     id="path3087"
     style="fill:#ff0000;fill-opacity:1;fill-rule:evenodd;stroke:none"
     d="m 358.398,29 180,0 0,45 -180,0 0,-45 z" /><path
     inkscape:connector-curvature="0"
     id="path3089"
     style="fill:none;stroke:#000000;stroke-width:4.5;stroke-linecap:butt;stroke-linejoin:bevel;stroke-miterlimit:10;stroke-opacity:1;stroke-dasharray:none"
     d="m 358.398,29 180,0 0,45 -180,0 0,-45 z" /><path
     inkscape:connector-curvature="0"
     id="path3091"
     style="fill:#00b000;fill-opacity:1;fill-rule:evenodd;stroke:none"
     d="m 628.398,29 90,0 0,45 -90,0 0,-45 z" /><path
     inkscape:connector-curvature="0"
     id="path3093"
     style="fill:none;stroke:#000000;stroke-width:4.5;stroke-linecap:butt;stroke-linejoin:miter;stroke-miterlimit:10;stroke-opacity:1;stroke-dasharray:none"
     d="m 628.398,29 90,0 0,45 -90,0 0,-45 z" /><path
     inkscape:connector-curvature="0"
     id="path3095"
     style="fill:#0000ff;fill-opacity:1;fill-rule:evenodd;stroke:none"
     d="m 538.398,29 90,0 0,45 -90,0 0,-45 z" /><path
     inkscape:connector-curvature="0"
     id="path3097"
     style="fill:none;stroke:#000000;stroke-width:4.5;stroke-linecap:butt;stroke-linejoin:miter;stroke-miterlimit:10;stroke-opacity:1;stroke-dasharray:none"
     d="m 538.398,29 90,0 0,45 -90,0 0,-45 z" /></g><g
   id="g3179"><path
     inkscape:connector-curvature="0"
     id="path3099"
     style="fill:#ff0000;fill-opacity:1;fill-rule:evenodd;stroke:#000000"
     d="m 358.398,119 123.31161,0 0,45 -123.31161,0 0,-45 z" /><path
     inkscape:connector-curvature="0"
     id="path3103"
     style="fill:#00b000;fill-opacity:1;fill-rule:evenodd;stroke:#000000"
     d="m 602.63055,119 115.76745,0 0,45 -115.76745,0 0,-45 z" /><path
     inkscape:connector-curvature="0"
     id="path3107"
     style="fill:#0000ff;fill-opacity:1;fill-rule:evenodd;stroke:#000000"
     d="m 481.70961,119 126.07443,0 0,45 -126.07443,0 0,-45 z" /></g><g
   id="g3192"><path
     inkscape:connector-curvature="0"
     id="path3111"
     style="fill:#ff0000;fill-opacity:1;fill-rule:evenodd;stroke:none"
     d="m 358.398,389 45,0 0,45 -45,0 0,-45 z" /><path
     inkscape:connector-curvature="0"
     id="path3113"
     style="fill:none;stroke:#000000;stroke-width:4.5;stroke-linecap:butt;stroke-linejoin:bevel;stroke-miterlimit:10;stroke-opacity:1;stroke-dasharray:none"
     d="m 358.398,389 45,0 0,45 -45,0 0,-45 z" /><path
     inkscape:connector-curvature="0"
     id="path3115"
     style="fill:#0000ff;fill-opacity:1;fill-rule:evenodd;stroke:none"
     d="m 403.398,389 157.801,0 0,45 -157.801,0 0,-45 z" /><path
     inkscape:connector-curvature="0"
     id="path3117"
     style="fill:none;stroke:#000000;stroke-width:4.5;stroke-linecap:butt;stroke-linejoin:miter;stroke-miterlimit:10;stroke-opacity:1;stroke-dasharray:none"
     d="m 403.398,389 157.801,0 0,45 -157.801,0 0,-45 z" /><path
     inkscape:connector-curvature="0"
     id="path3119"
     style="fill:#00b000;fill-opacity:1;fill-rule:evenodd;stroke:none"
     d="m 561.199,389 157.199,0 0,45 -157.199,0 0,-45 z" /><path
     inkscape:connector-curvature="0"
     id="path3121"
     style="fill:none;stroke:#000000;stroke-width:4.5;stroke-linecap:butt;stroke-linejoin:miter;stroke-miterlimit:10;stroke-opacity:1;stroke-dasharray:none"
     d="m 561.199,389 157.199,0 0,45 -157.199,0 0,-45 z" /></g><path
   d="m 1351.4,1598.6 180,0 0,45 -180,0 0,-45 z"
   style="fill:#ff0000;fill-opacity:1;fill-rule:evenodd;stroke:none"
   id="path3123"
   inkscape:connector-curvature="0" /><path
   d="m 1351.4,1598.6 180,0 0,45 -180,0 0,-45 z"
   style="fill:none;stroke:#000000;stroke-width:4.5;stroke-linecap:butt;stroke-linejoin:bevel;stroke-miterlimit:10;stroke-opacity:1;stroke-dasharray:none"
   id="path3125"
   inkscape:connector-curvature="0" /><path
   d="m 1621.4,1598.6 90,0 0,45 -90,0 0,-45 z"
   style="fill:#00b000;fill-opacity:1;fill-rule:evenodd;stroke:none"
   id="path3127"
   inkscape:connector-curvature="0" /><path
   d="m 1621.4,1598.6 90,0 0,45 -90,0 0,-45 z"
   style="fill:none;stroke:#000000;stroke-width:4.5;stroke-linecap:butt;stroke-linejoin:miter;stroke-miterlimit:10;stroke-opacity:1;stroke-dasharray:none"
   id="path3129"
   inkscape:connector-curvature="0" /><path
   d="m 1531.4,1598.6 90,0 0,45 -90,0 0,-45 z"
   style="fill:#0000ff;fill-opacity:1;fill-rule:evenodd;stroke:none"
   id="path3131"
   inkscape:connector-curvature="0" /><path
   d="m 1531.4,1598.6 90,0 0,45 -90,0 0,-45 z"
   style="fill:none;stroke:#000000;stroke-width:4.5;stroke-linecap:butt;stroke-linejoin:miter;stroke-miterlimit:10;stroke-opacity:1;stroke-dasharray:none"
   id="path3133"
   inkscape:connector-curvature="0" /><path
   d="m 1351.4,1643.6 180,0 0,45 -180,0 0,-45 z"
   style="fill:#ff0000;fill-opacity:1;fill-rule:evenodd;stroke:none"
   id="path3135"
   inkscape:connector-curvature="0" /><path
   d="m 1351.4,1643.6 180,0 0,45 -180,0 0,-45 z"
   style="fill:none;stroke:#000000;stroke-width:4.5;stroke-linecap:butt;stroke-linejoin:bevel;stroke-miterlimit:10;stroke-opacity:1;stroke-dasharray:none"
   id="path3137"
   inkscape:connector-curvature="0" /><path
   d="m 1621.4,1643.6 90,0 0,45 -90,0 0,-45 z"
   style="fill:#00b000;fill-opacity:1;fill-rule:evenodd;stroke:none"
   id="path3139"
   inkscape:connector-curvature="0" /><path
   d="m 1621.4,1643.6 90,0 0,45 -90,0 0,-45 z"
   style="fill:none;stroke:#000000;stroke-width:4.5;stroke-linecap:butt;stroke-linejoin:miter;stroke-miterlimit:10;stroke-opacity:1;stroke-dasharray:none"
   id="path3141"
   inkscape:connector-curvature="0" /><path
   d="m 1531.4,1643.6 90,0 0,45 -90,0 0,-45 z"
   style="fill:#0000ff;fill-opacity:1;fill-rule:evenodd;stroke:none"
   id="path3143"
   inkscape:connector-curvature="0" /><path
   d="m 1531.4,1643.6 90,0 0,45 -90,0 0,-45 z"
   style="fill:none;stroke:#000000;stroke-width:4.5;stroke-linecap:butt;stroke-linejoin:miter;stroke-miterlimit:10;stroke-opacity:1;stroke-dasharray:none"
   id="path3145"
   inkscape:connector-curvature="0" /><path
   d="m 1351.4,1688.6 45,0 0,45 -45,0 0,-45 z"
   style="fill:#ff0000;fill-opacity:1;fill-rule:evenodd;stroke:none"
   id="path3147"
   inkscape:connector-curvature="0" /><path
   d="m 1351.4,1688.6 45,0 0,45 -45,0 0,-45 z"
   style="fill:none;stroke:#000000;stroke-width:4.5;stroke-linecap:butt;stroke-linejoin:bevel;stroke-miterlimit:10;stroke-opacity:1;stroke-dasharray:none"
   id="path3149"
   inkscape:connector-curvature="0" /><path
   d="m 1396.4,1688.6 157.801,0 0,45 -157.801,0 0,-45 z"
   style="fill:#0000ff;fill-opacity:1;fill-rule:evenodd;stroke:none"
   id="path3151"
   inkscape:connector-curvature="0" /><path
   d="m 1396.4,1688.6 157.801,0 0,45 -157.801,0 0,-45 z"
   style="fill:none;stroke:#000000;stroke-width:4.5;stroke-linecap:butt;stroke-linejoin:miter;stroke-miterlimit:10;stroke-opacity:1;stroke-dasharray:none"
   id="path3153"
   inkscape:connector-curvature="0" /><path
   d="m 1554.2,1688.6 157.199,0 0,45 -157.199,0 0,-45 z"
   style="fill:#00b000;fill-opacity:1;fill-rule:evenodd;stroke:none"
   id="path3155"
   inkscape:connector-curvature="0" /><path
   d="m 1554.2,1688.6 157.199,0 0,45 -157.199,0 0,-45 z"
   style="fill:none;stroke:#000000;stroke-width:4.5;stroke-linecap:butt;stroke-linejoin:miter;stroke-miterlimit:10;stroke-opacity:1;stroke-dasharray:none"
   id="path3157"
   inkscape:connector-curvature="0" /><g
   id="g3159"><g
     id="g3161"
     clip-path="url(#clipPath3163)"><path
       d="m 179,20 0,945 45,45 -90,45 45,45 0.602,874.8"
       style="fill:none;stroke:#000000;stroke-width:18;stroke-linecap:butt;stroke-linejoin:miter;stroke-miterlimit:10;stroke-opacity:1;stroke-dasharray:none"
       id="path3167"
       inkscape:connector-curvature="0" /></g></g><path
   d="m 197,1941.2 -17.398,72 -18.602,-71.4 36,-0.6 z"
   style="fill:#000000;stroke:#000000;stroke-width:4.5;stroke-linecap:butt;stroke-linejoin:miter;stroke-miterlimit:10;stroke-opacity:1;stroke-dasharray:none"
   id="path3171"
   inkscape:connector-curvature="0" /><text
   id="text3175"
   transform="matrix(0,1,1,0,0,0)"
   x="20"
   y="89"
   style="font-size:120px"><tspan
     id="tspan3177"
     sodipodi:role="line"
     y="89"
     x="20 113.36 166.64 213.32001 260 290 329.95999 383.24002 469.88"
     style="font-size:120px;font-variant:normal;font-weight:normal;writing-mode:lr-tb;fill:#000000;fill-opacity:1;fill-rule:nonzero;stroke:none;font-family:Times;-inkscape-font-specification:Times-Roman">mass (eV)</tspan></text>

<text
   transform="scale(1,-1)"
   sodipodi:linespacing="125%"
   id="text3497"
   y="181.21405"
   x="413.06598"
   style="font-size:224px;font-style:normal;font-variant:normal;font-weight:normal;font-stretch:normal;line-height:125%;letter-spacing:0px;word-spacing:0px;fill:#000000;fill-opacity:1;stroke:none;font-family:Serif;-inkscape-font-specification:Serif"
   xml:space="preserve"><tspan
     style="font-size:144px"
     y="181.21405"
     x="413.06598"
     id="tspan3499"
     sodipodi:role="line">NH</tspan></text>

<text
   transform="scale(1,-1)"
   sodipodi:linespacing="125%"
   id="text3501"
   y="181.21405"
   x="949.66797"
   style="font-size:224px;font-style:normal;font-variant:normal;font-weight:normal;font-stretch:normal;line-height:125%;letter-spacing:0px;word-spacing:0px;fill:#000000;fill-opacity:1;stroke:none;font-family:Serif;-inkscape-font-specification:Serif"
   xml:space="preserve"><tspan
     style="font-size:144px"
     y="181.21405"
     x="949.66797"
     id="tspan3503"
     sodipodi:role="line">IH</tspan></text>

<text
   transform="scale(1,-1)"
   sodipodi:linespacing="125%"
   id="text3505"
   y="181.21405"
   x="1416.338"
   style="font-size:224px;font-style:normal;font-variant:normal;font-weight:normal;font-stretch:normal;line-height:125%;letter-spacing:0px;word-spacing:0px;fill:#000000;fill-opacity:1;stroke:none;font-family:Serif;-inkscape-font-specification:Serif"
   xml:space="preserve"><tspan
     style="font-size:144px"
     y="181.21405"
     x="1416.338"
     id="tspan3507"
     sodipodi:role="line">QD</tspan></text>

<use
   x="0"
   y="0"
   xlink:href="#g3179"
   id="use3184"
   width="228.52989"
   height="260.55624" /><use
   x="0"
   y="0"
   xlink:href="#use3184"
   id="use3186"
   transform="translate(994.62359,1525.4331)"
   width="228.52989"
   height="260.55624" /><g
   id="g4351"
   transform="translate(-5e-4,94.801)"><path
     inkscape:connector-curvature="0"
     id="path3063"
     style="fill:#ff0000;fill-opacity:1;fill-rule:evenodd;stroke:none"
     d="m 860,294.199 180,0 0,45 -180,0 0,-45 z" /><path
     inkscape:connector-curvature="0"
     id="path3065"
     style="fill:none;stroke:#000000;stroke-width:4.5;stroke-linecap:butt;stroke-linejoin:bevel;stroke-miterlimit:10;stroke-opacity:1;stroke-dasharray:none"
     d="m 860,294.199 180,0 0,45 -180,0 0,-45 z" /><path
     inkscape:connector-curvature="0"
     id="path3067"
     style="fill:#00b000;fill-opacity:1;fill-rule:evenodd;stroke:none"
     d="m 1130,294.199 90,0 0,45 -90,0 0,-45 z" /><path
     inkscape:connector-curvature="0"
     id="path3069"
     style="fill:none;stroke:#000000;stroke-width:4.5;stroke-linecap:butt;stroke-linejoin:miter;stroke-miterlimit:10;stroke-opacity:1;stroke-dasharray:none"
     d="m 1130,294.199 90,0 0,45 -90,0 0,-45 z" /><path
     inkscape:connector-curvature="0"
     id="path3071"
     style="fill:#0000ff;fill-opacity:1;fill-rule:evenodd;stroke:none"
     d="m 1040,294.199 90,0 0,45 -90,0 0,-45 z" /><path
     inkscape:connector-curvature="0"
     id="path3073"
     style="fill:none;stroke:#000000;stroke-width:4.5;stroke-linecap:butt;stroke-linejoin:miter;stroke-miterlimit:10;stroke-opacity:1;stroke-dasharray:none"
     d="m 1040,294.199 90,0 0,45 -90,0 0,-45 z" /><use
     height="260.55624"
     width="228.52989"
     transform="translate(502.46529,175.21866)"
     id="use3188"
     xlink:href="#use3184"
     y="0"
     x="0" /></g><g
   id="g3351"
   transform="translate(144,-32)"><g
     transform="translate(-4.6845652,0)"
     id="g3346"><use
       x="0"
       y="0"
       xlink:href="#use3184"
       id="use3190"
       transform="translate(1741.8797,1455.1097)"
       width="228.52989"
       height="260.55624" /><use
       x="0"
       y="0"
       xlink:href="#g3192"
       id="use3200"
       transform="translate(1741.8797,1043.3888)"
       width="228.52989"
       height="260.55624" /><use
       x="0"
       y="0"
       xlink:href="#g3202"
       id="use3210"
       transform="translate(1741.8797,1686.8307)"
       width="228.52989"
       height="260.55624" /></g><g
     id="g3332"><text
   xml:space="preserve"
   style="font-size:224px;font-style:normal;font-variant:normal;font-weight:normal;font-stretch:normal;line-height:125%;letter-spacing:0px;word-spacing:0px;fill:#000000;fill-opacity:1;stroke:none;font-family:Serif;-inkscape-font-specification:Serif"
   x="1900.4388"
   y="-1694.8424"
   id="text3191"
   sodipodi:linespacing="125%"
   transform="scale(1,-1)"><tspan
     sodipodi:role="line"
     id="tspan3193"
     x="1900.4388"
     y="-1694.8424"
     style="font-size:144px">m(</tspan></text>

<use
   x="0"
   y="0"
   xlink:href="#text3191"
   id="use3207"
   transform="translate(0,-141.72095)"
   width="228.52989"
   height="260.55624" /><use
   x="0"
   y="0"
   xlink:href="#text3191"
   id="use3209"
   transform="translate(0,-283.44189)"
   width="228.52989"
   height="260.55624" /></g><g
     transform="translate(-1.2695312e-4,0)"
     id="g3324"><text
   xml:space="preserve"
   style="font-size:224px;font-style:normal;font-variant:normal;font-weight:normal;font-stretch:normal;line-height:125%;letter-spacing:0px;word-spacing:0px;fill:#000000;fill-opacity:1;stroke:none;font-family:Serif;-inkscape-font-specification:Serif"
   x="2457.9507"
   y="-1553.1215"
   id="text3195"
   sodipodi:linespacing="125%"
   transform="scale(1,-1)"><tspan
     sodipodi:role="line"
     id="tspan3197"
     x="2457.9507"
     y="-1553.1215"
     style="font-size:144px">) = m2</tspan></text>

<text
   xml:space="preserve"
   style="font-size:224px;font-style:normal;font-variant:normal;font-weight:normal;font-stretch:normal;line-height:125%;letter-spacing:0px;word-spacing:0px;fill:#000000;fill-opacity:1;stroke:none;font-family:Serif;-inkscape-font-specification:Serif"
   x="2457.9507"
   y="-1694.8424"
   id="text3195-3"
   sodipodi:linespacing="125%"
   transform="scale(1,-1)"><tspan
     sodipodi:role="line"
     id="tspan3197-4"
     x="2457.9507"
     y="-1694.8424"
     style="font-size:144px">) = m1</tspan></text>

<text
   xml:space="preserve"
   style="font-size:224px;font-style:normal;font-variant:normal;font-weight:normal;font-stretch:normal;line-height:125%;letter-spacing:0px;word-spacing:0px;fill:#000000;fill-opacity:1;stroke:none;font-family:Serif;-inkscape-font-specification:Serif"
   x="2457.9507"
   y="-1411.4005"
   id="text3195-5"
   sodipodi:linespacing="125%"
   transform="scale(1,-1)"><tspan
     sodipodi:role="line"
     id="tspan3197-2"
     x="2457.9507"
     y="-1411.4005"
     style="font-size:144px">) = m3</tspan></text>

</g></g><g
   id="g3456"
   transform="translate(144,-32.000073)"><path
   inkscape:connector-curvature="0"
   id="path3057-0"
   style="fill:#00b000;fill-opacity:1;stroke:#000000;stroke-width:4.5;stroke-linecap:butt;stroke-linejoin:miter;stroke-miterlimit:10;stroke-opacity:1;stroke-dasharray:none"
   d="m 2280.3158,1182.4445 90,0 0,45 -90,0 0,-45 z" /><text
   transform="scale(1,-1)"
   sodipodi:linespacing="125%"
   id="text3303"
   y="-1158.39"
   x="2370.3645"
   style="font-size:224px;font-style:normal;font-variant:normal;font-weight:normal;font-stretch:normal;line-height:125%;letter-spacing:0px;word-spacing:0px;fill:#000000;fill-opacity:1;stroke:none;font-family:Serif;-inkscape-font-specification:Serif"
   xml:space="preserve"><tspan
     style="font-size:144px"
     y="-1158.39"
     x="2370.3645"
     id="tspan3305"
     sodipodi:role="line">) ∝ |Uei|<tspan
   id="tspan3309"
   style="font-size:93.60131836px;baseline-shift:super">2</tspan></tspan></text>

<text
   transform="scale(1,-1)"
   sodipodi:linespacing="125%"
   id="text3299"
   y="-1161.4562"
   x="1898.4701"
   style="font-size:224px;font-style:normal;font-variant:normal;font-weight:normal;font-stretch:normal;line-height:125%;letter-spacing:0px;word-spacing:0px;fill:#000000;fill-opacity:1;stroke:none;font-family:Serif;-inkscape-font-specification:Serif"
   xml:space="preserve"><tspan
     style="font-size:144px"
     y="-1161.4562"
     x="1898.4701"
     id="tspan3301"
     sodipodi:role="line">area(</tspan></text>

</g><g
   id="g3464"
   transform="translate(144,-56.000073)"><path
   inkscape:connector-curvature="0"
   id="path3061-5"
   style="fill:#0000ff;fill-opacity:1;stroke:#000000;stroke-width:4.5;stroke-linecap:butt;stroke-linejoin:miter;stroke-miterlimit:10;stroke-opacity:1;stroke-dasharray:none"
   d="m 2280.3158,1040.7236 90,0 0,44.9999 -90,0 0,-44.9999 z" /><text
   transform="scale(1,-1)"
   sodipodi:linespacing="125%"
   id="text3303-3"
   y="-1016.6691"
   x="2370.3645"
   style="font-size:224px;font-style:normal;font-variant:normal;font-weight:normal;font-stretch:normal;line-height:125%;letter-spacing:0px;word-spacing:0px;fill:#000000;fill-opacity:1;stroke:none;font-family:Serif;-inkscape-font-specification:Serif"
   xml:space="preserve"><tspan
     style="font-size:144px"
     y="-1016.6691"
     x="2370.3645"
     id="tspan3305-6"
     sodipodi:role="line">) ∝ |Uμi|<tspan
   id="tspan3309-5"
   style="font-size:93.60131836px;baseline-shift:super">2</tspan></tspan></text>

<use
   height="260.55624"
   width="228.52989"
   transform="translate(0,-141.72095)"
   id="use3404"
   xlink:href="#text3299"
   y="0"
   x="0" /></g><g
   id="g3471"
   transform="translate(144,-80.00001)"><path
   inkscape:connector-curvature="0"
   id="path3061-3"
   style="fill:#ff0000;fill-opacity:1;stroke:#000000;stroke-width:4.5;stroke-linecap:butt;stroke-linejoin:miter;stroke-miterlimit:10;stroke-opacity:1;stroke-dasharray:none"
   d="m 2280.3158,899.00257 90,0 0,45 -90,0 0,-45 z" /><text
   transform="scale(1,-1)"
   sodipodi:linespacing="125%"
   id="text3303-9"
   y="-874.94818"
   x="2370.3645"
   style="font-size:224px;font-style:normal;font-variant:normal;font-weight:normal;font-stretch:normal;line-height:125%;letter-spacing:0px;word-spacing:0px;fill:#000000;fill-opacity:1;stroke:none;font-family:Serif;-inkscape-font-specification:Serif"
   xml:space="preserve"><tspan
     style="font-size:144px"
     y="-874.94818"
     x="2370.3645"
     id="tspan3305-64"
     sodipodi:role="line">) ∝ |Uτi|<tspan
   id="tspan3309-0"
   style="font-size:93.60131836px;baseline-shift:super">2</tspan></tspan></text>

<use
   height="260.55624"
   width="228.52989"
   transform="translate(0,-283.44189)"
   id="use3406"
   xlink:href="#text3299"
   y="0"
   x="0" /></g></g></g></svg>